<svg width="204" height="15" viewBox="0 0 204 15" fill="none" xmlns="http://www.w3.org/2000/svg">
<path d="M204 2.01031C204 0.901722 203.098 0.00463604 201.99 0.0103356L10.4936 0.994892C9.86767 0.99811 9.27939 1.29415 8.90385 1.79487L1.4 11.8C0.411145 13.1185 1.35191 15 3 15H202C203.105 15 204 14.1046 204 13V2.01031Z" fill="#2E99DA" fill-opacity="0.1"/>
<path d="M201.991 0.260332L10.4948 1.24489C9.9472 1.2477 9.43245 1.50674 9.10385 1.94487L1.60001 11.95C0.734756 13.1037 1.55792 14.75 3 14.75H202C202.966 14.75 203.75 13.9665 203.75 13V2.01031C203.75 1.0403 202.961 0.255345 201.991 0.260332Z" stroke="white" stroke-opacity="0.2" stroke-width="0.5"/>
</svg>
