<svg width="163" height="29" viewBox="0 0 163 29" fill="none" xmlns="http://www.w3.org/2000/svg">
<rect x="10.9937" y="0.00012207" width="3.65029" height="27.0122" fill="#3A7ED1" fill-opacity="0.24"/>
<rect x="16.1025" y="0.00012207" width="2.19018" height="27.0122" fill="#3A7ED1" fill-opacity="0.24"/>
<rect width="3.65029" height="27.0122" transform="matrix(-1 0 0 1 153.275 1.00092)" fill="#3A7ED1" fill-opacity="0.24"/>
<rect width="2.19018" height="27.0122" transform="matrix(-1 0 0 1 148.173 1.00092)" fill="#3A7ED1" fill-opacity="0.24"/>
<path d="M162.997 2.1903C162.997 0.980696 162.016 0.00012207 160.806 0.00012207H12.0088C11.3201 0.00012207 10.6715 0.324051 10.2578 0.874634L1.43578 12.6156C1.1507 12.995 0.996567 13.4567 0.996567 13.9313V25.4157C0.996567 26.623 1.97363 27.6027 3.18098 27.6059L152.344 27.9972C153.037 27.9991 153.69 27.6725 154.105 27.1169L162.562 15.7829C162.844 15.4045 162.997 14.9451 162.997 14.473V2.1903Z" fill="#2E99DA" fill-opacity="0.2"/>
<path d="M162.632 2.1903C162.632 1.1823 161.814 0.365151 160.806 0.365151H12.0088C11.4349 0.365151 10.8944 0.635092 10.5497 1.09391L1.7276 12.8349C1.49004 13.151 1.3616 13.5358 1.3616 13.9313V25.4157C1.3616 26.4218 2.17581 27.2382 3.18195 27.2408L152.344 27.6322C152.922 27.6337 153.467 27.3616 153.812 26.8986L162.269 15.5645C162.504 15.2493 162.632 14.8664 162.632 14.473V2.1903Z" stroke="white" stroke-opacity="0.5" stroke-width="0.730059"/>
<path d="M56.0383 15.0222C55.8456 14.8615 55.6046 14.7491 55.428 14.5082C55.4922 14.444 55.5404 14.3797 55.6046 14.3315C55.701 14.2673 55.7974 14.203 55.8777 14.1227C56.6486 13.416 56.9698 12.5487 56.761 11.5047C56.488 10.0432 55.187 8.96705 53.7255 8.96705C52.4566 8.95099 51.2038 8.96705 49.935 8.96705C49.3729 8.96705 48.7946 8.98311 48.2325 8.99917C48.1201 8.99917 48.0237 9.01524 47.9113 9.04736C47.8952 9.06342 47.8792 9.1116 47.8631 9.15979C47.8631 9.15979 47.8792 9.19191 47.8952 9.20797C47.9273 9.22403 47.9755 9.24009 48.0076 9.25616C48.1522 9.28828 48.3289 9.20797 48.4413 9.33646C48.5377 9.46495 48.5055 9.64163 48.5055 9.78618C48.5055 9.80224 48.5055 9.83436 48.5055 9.85042C48.5377 12.9021 48.5698 15.9377 48.6019 18.9732C48.6019 19.1499 48.618 19.3266 48.6019 19.5033C48.6019 19.7281 48.5537 19.7602 48.3289 19.7763C48.1683 19.7924 48.0237 19.7924 47.8631 19.8084C47.8149 19.8084 47.7507 19.8405 47.7346 19.9209C47.7025 20.0172 47.7828 20.0333 47.847 20.0333C47.9434 20.0493 48.0558 20.0493 48.1683 20.0493C48.361 20.0493 48.5698 20.0172 48.6822 20.2421C48.6983 20.2903 48.8107 20.3063 48.8428 20.226C48.9553 19.9851 49.1641 20.0493 49.3568 20.0493C50.2883 20.0172 51.2199 20.0172 52.1675 19.9851C52.7939 19.969 53.4364 19.969 54.0628 19.9048C54.8819 19.8084 55.6207 19.4711 56.215 18.8769C56.6486 18.4272 56.9538 17.8971 57.002 17.2386C57.0823 16.3231 56.7289 15.6004 56.0383 15.0222ZM56.5201 11.9384C56.5201 12.8057 56.3756 13.1912 55.7974 13.6891C56.1507 13.0948 56.2792 12.5487 56.5201 11.9384ZM55.5565 12.1472C55.5725 12.0669 55.5404 11.8902 55.7171 11.9384C55.8295 11.9705 55.8134 12.1311 55.8134 12.2275C55.8134 12.4202 55.6849 12.5487 55.5725 12.7896C55.4601 12.5005 55.5404 12.3239 55.5565 12.1472ZM49.0677 9.28828C49.1159 9.27222 49.1962 9.28828 49.2444 9.3204C49.3086 9.36858 49.2925 9.43283 49.2444 9.48101C49.1962 9.5292 49.148 9.56132 49.0998 9.6095C48.9553 9.73799 48.9392 9.56132 48.8589 9.51314H48.875C48.9392 9.43283 48.9874 9.35252 49.0677 9.28828ZM48.8107 11.8099C48.8107 11.4084 48.8107 10.9908 48.8107 10.5732C48.8107 10.5411 48.8589 10.4929 48.891 10.4768C48.9231 10.4447 48.9713 10.4768 48.9713 10.5411C49.0677 10.8944 49.0516 11.2799 49.1962 11.6172C49.2283 11.7135 49.148 11.7938 48.891 11.9866C48.8589 11.9384 48.8107 11.8741 48.8107 11.8099ZM48.875 12.7415C49.0034 12.8378 48.9713 12.9181 48.9713 12.9984C48.9713 13.0627 48.9553 13.1269 48.9392 13.1912C48.8268 13.0466 48.891 12.9021 48.875 12.7415ZM48.9553 13.6569C49.0195 14.1548 49.0195 14.5082 48.9231 14.8455C48.875 14.4921 48.7946 14.1388 48.9553 13.6569ZM49.662 19.696C49.421 19.6317 49.148 19.8887 48.9713 19.7121C48.7625 19.5193 48.875 19.2142 48.875 18.9572C48.8589 17.9614 48.8589 16.9816 48.8589 15.9858C48.8589 15.8092 48.8589 15.6325 48.8589 15.4558C48.891 15.4558 48.9392 15.4398 48.9713 15.4398C48.9874 15.6485 49.0195 15.8734 49.0034 16.0822C48.9231 16.8531 49.0195 17.6241 49.0034 18.395C48.9874 18.8769 49.1962 19.2945 49.662 19.5033C49.7101 19.5354 49.7744 19.5675 49.7583 19.6478C49.7423 19.696 49.7101 19.7121 49.662 19.696ZM54.8016 11.7778C54.8176 11.7778 54.8337 11.7457 54.8498 11.7457C54.8658 11.7617 54.8819 11.7617 54.8979 11.7778C54.9782 11.8902 55.0104 12.0026 54.9943 12.1472C54.9782 12.1632 54.9782 12.1793 54.9622 12.1954C54.9461 12.1954 54.914 12.1954 54.914 12.1793C54.8176 12.1151 54.7534 11.8902 54.8016 11.7778ZM54.5928 15.6807C54.5285 15.5843 54.5285 15.504 54.5767 15.4237C54.4 15.4719 54.2234 15.504 54.0788 15.3594C54.0467 15.3273 54.0306 15.2791 54.0467 15.2631C54.0628 15.231 54.1109 15.2149 54.1591 15.2149C54.3197 15.231 54.384 15.4879 54.5767 15.4076C54.5767 15.504 54.641 15.5843 54.5928 15.6807ZM54.3037 10.8141C54.3358 10.8141 54.3519 10.8623 54.3679 10.8944C54.3679 10.9105 54.3358 10.9426 54.3358 10.9426C54.3037 10.9265 54.2715 10.9105 54.2394 10.8783C54.2394 10.8302 54.2555 10.798 54.3037 10.8141ZM53.4845 9.68981C53.5488 9.68981 53.5649 9.70587 53.5167 9.73799C53.5167 9.75406 53.4845 9.73799 53.4685 9.73799C53.4524 9.73799 53.4524 9.72193 53.4364 9.70587C53.4524 9.68981 53.4685 9.68981 53.4845 9.68981ZM53.7897 10.3965C53.8058 10.4126 53.8218 10.4286 53.8218 10.4447C53.8379 10.5089 53.8218 10.5411 53.7897 10.5571C53.7576 10.5571 53.7415 10.5732 53.7255 10.5732C53.0991 10.5892 52.4887 10.5892 51.8463 10.5089C51.9427 10.3323 52.0551 10.4126 52.1515 10.3965C52.5691 10.3644 53.0027 10.3323 53.4364 10.3001C53.5649 10.3001 53.6933 10.2841 53.7897 10.3965ZM51.5572 9.30434C51.7339 9.22403 51.9105 9.24009 52.0712 9.27222C52.1193 9.28828 52.1515 9.36858 52.1996 9.41677C52.1675 9.48101 52.1515 9.56132 52.1033 9.57738C51.9427 9.64163 51.6054 9.5292 51.5251 9.40071C51.509 9.38465 51.5411 9.30434 51.5572 9.30434ZM50.465 19.7121C50.3847 19.7121 50.2883 19.696 50.2723 19.5996C50.2562 19.5193 50.3365 19.5193 50.3847 19.5033C50.465 19.5033 50.5614 19.4872 50.5935 19.5996C50.5775 19.6639 50.5293 19.7121 50.465 19.7121ZM50.3847 16.2749C50.3526 15.9698 50.2723 15.6807 50.3687 15.231C50.4971 15.6807 50.4008 15.9858 50.3847 16.2749ZM50.3847 17.2226C50.3847 17.4153 50.3847 17.608 50.3847 17.8008C50.2883 17.608 50.3687 17.4153 50.3847 17.2226ZM50.465 10.8302C50.4329 10.9747 50.449 11.1353 50.449 11.2959C50.4329 12.0026 50.4329 12.7093 50.4168 13.416C50.2241 13.4321 50.208 13.2875 50.2241 13.2072C50.3687 12.5327 50.2562 11.842 50.2402 11.1514C50.2402 11.0229 50.208 10.8944 50.2402 10.7659C50.2562 10.6053 50.2241 10.4286 50.3365 10.3323C50.5132 10.1716 50.7541 10.1395 50.9629 10.1877C51.1396 10.2198 51.3002 10.3162 51.4929 10.3804C51.2841 10.5089 51.1235 10.3965 50.9469 10.3965C50.6738 10.4286 50.4971 10.5411 50.465 10.8302ZM50.722 11.0871C50.722 10.8944 50.8023 10.8302 51.0111 10.8302C51.3645 10.8141 51.7178 10.8302 52.0551 10.8302V10.8462C52.3603 10.8462 52.6654 10.8623 52.9706 10.8462C53.2276 10.8462 53.4524 10.8944 53.6773 10.9747C54.3679 11.2156 54.5767 11.7135 54.5607 12.4363C54.5607 12.6451 54.4643 12.8218 54.2876 12.9342C53.9343 13.1751 53.597 13.3839 53.1633 13.4482C52.4245 13.5285 51.6857 13.5285 50.9469 13.5285C50.8023 13.5285 50.7059 13.4482 50.7059 13.2875C50.7059 12.5487 50.7059 11.826 50.722 11.0871ZM53.6933 15.1988C53.6291 15.1988 53.5649 15.2149 53.5167 15.1988C53.4524 15.1828 53.4524 15.1346 53.5006 15.1185C53.5488 15.1025 53.597 15.1025 53.6291 15.1185C53.6452 15.1185 53.6612 15.1667 53.6933 15.1988ZM52.2157 15.0382C52.1836 15.0543 52.1515 15.0703 52.1033 15.0864C52.0712 15.0703 52.039 15.0543 52.0069 15.0222C52.039 15.0061 52.0712 14.974 52.1193 14.974C52.1515 14.974 52.1836 15.0061 52.2157 15.0382ZM50.979 19.6639H51.0111C50.995 19.6799 50.995 19.6799 50.995 19.6799L50.979 19.6639ZM51.236 19.1981C51.2199 19.1981 51.2199 19.166 51.2038 19.166C51.2199 19.1499 51.236 19.1499 51.252 19.1499C51.2681 19.1499 51.2681 19.166 51.2841 19.182C51.2681 19.182 51.252 19.1981 51.236 19.1981ZM51.8463 19.4872C52.0712 19.3587 52.2157 19.5354 52.3763 19.5193C52.5209 19.5033 52.6815 19.439 52.81 19.5996C52.4727 19.696 52.1675 19.7121 51.8463 19.4872ZM53.9343 19.6317C53.9021 19.6157 53.87 19.5996 53.8379 19.5675C53.854 19.5514 53.87 19.5193 53.9021 19.5033C54.0306 19.4711 54.1591 19.4872 54.2715 19.5514C54.1591 19.5996 54.0467 19.6478 53.9343 19.6317ZM54.2876 19.5193C54.3037 19.5033 54.3358 19.5354 54.2876 19.5193V19.5193ZM53.8861 17.9774C53.7415 18.0096 53.597 18.0417 53.4364 18.0417C53.0509 18.0577 52.6654 18.0417 52.2639 18.0417C51.8302 18.0417 51.3966 18.0417 50.9629 18.0417C50.8184 18.0417 50.7059 17.9774 50.722 17.8008C50.722 17.0941 50.722 16.3874 50.7381 15.6807C50.7381 15.5201 50.8344 15.4398 50.979 15.4237C51.8784 15.3594 52.7618 15.3273 53.6452 15.5361C53.7897 15.5682 53.9343 15.6164 54.0628 15.6807C54.5285 15.9055 54.7694 16.2749 54.7694 16.7889C54.7855 17.4474 54.5285 17.8008 53.8861 17.9774ZM54.6249 19.4551C54.6088 19.4551 54.5928 19.439 54.5928 19.423C54.6088 19.423 54.6249 19.4069 54.641 19.4069C54.657 19.4069 54.6731 19.423 54.6731 19.439C54.657 19.439 54.641 19.4551 54.6249 19.4551ZM55.9098 17.5438C55.9098 17.5277 55.9098 17.5277 55.9098 17.5438C55.8937 17.5598 55.8937 17.5598 55.8937 17.5598H55.9098V17.5759C55.5243 17.6883 55.2192 17.9935 54.7534 17.9935C54.7052 17.7847 54.8819 17.6723 54.914 17.5117C54.9461 17.3671 55.0104 17.2226 55.0264 17.078C55.0425 16.9013 55.0264 16.7247 55.0264 16.548C55.0104 16.3874 54.9943 16.2268 54.8979 16.0983C54.8016 15.9537 54.7052 15.8252 54.5928 15.6807C54.657 15.6807 54.7213 15.6485 54.7534 15.6646C55.0104 15.777 55.2673 15.9055 55.3958 16.1786C55.4761 16.1946 55.5083 16.2589 55.5565 16.3231C55.7652 16.3874 55.9419 16.4837 55.9098 16.7568C55.8937 16.8853 55.974 16.9656 56.0222 17.0619C56.1186 17.2547 56.0383 17.3992 55.9098 17.5438ZM56.6647 17.5117C56.6486 17.5117 56.6326 17.4956 56.6326 17.4956C56.6326 17.4474 56.6486 17.4153 56.6486 17.3832C56.6647 17.3832 56.6968 17.3992 56.6807 17.3992C56.6807 17.4474 56.6647 17.4795 56.6647 17.5117ZM64.4095 11.8902C64.3131 11.842 64.2167 11.7938 64.1204 11.7778C63.3976 11.6493 62.723 11.7617 62.0967 12.1151C61.9521 12.1954 61.8397 12.356 61.6469 12.3399C61.5185 12.1793 61.663 12.0348 61.6309 11.8902C61.5827 11.6814 61.4863 11.6332 61.2454 11.7296C61.1812 11.7457 61.1169 11.7778 61.0527 11.7778C60.7796 11.7778 60.4905 11.7778 60.2014 11.7778C60.0569 11.7778 59.9766 11.6814 59.9284 11.5529C59.8802 11.4566 59.7999 11.4244 59.7356 11.5369C59.6393 11.7135 59.5269 11.7938 59.3181 11.7617C59.2859 11.7617 59.2377 11.7938 59.2056 11.8099C59.1896 11.826 59.1574 11.842 59.1735 11.8581C59.1735 11.9063 59.1735 11.9545 59.2056 11.9705C59.2699 12.0026 59.3341 12.0187 59.3984 12.0348C59.6714 12.099 59.6714 12.099 59.6875 12.356C59.6875 12.4845 59.6875 12.613 59.6875 12.7575C59.7035 14.7331 59.7196 16.7247 59.7356 18.7002C59.7356 18.9732 59.7838 19.2623 59.6714 19.5354C59.6393 19.5996 59.6714 19.7121 59.7035 19.7924C59.7517 19.953 59.832 19.969 60.0087 19.8727C60.0729 19.8405 60.1211 19.8084 60.1854 19.7763C60.2175 19.7763 60.2657 19.7763 60.3139 19.7763C60.6833 19.8566 61.1009 19.6478 61.4221 19.9851C61.4381 20.0012 61.5345 20.0012 61.5345 19.9851C61.6951 19.7442 61.9842 19.8566 62.177 19.7281C62.193 19.7121 62.2251 19.696 62.2251 19.6799C62.2091 19.6478 62.177 19.5836 62.1609 19.5836C62.0485 19.5514 61.936 19.5354 61.8397 19.5354C61.6791 19.5193 61.5988 19.439 61.5988 19.2945C61.5827 19.2302 61.5827 19.166 61.5827 19.1017C61.5666 17.9132 61.5988 16.7407 61.7112 15.5682C61.8076 14.5724 62.4179 13.9942 63.3173 13.7533C63.6064 13.673 63.6385 13.7051 63.751 14.0264C63.767 14.0585 63.7992 14.0906 63.8152 14.1227C63.8313 14.1388 63.8634 14.1388 63.8795 14.1548C63.9276 14.1709 63.9758 14.1548 63.9758 14.0906C63.9919 13.9621 64.008 13.8336 64.008 13.7051C64.024 13.2554 64.024 12.7896 64.024 12.3399C64.024 12.1632 64.0883 12.0348 64.2971 12.0829C64.3292 12.0829 64.3774 12.0669 64.4255 12.0508C64.4416 12.0508 64.4577 12.0187 64.4577 12.0026C64.4577 11.9705 64.4416 11.9063 64.4095 11.8902ZM60.1693 19.4872C60.0248 19.4711 60.0087 19.3748 60.0408 19.2623C60.0408 19.2142 60.0569 19.1338 60.1532 19.166C60.2657 19.1981 60.3139 19.2784 60.2978 19.3908C60.2817 19.4551 60.2335 19.4872 60.1693 19.4872ZM60.3781 14.7973C60.362 14.8294 60.2978 14.8294 60.2657 14.8455C60.1693 14.8134 60.1532 14.5724 60.2335 14.5243C60.2496 14.5082 60.3139 14.5243 60.346 14.5564C60.4102 14.6206 60.4102 14.717 60.3781 14.7973ZM60.4263 12.1632C60.4102 12.2114 60.3781 12.2275 60.3299 12.2114C60.3139 12.1793 60.2978 12.1472 60.2817 12.1151C60.3139 12.099 60.346 12.0669 60.3781 12.0829C60.4263 12.0829 60.4423 12.1151 60.4263 12.1632ZM60.7957 15.1346C60.7796 15.1185 60.7475 15.0864 60.7314 15.0543C60.7314 15.0222 60.7636 14.99 60.7636 14.9579C60.7957 14.99 60.8278 15.0222 60.8439 15.0543C60.8599 15.1025 60.8439 15.1346 60.7957 15.1346ZM60.9884 16.9174L61.0206 16.9495L60.9884 16.9174ZM61.0206 16.9335C60.9563 16.8531 60.9242 16.7728 60.9402 16.6604C60.9563 16.6122 60.9884 16.5801 61.0366 16.6122C61.0366 16.6122 61.0527 16.6283 61.0527 16.6443C61.0527 16.7407 61.0366 16.8371 61.0206 16.9335ZM61.2293 12.5487L61.2615 12.5166C61.149 12.3881 61.0206 12.2596 60.8921 12.1311C61.2293 12.0508 61.2775 12.0669 61.2936 12.2757C61.2936 12.356 61.2775 12.4363 61.2615 12.5327L61.2293 12.5487ZM61.2615 14.7491C61.2615 14.717 61.2615 14.6688 61.2615 14.6367C61.2615 14.6206 61.2775 14.6206 61.2936 14.6206C61.2936 14.6527 61.3097 14.7009 61.3097 14.7331C61.3097 14.7331 61.2775 14.7491 61.2615 14.7491ZM61.5666 14.7652C61.4863 14.5082 61.4863 14.5082 61.6469 14.3315L61.6309 14.2833L61.663 14.3155C61.6309 14.46 61.6148 14.6046 61.5666 14.7652ZM62.177 13.0306C62.1448 13.0466 62.0967 13.0145 62.0645 12.9984C62.0485 12.9984 62.0485 12.9663 62.0485 12.9503C62.2251 12.7254 62.45 12.629 62.7391 12.6611C62.5624 12.7896 62.3697 12.9181 62.177 13.0306ZM63.5582 12.1793C63.5261 12.1472 63.4779 12.099 63.494 12.0829C63.5261 12.0187 63.5904 12.0026 63.6546 12.0348C63.6867 12.0508 63.6867 12.099 63.7028 12.1472C63.6707 12.2114 63.6064 12.2114 63.5582 12.1793ZM67.2195 13.3839H67.2034C67.2195 13.3839 67.2195 13.3839 67.2195 13.3839ZM74.2222 14.8615C73.8528 13.2233 72.857 12.099 71.2187 11.6653C69.5805 11.2156 68.151 11.7135 67.0588 12.9984C66.1273 14.0585 65.8382 15.3273 66.1273 16.7247C66.5128 18.6199 68.2153 20.0172 70.1908 20.0333C70.6084 20.0493 71.0742 19.953 71.5399 19.7924C73.4512 19.1338 74.7201 16.9816 74.2222 14.8615ZM66.4325 16.2268C66.4003 16.3874 66.2879 16.034 66.304 15.6325C66.304 15.6164 66.32 15.6004 66.32 15.5843C66.3361 15.6164 66.3682 15.6485 66.3843 15.6807C66.4003 15.8573 66.4485 16.0501 66.4325 16.2268ZM71.7969 13.5606C71.9415 13.7212 72.086 13.8979 72.2145 14.0585V14.0745C72.1985 14.0585 72.1985 14.0585 72.1985 14.0585C72.0539 14.1067 71.9736 13.9942 71.8933 13.9139C71.7327 13.7854 71.6524 13.5766 71.4115 13.5766C71.5399 13.4642 71.6684 13.4321 71.7969 13.5606ZM71.2348 11.9545C71.2187 11.9705 71.2187 11.9866 71.2187 12.0026C71.2027 12.0026 71.1866 12.0026 71.1705 12.0026C71.1545 11.9866 71.1384 11.9705 71.1224 11.9705C71.1545 11.9705 71.1866 11.9545 71.2348 11.9545ZM70.5602 11.826C70.5763 11.826 70.5923 11.842 70.6245 11.842C70.6084 11.842 70.5923 11.8581 70.5763 11.8581C70.5441 11.8581 70.5281 11.8581 70.512 11.8581C70.5281 11.842 70.5441 11.826 70.5602 11.826ZM70.8011 12.8699C71.042 12.9663 71.2508 13.1269 71.4436 13.2875C71.5239 13.3518 71.4275 13.4803 71.4115 13.5766C71.1705 13.2554 70.8172 13.1269 70.4478 13.0466C70.3675 13.0466 70.2872 13.0948 70.2069 12.9984C70.3996 12.886 70.6084 12.7736 70.8011 12.8699ZM67.4925 13.0948C67.5086 13.0787 67.5246 13.0948 67.4925 13.0948V13.0948ZM67.4925 13.1109C67.4925 13.1109 67.4925 13.1109 67.5086 13.1109H67.4925ZM67.2195 13.3839C67.2034 13.4 67.2034 13.416 67.2034 13.4321C67.2034 13.4321 67.2034 13.4321 67.2034 13.416C67.2034 13.416 67.2034 13.4 67.2034 13.3839C67.2034 13.3839 67.2034 13.3839 67.2195 13.3839C67.2195 13.3678 67.2195 13.3678 67.2195 13.3678C67.2195 13.3678 67.2195 13.3678 67.2195 13.3839ZM67.7174 18.5396C67.5728 18.3629 67.4283 18.1702 67.4925 17.9132C67.4925 17.8811 67.5407 17.8489 67.5728 17.8168V17.7847V17.8008C67.5728 18.0256 67.7655 18.138 67.878 18.2665C68.0386 18.4272 68.135 18.6199 68.3598 18.7805C68.0546 18.8126 67.8619 18.7323 67.7174 18.5396ZM68.5365 17.351C67.7495 16.3071 67.9262 14.717 68.922 13.8657C69.7571 13.159 70.8814 13.2233 71.6203 14.0264C72.07 14.5082 72.2627 15.1025 72.2627 15.7931C72.2466 16.4516 72.0057 17.078 71.5078 17.5759C70.6245 18.4432 69.2914 18.3468 68.5365 17.351ZM69.1147 18.6681C69.0986 18.652 69.1147 18.6199 69.1147 18.6681V18.6681ZM70.5441 19.7442C70.2872 19.7763 70.0141 19.7442 69.7571 19.7442C69.6287 19.7442 69.5483 19.6799 69.5002 19.5675C69.4038 19.5836 69.3074 19.5836 69.2271 19.5996C69.2271 19.5836 69.2271 19.5675 69.2271 19.5514C69.3074 19.5675 69.4038 19.5675 69.5002 19.5675C69.6447 19.5836 69.7893 19.5354 69.9499 19.5514C70.6245 19.6639 71.2348 19.5193 71.813 19.1499C72.0057 19.0375 72.1663 18.8126 72.4554 18.8769C71.9415 19.4551 71.2508 19.6478 70.5441 19.7442ZM72.4554 16.6443C72.5197 16.0822 72.5679 15.5843 72.5357 15.0864C72.9052 15.8092 72.9052 15.9216 72.4554 16.6443ZM72.873 13.143C72.857 13.143 72.857 13.143 72.857 13.143C72.857 13.143 72.857 13.143 72.873 13.143ZM72.873 13.159C72.8891 13.159 72.8891 13.1751 72.8891 13.1751C72.8891 13.1751 72.873 13.1751 72.873 13.159ZM73.0818 13.2394C73.13 13.2394 73.1782 13.2715 73.1943 13.3197C73.1461 13.3197 73.0979 13.3036 73.0818 13.2394ZM73.2424 13.3518C73.2906 13.3678 73.3388 13.4 73.387 13.416C73.3227 13.416 73.2585 13.4321 73.2424 13.3518ZM73.5637 17.5117C73.5637 17.5277 73.5637 17.5277 73.5637 17.5277C73.5797 17.3832 73.6119 17.2386 73.644 17.078C73.7243 17.2386 73.7082 17.3832 73.5637 17.5117ZM73.9491 16.6443C73.917 16.805 73.901 17.0138 73.66 17.0459C73.9331 16.5159 73.8688 15.9698 73.8206 15.4076C73.7564 14.8937 73.5476 14.4118 73.4031 13.9139C73.3549 13.7533 73.3227 13.6088 73.4031 13.4482C73.4031 13.6248 73.5315 13.7373 73.5958 13.8818C74.0616 14.7652 74.1579 15.6807 73.9491 16.6443ZM83.614 16.821C83.3249 16.821 83.0358 16.805 82.7628 16.805C82.6182 16.805 82.5058 16.7728 82.4576 16.6122C82.4415 16.4837 82.297 16.4998 82.2649 16.548C82.2006 16.7889 81.7348 16.7889 81.9115 17.1583C81.9276 17.2065 81.8633 17.2707 81.8312 17.335C81.3173 18.2184 79.7754 18.652 78.892 17.5117C78.1532 16.548 78.2335 14.9419 79.1169 14.0906C79.9842 13.2233 81.2048 13.3839 81.8633 14.4761C81.7991 14.4921 81.7509 14.5243 81.6867 14.5243C81.5903 14.5403 81.4939 14.5724 81.51 14.6688C81.51 14.7652 81.6064 14.7973 81.7027 14.7973C82.1364 14.8134 82.57 14.8134 83.0037 14.8294C83.341 14.8455 83.7104 14.7331 83.9513 15.1185C83.9674 15.1667 84.0798 15.0864 84.0798 15.0222C84.0637 14.8776 84.0637 14.717 84.0156 14.5724C83.7425 13.6088 83.2285 12.7896 82.3934 12.1954C81.3494 11.4405 80.193 11.2638 78.9723 11.6975C78.105 12.0026 77.4465 12.613 76.9807 13.416C76.3704 14.4921 76.2419 15.6325 76.5149 16.821C76.7558 17.9132 77.3341 18.7966 78.2495 19.439C79.0044 19.953 79.8557 20.1939 80.7872 20.0815C81.9115 19.9209 82.7788 19.3426 83.4213 18.4272C83.6622 18.0899 83.8228 17.7044 83.9674 17.3189C84.128 16.9013 84.1762 16.821 83.614 16.821ZM81.8955 12.2275L81.8794 12.2596L81.8633 12.2275H81.8955ZM82.7628 14.46C82.4897 14.5724 82.2649 14.5885 82.1364 14.3155C81.9758 13.9621 81.6706 13.7533 81.3654 13.5285C81.2851 13.4803 81.1727 13.4482 81.2048 13.3197C81.4457 13.3518 81.6385 13.4803 81.8152 13.6248C82.1364 13.8979 82.4415 14.1709 82.7628 14.46ZM81.0763 13.2715C81.1085 13.2715 81.1406 13.2875 81.1727 13.3197C81.1406 13.3197 81.1085 13.3357 81.0763 13.3357C81.0442 13.3357 81.0121 13.3036 80.98 13.3036C81.0121 13.2875 81.0442 13.2554 81.0763 13.2715ZM78.6993 19.3587C78.6832 19.3587 78.6511 19.3266 78.6511 19.3266C78.6511 19.2784 78.6993 19.2463 78.7314 19.2784C78.7635 19.2945 78.7796 19.3266 78.7956 19.3587C78.7635 19.3587 78.7314 19.3587 78.6993 19.3587ZM78.8117 19.3748C79.2935 19.3426 79.7111 19.5514 80.1287 19.7121C80.1608 19.7121 80.1608 19.7763 80.1769 19.8084C79.7432 19.8084 79.3417 19.7121 78.9723 19.5354C78.892 19.5033 78.8278 19.4551 78.8117 19.3748ZM80.2411 19.8084C80.2251 19.8084 80.2251 19.8084 80.209 19.8084C80.2251 19.7924 80.2572 19.7763 80.2733 19.7924C80.3215 19.8084 80.3054 19.8245 80.2411 19.8084ZM82.7788 18.7002C82.7788 18.6841 82.811 18.6841 82.7788 18.7002V18.7002ZM82.7628 18.7484C82.6343 18.8287 82.5058 18.909 82.3934 18.9893C82.4415 18.7644 82.4576 18.7484 82.7628 18.7484ZM82.3934 17.1583C82.3934 17.1583 82.4094 17.2226 82.3934 17.2547C82.3291 17.3671 82.2488 17.3992 82.1524 17.3029C82.1685 17.3029 82.1846 17.2868 82.1846 17.2707C82.2327 17.1904 82.2809 17.1262 82.3934 17.1583ZM82.1364 17.3189C82.1524 17.351 82.1685 17.3832 82.1685 17.4314C82.1685 17.4635 82.1524 17.4956 82.1364 17.5438C82.1364 17.4956 82.1364 17.4635 82.1364 17.4314C82.1364 17.3992 82.1364 17.351 82.1364 17.3189ZM82.1043 19.1338C82.0882 19.1178 82.1043 19.1017 82.1203 19.0857C82.1846 19.0054 82.2649 18.9732 82.3612 19.0054C82.297 19.0696 82.2488 19.1178 82.1846 19.166C82.1364 19.1981 82.1043 19.182 82.1043 19.1338ZM82.7788 18.7323C82.7788 18.7163 82.7788 18.7163 82.7788 18.7163C82.7949 18.7163 82.7949 18.7163 82.7949 18.7163C82.7949 18.7163 82.7949 18.7163 82.7788 18.7323ZM83.614 17.4795C83.5658 17.592 83.4534 17.608 83.3731 17.4956C83.3249 17.4474 83.2928 17.3992 83.2607 17.335C83.2125 17.2547 83.2125 17.1583 83.3089 17.1101C83.4213 17.0459 83.6301 17.0941 83.6622 17.1744C83.6783 17.1904 83.6783 17.2065 83.6943 17.2547C83.6622 17.3189 83.6461 17.3992 83.614 17.4795ZM94.2569 19.7924C94.2408 19.7602 94.1926 19.7442 94.1605 19.7281C93.759 19.5836 93.759 19.5836 93.7911 19.2142C93.8393 18.1862 93.9196 17.1744 93.9357 16.1464C93.9678 15.1185 93.8393 14.1067 93.4056 13.143C92.8756 11.9545 91.7353 11.4244 90.611 11.5369C90.0006 11.585 89.4064 11.7617 88.8764 12.0669C88.78 12.1151 88.6997 12.2114 88.5551 12.1151C88.5551 12.0026 88.5391 11.8741 88.5391 11.7457C88.5551 10.8783 88.5712 9.99498 88.5712 9.12767C88.5712 9.06342 88.5872 8.99917 88.5872 8.93493C88.5872 8.75826 88.6515 8.64583 88.8442 8.62977C88.8924 8.62977 88.9406 8.62977 88.9727 8.59764C89.0048 8.54946 89.053 8.46915 88.9727 8.43703C88.9085 8.38885 88.8121 8.37278 88.7318 8.37278C88.5712 8.34066 88.6033 8.13187 88.4748 8.09974C88.2981 8.06762 88.3463 8.30854 88.2178 8.34066C88.1375 8.35672 88.0572 8.37278 87.9609 8.37278C87.7039 8.37278 87.4469 8.37278 87.1739 8.37278C87.0132 8.37278 86.8205 8.38885 86.7402 8.18005C86.7241 8.16399 86.6438 8.14793 86.6278 8.18005C86.5314 8.29248 86.3547 8.40491 86.435 8.54946C86.5956 8.93493 86.5153 9.3204 86.5153 9.70587C86.5314 12.8539 86.5153 15.9858 86.5153 19.1338C86.5153 19.3266 86.5153 19.5193 86.5153 19.7121C86.5314 19.9048 86.5796 19.9369 86.7563 19.9369C87.0132 19.9209 87.2702 19.9209 87.5272 19.9048C87.8484 19.8727 88.1215 19.9369 88.3303 20.21C88.4266 20.3224 88.5712 20.3063 88.5872 20.1939C88.6033 19.9048 88.796 19.9048 88.9888 19.8887C89.0851 19.8887 89.2458 19.9048 89.2136 19.7442C89.1976 19.6317 89.0851 19.6478 89.0048 19.6317C88.8924 19.6317 88.78 19.6157 88.6676 19.5996C88.6515 19.5033 88.6194 19.423 88.6194 19.3426C88.5872 18.0899 88.5551 16.8531 88.5391 15.6164C88.5391 15.3755 88.5712 15.1346 88.6354 14.8937C88.7639 14.3958 89.053 13.9942 89.5027 13.7212C90.1291 13.3518 90.8519 13.4642 91.3177 14.0424C91.4622 14.203 91.5586 14.3958 91.6389 14.6046C91.7353 14.8776 91.7513 15.1506 91.7513 15.4398C91.7513 16.6283 91.7674 17.8008 91.7834 18.9732C91.7834 19.1981 91.7834 19.4069 91.8156 19.6317C91.8316 19.8405 91.8798 19.8887 92.1047 19.9048C92.7471 19.9209 93.4056 19.953 94.0641 19.969C94.1123 19.969 94.1926 19.9369 94.2408 19.9048C94.2569 19.8887 94.2729 19.8245 94.2569 19.7924ZM86.8687 12.5166C86.8526 12.5166 86.8366 12.5166 86.8205 12.5166C86.8044 11.3441 86.8044 10.1716 86.7884 8.99917C86.7884 8.93493 86.7884 8.87068 86.8044 8.80644C86.8205 8.75826 86.8366 8.67795 86.9329 8.71007C86.9651 8.71007 86.9972 8.75826 87.0132 8.79038C87.0132 8.96705 87.0293 9.12767 87.0132 9.30434C86.9811 10.0592 86.949 10.8141 86.9008 11.585C86.9008 11.8902 86.8848 12.1954 86.8687 12.5166ZM87.0775 15.0382C87.0293 15.0703 86.9811 15.0382 86.9811 14.974C86.9651 14.8615 86.949 14.7331 86.949 14.6046C86.949 14.5885 86.9972 14.5564 87.0293 14.5403C87.0454 14.5403 87.0614 14.5564 87.0775 14.5724C87.1417 14.6688 87.1417 14.7812 87.1417 14.8776C87.1417 14.8937 87.1417 14.9258 87.1417 14.9419C87.1257 14.974 87.1096 15.0222 87.0775 15.0382ZM87.1899 19.5996C87.1578 19.5996 87.1417 19.5675 87.1257 19.5354C87.1578 19.5193 87.1899 19.5033 87.2381 19.5033C87.2542 19.5033 87.2702 19.5514 87.2863 19.5675C87.2542 19.5836 87.222 19.5996 87.1899 19.5996ZM93.1326 13.159H93.1165C93.1165 13.159 93.1165 13.159 93.1165 13.143C92.8114 13.1109 92.7632 12.8057 92.5704 12.6451C92.4741 12.5648 92.4259 12.4363 92.442 12.2917C92.442 12.2917 92.442 12.2757 92.442 12.2596C92.6829 12.5487 92.9559 12.8218 93.1326 13.159ZM92.442 12.2436C92.442 12.2436 92.442 12.2436 92.4259 12.2436V12.2275C92.4259 12.2275 92.4259 12.2436 92.442 12.2436ZM92.4098 12.2436C92.3938 12.2436 92.3938 12.2114 92.4098 12.2436V12.2436ZM87.7521 17.4474C87.736 17.4153 87.7199 17.3992 87.7039 17.3671C87.7039 17.3189 87.7521 17.2868 87.7842 17.3189C87.8002 17.335 87.7842 17.3832 87.8002 17.4153C87.7842 17.4314 87.7681 17.4474 87.7521 17.4474ZM87.7039 8.83856C87.6396 8.80644 87.6718 8.71007 87.736 8.67795C87.8645 8.6137 88.0251 8.62977 88.1697 8.66189C88.266 8.67795 88.2981 8.77432 88.2981 8.87068C88.2981 9.20797 88.2981 9.56132 88.2981 9.89861C88.25 9.91467 88.2178 9.91467 88.1697 9.91467C88.1857 9.48101 88.0733 9.1116 87.7039 8.83856ZM87.9287 18.7323C87.8806 18.7644 87.8484 18.7484 87.8645 18.6841C87.8645 18.6199 87.8645 18.5556 87.8806 18.4914C87.8966 18.5556 87.9127 18.6199 87.9287 18.6841C87.9287 18.7002 87.9287 18.7323 87.9287 18.7323ZM87.993 19.6317C88.0572 18.9572 88.1215 18.379 88.1536 17.8008C88.1697 17.2386 88.1536 16.6604 88.1536 15.9377C88.4106 17.4314 88.3463 18.7805 87.993 19.6317ZM89.3261 13.2715C89.3421 13.3518 89.3421 13.4321 89.2618 13.4963C88.796 13.8497 88.5069 14.3155 88.3303 14.8937C88.1536 14.3315 88.2339 14.0103 88.6354 13.7212C88.8603 13.5606 89.1012 13.416 89.3261 13.2715C89.5027 13.2554 89.6794 13.159 89.8561 13.2715C89.6794 13.3036 89.5027 13.4 89.3261 13.2715ZM91.9119 14.4118C91.6871 14.1388 91.5746 13.7854 91.2695 13.5927C91.1571 13.5285 91.0607 13.4482 90.9322 13.4C90.8358 13.3518 90.7395 13.3197 90.627 13.2875C90.4985 13.2554 90.3701 13.2394 90.2416 13.2233C90.1291 13.2233 90.0006 13.2554 89.8722 13.2715C89.8882 13.2233 89.8882 13.1269 89.9203 13.1269C90.3058 13.0145 90.6913 12.9021 91.1249 12.9342C91.3016 12.9503 91.398 12.9824 91.414 13.1751C91.4301 13.3036 91.5586 13.3197 91.655 13.3518C91.8959 13.416 92.0244 13.5606 92.0083 13.8176C91.9922 14.0103 92.0725 14.203 91.9119 14.4118ZM93.3575 19.6317C93.1647 19.6478 92.972 19.6639 92.9238 19.6639C91.9441 19.6478 92.0565 19.6799 92.0404 18.909C92.0404 18.7805 92.0404 18.6359 92.0565 18.5075C92.0886 18.3468 92.2332 18.1541 92.3135 18.1702C92.4259 18.2184 92.442 18.3468 92.4901 18.4272C92.5865 18.6038 92.6829 18.7644 92.7953 18.9251C92.8435 19.0054 92.9238 19.0535 93.0041 19.0375C93.1005 19.0214 93.1968 18.9411 93.245 19.0214C93.3414 19.166 93.4699 19.2945 93.4538 19.4872C93.4538 19.5514 93.4378 19.6157 93.3575 19.6317ZM93.5181 17.2226C93.4378 16.5159 93.4217 15.1828 93.502 14.5564C93.7269 15.2791 93.7429 16.5159 93.5181 17.2226ZM103.989 19.6639C103.748 19.5675 103.748 19.3748 103.748 19.166C103.748 18.7966 103.748 18.4272 103.748 18.0577C103.732 16.2268 103.716 14.3958 103.7 12.5648C103.7 12.4202 103.7 12.2596 103.684 12.1151C103.668 11.842 103.62 11.7938 103.379 11.7938C102.865 11.7938 102.335 11.7938 101.805 11.8099C101.709 11.8099 101.596 11.842 101.5 11.8741C101.436 11.8902 101.404 11.9866 101.468 12.0187C101.725 12.1311 101.709 12.356 101.709 12.5808C101.693 13.8176 101.661 15.0543 101.644 16.291C101.644 16.5159 101.644 16.7407 101.628 16.9495C101.58 17.608 101.211 18.0256 100.568 18.1862C99.7171 18.395 98.5446 17.9774 98.6089 16.6765C98.6892 15.2791 98.641 13.8818 98.6249 12.4845C98.6249 12.2275 98.7213 12.0829 98.9783 12.0508C99.0425 12.0508 99.1068 12.0026 99.0907 11.9384C99.0746 11.9063 99.0265 11.8581 98.9943 11.8581C98.8177 11.826 98.641 11.7617 98.4804 11.7778C97.9985 11.842 97.5167 11.8099 97.0349 11.8099C96.8742 11.826 96.6654 11.7617 96.553 11.9223C96.4727 12.0669 96.6173 12.2114 96.6012 12.356C96.5851 12.4684 96.6012 12.5808 96.6012 12.6933C96.6012 14.1227 96.6012 15.5682 96.6173 16.9977C96.6173 17.3992 96.6494 17.7847 96.7458 18.1702C97.0027 19.1338 97.6612 19.7442 98.657 19.8727C99.0265 19.9209 99.3959 19.969 99.7653 19.969C100.456 19.953 101.179 19.953 101.725 19.3587C101.901 19.6478 101.805 19.8727 101.869 20.0815C101.885 20.1136 101.917 20.1618 101.95 20.1778C101.982 20.1778 102.03 20.1457 102.062 20.1296C102.142 20.0654 102.126 19.8887 102.255 19.8887C102.688 19.9048 103.122 19.7602 103.524 19.9851C103.636 20.0493 103.957 19.8887 104.005 19.7602C104.022 19.7442 104.005 19.6639 103.989 19.6639ZM96.9867 13.3357C96.9706 13.159 96.9706 13.1109 96.9546 13.0466C96.9546 12.9824 96.9706 12.9181 96.9706 12.7736C96.9867 12.9021 97.0027 12.9663 97.0027 13.0306C97.0027 13.0948 97.0027 13.159 96.9867 13.3357ZM98.7213 18.0738V18.0899C98.7374 18.0899 98.7374 18.0899 98.7374 18.0899V18.0738C98.7534 18.0577 98.7534 18.0899 98.7534 18.0899C98.8498 18.0899 98.8658 18.1541 98.8337 18.2505C98.7855 18.1862 98.7534 18.138 98.7052 18.0738C98.7052 18.0738 98.7052 18.0738 98.7213 18.0738ZM98.2234 12.1151C98.3037 12.1151 98.3519 12.1632 98.3519 12.2275C98.3519 12.2917 98.3358 12.356 98.3198 12.4202C98.2073 12.3881 98.1591 12.3239 98.127 12.2436C98.111 12.1793 98.1591 12.1151 98.2234 12.1151ZM98.2716 13.673C98.2716 13.7373 98.2876 13.7854 98.2876 13.8336C98.2716 13.8657 98.2555 13.8979 98.2234 13.93C98.2234 13.9461 98.2073 13.9621 98.1913 13.9621C98.1591 13.9461 98.1431 13.9139 98.1913 13.8818C98.2234 13.8657 98.2555 13.8497 98.2876 13.8336C98.2876 13.7854 98.2716 13.7373 98.2716 13.673ZM98.0146 14.9258C98.1913 15.0382 98.3198 15.1185 98.2716 15.3594C98.2395 15.6646 98.2395 15.9537 98.2073 16.3874C97.9182 15.8413 97.9825 15.3916 98.0146 14.9258ZM97.4685 14.2833C97.4525 14.2673 97.4525 14.2673 97.4525 14.2673C97.4685 14.2191 97.4846 14.2352 97.4685 14.2833ZM97.4685 14.9579C97.4525 14.974 97.4364 14.99 97.4364 14.99C97.4203 14.99 97.3882 14.99 97.3882 14.974C97.3721 14.9258 97.3882 14.8937 97.4364 14.9097C97.4525 14.9258 97.4525 14.9419 97.4685 14.9579ZM97.4364 14.3315C97.4203 14.3315 97.4043 14.3155 97.4043 14.3155C97.4203 14.3155 97.4364 14.2994 97.4525 14.2994C97.4364 14.3155 97.4364 14.3155 97.4364 14.3315ZM97.3721 12.1311L97.4043 12.1954L97.3561 12.1793L97.3721 12.1311ZM97.5488 16.3071C97.5328 16.3392 97.4846 16.3713 97.4525 16.3713C97.4203 16.3713 97.3721 16.3392 97.3561 16.3071C97.324 16.1946 97.3561 16.0983 97.4203 16.0019C97.4364 15.9698 97.4846 15.9537 97.5328 15.9377C97.5328 15.9377 97.5488 15.9698 97.5649 15.9858C97.5649 16.034 97.5809 16.0822 97.5809 16.1304C97.5809 16.1786 97.5649 16.2428 97.5488 16.3071ZM97.6131 13.0948C97.597 13.0627 97.5488 13.0627 97.5328 13.0306C97.5167 12.9984 97.5328 12.9342 97.5488 12.9181C97.6131 12.8699 97.6612 12.9181 97.6612 12.9824C97.6612 13.0145 97.6291 13.0627 97.6131 13.0948ZM97.7255 19.0375C97.7094 19.0375 97.7416 19.0054 97.7255 19.0375V19.0375ZM98.4322 19.5354C98.2234 19.5033 98.0146 19.4551 97.854 19.3266C97.7576 19.2463 97.7094 19.166 97.7737 19.0375C97.7576 19.0535 97.7576 19.0535 97.7576 19.0535C97.7576 19.0375 97.7576 19.0375 97.7576 19.0375C97.9343 19.1338 98.111 19.2302 98.2876 19.3266C98.3679 19.3748 98.4483 19.423 98.4322 19.5354ZM98.6249 19.5836C98.5767 19.5836 98.5286 19.5675 98.4643 19.5514C98.5125 19.5354 98.5607 19.5193 98.6089 19.5033C98.641 19.5033 98.6892 19.5354 98.7213 19.5354C98.6892 19.5514 98.657 19.5836 98.6249 19.5836ZM97.9504 18.1059C98.1913 18.138 98.2234 18.395 98.4001 18.5075C98.5767 18.6038 98.7695 18.7002 98.914 18.909C98.384 18.8287 98.0307 18.6199 97.9504 18.1059ZM98.8337 18.2505C98.9622 18.1702 99.1068 18.2665 99.2353 18.2344C99.1068 18.2826 98.9783 18.3308 98.8337 18.2505ZM99.2353 18.2344C99.2674 18.395 99.5083 18.3629 99.5404 18.5396C99.2513 18.5075 99.2513 18.5075 99.2353 18.2344ZM101.789 18.7002C101.677 19.0214 101.468 19.2784 101.179 19.439C100.954 19.5836 100.681 19.696 100.36 19.5996C100.713 19.1338 101.211 18.8929 101.644 18.6038C101.677 18.5878 101.741 18.5878 101.757 18.6038C101.789 18.6199 101.805 18.6841 101.789 18.7002ZM101.773 18.0096C101.757 18.0256 101.693 17.9935 101.677 17.9614C101.596 17.7686 101.709 17.6401 101.837 17.5277C101.853 17.5598 101.885 17.5759 101.885 17.592C101.885 17.7365 101.982 17.9132 101.773 18.0096ZM101.982 15.9698C101.966 15.9698 101.966 15.9698 101.95 15.9698C101.95 15.8413 101.95 15.7128 101.95 15.5843C101.966 15.5843 101.966 15.5843 101.982 15.5843C101.982 15.7128 101.982 15.8413 101.982 15.9698ZM102.528 12.099C102.592 12.0669 102.656 12.1151 102.688 12.1632C102.833 12.4684 102.785 12.7896 102.833 13.2394C102.608 12.9824 102.656 12.8057 102.592 12.6451C102.528 12.5166 102.464 12.3881 102.431 12.2436C102.415 12.2114 102.48 12.1311 102.528 12.099ZM102.801 17.1744C102.801 17.2065 102.737 17.2707 102.737 17.2547C102.672 17.2226 102.672 17.1744 102.688 17.1101C102.688 17.078 102.721 17.0459 102.753 16.9977C102.769 17.0619 102.785 17.1101 102.801 17.1744ZM102.094 13.0627C102.078 13.0466 102.078 13.0306 102.078 13.0145C102.078 12.9824 102.078 12.9663 102.094 12.9503C102.094 12.9824 102.094 13.0306 102.094 13.0627ZM102.271 19.5996C102.191 19.5836 102.126 19.5354 102.11 19.439C102.094 19.3587 102.11 19.2623 102.191 19.2302C102.255 19.182 102.351 19.166 102.415 19.2463C102.48 19.3105 102.544 19.4069 102.608 19.4872C102.496 19.5193 102.415 19.6317 102.271 19.5996ZM102.608 19.4872C102.624 19.4711 102.624 19.439 102.624 19.439C102.56 19.2623 102.544 19.0696 102.737 19.0054C102.897 18.9411 103.01 19.0696 103.106 19.1981C103.17 19.3105 103.315 19.3587 103.347 19.4872C102.978 19.6478 102.978 19.6478 102.608 19.4872ZM103.363 12.2596C103.315 12.2114 103.299 12.1632 103.267 12.1151C103.283 12.099 103.299 12.0829 103.315 12.0829C103.379 12.0829 103.411 12.1311 103.411 12.1954C103.411 12.2436 103.379 12.2757 103.363 12.2596ZM111.448 11.8902C111.352 11.842 111.256 11.7938 111.159 11.7778C110.436 11.6493 109.762 11.7617 109.136 12.1151C108.991 12.1954 108.879 12.356 108.686 12.3399C108.557 12.1793 108.702 12.0348 108.67 11.8902C108.622 11.6814 108.525 11.6332 108.284 11.7296C108.22 11.7457 108.156 11.7778 108.092 11.7778C107.819 11.7778 107.529 11.7778 107.24 11.7778C107.096 11.7778 107.015 11.6814 106.967 11.5529C106.919 11.4566 106.839 11.4244 106.775 11.5369C106.678 11.7135 106.566 11.7938 106.357 11.7617C106.325 11.7617 106.277 11.7938 106.245 11.8099C106.228 11.826 106.196 11.842 106.212 11.8581C106.212 11.9063 106.212 11.9545 106.245 11.9705C106.309 12.0026 106.373 12.0187 106.437 12.0348C106.71 12.099 106.71 12.099 106.726 12.356C106.726 12.4845 106.726 12.613 106.726 12.7575C106.742 14.7331 106.758 16.7247 106.775 18.7002C106.775 18.9732 106.823 19.2623 106.71 19.5354C106.678 19.5996 106.71 19.7121 106.742 19.7924C106.791 19.953 106.871 19.969 107.048 19.8727C107.112 19.8405 107.16 19.8084 107.224 19.7763C107.256 19.7763 107.305 19.7763 107.353 19.7763C107.722 19.8566 108.14 19.6478 108.461 19.9851C108.477 20.0012 108.573 20.0012 108.573 19.9851C108.734 19.7442 109.023 19.8566 109.216 19.7281C109.232 19.7121 109.264 19.696 109.264 19.6799C109.248 19.6478 109.216 19.5836 109.2 19.5836C109.087 19.5514 108.975 19.5354 108.879 19.5354C108.718 19.5193 108.638 19.439 108.638 19.2945C108.622 19.2302 108.622 19.166 108.622 19.1017C108.606 17.9132 108.638 16.7407 108.75 15.5682C108.846 14.5724 109.457 13.9942 110.356 13.7533C110.645 13.673 110.677 13.7051 110.79 14.0264C110.806 14.0585 110.838 14.0906 110.854 14.1227C110.87 14.1388 110.902 14.1388 110.918 14.1548C110.967 14.1709 111.015 14.1548 111.015 14.0906C111.031 13.9621 111.047 13.8336 111.047 13.7051C111.063 13.2554 111.063 12.7896 111.063 12.3399C111.063 12.1632 111.127 12.0348 111.336 12.0829C111.368 12.0829 111.416 12.0669 111.464 12.0508C111.48 12.0508 111.497 12.0187 111.497 12.0026C111.497 11.9705 111.48 11.9063 111.448 11.8902ZM107.208 19.4872C107.064 19.4711 107.048 19.3748 107.08 19.2623C107.08 19.2142 107.096 19.1338 107.192 19.166C107.305 19.1981 107.353 19.2784 107.337 19.3908C107.321 19.4551 107.272 19.4872 107.208 19.4872ZM107.417 14.7973C107.401 14.8294 107.337 14.8294 107.305 14.8455C107.208 14.8134 107.192 14.5724 107.272 14.5243C107.288 14.5082 107.353 14.5243 107.385 14.5564C107.449 14.6206 107.449 14.717 107.417 14.7973ZM107.465 12.1632C107.449 12.2114 107.417 12.2275 107.369 12.2114C107.353 12.1793 107.337 12.1472 107.321 12.1151C107.353 12.099 107.385 12.0669 107.417 12.0829C107.465 12.0829 107.481 12.1151 107.465 12.1632ZM107.835 15.1346C107.819 15.1185 107.786 15.0864 107.77 15.0543C107.77 15.0222 107.802 14.99 107.802 14.9579C107.835 14.99 107.867 15.0222 107.883 15.0543C107.899 15.1025 107.883 15.1346 107.835 15.1346ZM108.027 16.9174L108.059 16.9495L108.027 16.9174ZM108.059 16.9335C107.995 16.8531 107.963 16.7728 107.979 16.6604C107.995 16.6122 108.027 16.5801 108.075 16.6122C108.075 16.6122 108.092 16.6283 108.092 16.6443C108.092 16.7407 108.075 16.8371 108.059 16.9335ZM108.268 12.5487L108.3 12.5166C108.188 12.3881 108.059 12.2596 107.931 12.1311C108.268 12.0508 108.316 12.0669 108.332 12.2757C108.332 12.356 108.316 12.4363 108.3 12.5327L108.268 12.5487ZM108.3 14.7491C108.3 14.717 108.3 14.6688 108.3 14.6367C108.3 14.6206 108.316 14.6206 108.332 14.6206C108.332 14.6527 108.349 14.7009 108.349 14.7331C108.349 14.7331 108.316 14.7491 108.3 14.7491ZM108.606 14.7652C108.525 14.5082 108.525 14.5082 108.686 14.3315L108.67 14.2833L108.702 14.3155C108.67 14.46 108.654 14.6046 108.606 14.7652ZM109.216 13.0306C109.184 13.0466 109.136 13.0145 109.103 12.9984C109.087 12.9984 109.087 12.9663 109.087 12.9503C109.264 12.7254 109.489 12.629 109.778 12.6611C109.601 12.7896 109.409 12.9181 109.216 13.0306ZM110.597 12.1793C110.565 12.1472 110.517 12.099 110.533 12.0829C110.565 12.0187 110.629 12.0026 110.693 12.0348C110.726 12.0508 110.726 12.099 110.742 12.1472C110.71 12.2114 110.645 12.2114 110.597 12.1793ZM121.037 14.7973C120.459 12.629 118.371 11.3281 116.299 11.7778C114.806 12.1151 113.81 13.0627 113.28 14.4279C112.942 15.3113 112.942 16.2589 113.215 17.1904C113.713 18.9251 115.271 20.1457 117.006 20.1778C118.644 20.2421 120.17 19.2142 120.812 17.6883C120.861 17.5759 120.893 17.4795 120.909 17.3671C120.941 17.2547 120.877 17.1583 120.748 17.1422C120.652 17.1262 120.572 17.1262 120.491 17.1262C120.186 17.1262 119.881 17.1262 119.576 17.1262C119.447 17.1262 119.367 17.0941 119.335 16.9495C119.319 16.805 119.222 16.7889 119.126 16.8853C119.03 16.9656 118.981 17.1101 118.837 17.1262C118.612 17.1583 118.323 17.1422 118.676 17.4635C118.725 17.5117 118.66 17.5759 118.612 17.6241C118.227 17.9614 117.761 18.138 117.247 18.1541C116.588 18.1862 115.721 17.8811 115.352 17.0138C115.175 16.6122 115.255 16.4998 115.673 16.4998C117.215 16.4837 118.757 16.4837 120.315 16.4837C120.491 16.4837 120.652 16.4837 120.829 16.4677C121.069 16.4516 121.15 16.3874 121.166 16.1625C121.198 15.6967 121.15 15.247 121.037 14.7973ZM120.186 17.4956C120.202 17.3992 120.299 17.3992 120.379 17.3992C120.507 17.3992 120.572 17.4314 120.572 17.5117C120.555 17.608 120.523 17.6883 120.443 17.7205C120.331 17.7526 120.154 17.592 120.186 17.4956ZM120.154 13.7533C120.122 13.7051 120.17 13.6088 120.202 13.5285C120.363 13.8818 120.539 14.2352 120.7 14.5885C120.684 14.6206 120.684 14.6527 120.684 14.6849C120.684 14.6527 120.684 14.6206 120.684 14.5724C120.395 14.3636 120.282 14.0424 120.154 13.7533ZM120.186 13.5285C120.106 13.6088 120.009 13.5766 119.913 13.5606C120.009 13.5606 120.106 13.5445 120.186 13.5285ZM119.945 13.4963C119.929 13.5124 119.913 13.5445 119.913 13.5606C119.913 13.5606 119.913 13.5606 119.897 13.5606C119.913 13.5445 119.929 13.5124 119.945 13.4963ZM116.749 12.099C116.781 12.099 116.813 12.1632 116.829 12.1954C116.829 12.2275 116.813 12.2757 116.781 12.2917C116.508 12.4684 116.235 12.4684 115.898 12.372C116.155 12.0829 116.444 12.0829 116.749 12.099ZM115.625 13.4L115.641 13.3839L115.625 13.416C115.753 13.2715 115.882 13.159 116.107 13.1109C116.717 12.9824 117.343 12.9663 117.97 12.9824C118.275 12.9984 118.58 13.0466 118.692 13.416C118.725 13.4963 118.853 13.5445 118.933 13.6088C119.11 13.7694 119.238 13.93 119.238 14.1709C119.11 14.2673 119.094 14.1388 119.046 14.0906C118.917 13.9461 118.789 13.7854 118.644 13.673C117.986 13.0948 117.231 13.0466 116.444 13.2875C115.833 13.4803 115.368 13.8497 115.127 14.46C115.063 14.6206 114.998 14.7812 114.934 14.9419C114.886 15.0222 114.806 15.0543 114.725 15.0382C114.597 14.99 114.549 14.8937 114.565 14.7812C114.581 14.7009 114.629 14.6206 114.677 14.5564C114.934 14.2673 115.191 13.9782 115.448 13.673C115.512 13.5927 115.56 13.4963 115.625 13.4ZM118.837 14.8937C118.291 14.8937 117.745 14.8937 117.199 14.8937C117.199 14.9097 117.199 14.9258 117.199 14.9258C116.637 14.9258 116.074 14.9258 115.512 14.9258C115.303 14.9258 115.239 14.8294 115.336 14.6367C115.721 13.8979 116.315 13.4642 117.15 13.4482C118.002 13.416 118.612 13.8176 119.014 14.5403C119.126 14.7491 119.062 14.8937 118.837 14.8937ZM114.131 14.3636C114.051 14.2833 114.083 14.187 114.115 14.1227C114.308 13.6409 114.597 13.2072 114.982 12.8539C115.03 12.8057 115.095 12.7736 115.143 12.8057C115.239 12.8699 115.175 12.9663 115.143 13.0306C115.143 13.0466 115.127 13.0627 115.111 13.0627C115.207 13.1269 115.287 13.1912 115.223 13.3197C115.191 13.3678 115.143 13.4321 115.095 13.4642C114.806 13.7051 114.533 13.9782 114.292 14.2833C114.259 14.3315 114.179 14.3476 114.131 14.3636ZM114.211 18.4593V18.4914C114.211 18.4914 114.211 18.4914 114.195 18.4914L114.211 18.4593ZM114.404 18.5878C114.452 18.6038 114.5 18.6359 114.484 18.7163C114.404 18.7002 114.372 18.652 114.404 18.5878ZM119.672 18.909C119.656 18.909 119.656 18.909 119.656 18.909L119.64 18.8929L119.672 18.909ZM119.656 18.9251C119.56 18.9572 119.447 18.9732 119.351 18.9572C119.447 18.8769 119.544 18.8447 119.656 18.9251ZM119.255 17.4635C119.335 17.5117 119.271 17.5598 119.222 17.592C119.19 17.6241 119.142 17.6401 119.094 17.6562C119.094 17.608 119.094 17.5598 119.11 17.5117C119.142 17.4474 119.206 17.4153 119.255 17.4635ZM119.078 17.6723C119.046 17.7526 118.998 17.7847 118.933 17.7686C118.965 17.7205 119.014 17.6723 119.078 17.6723ZM118.917 17.7847C118.933 17.865 118.901 17.9132 118.821 17.9293C118.789 17.8489 118.853 17.8168 118.917 17.7847ZM118.596 17.9935C118.66 17.9453 118.725 17.9132 118.805 17.9293C118.821 18.0256 118.773 18.0899 118.708 18.138C118.532 18.2987 118.307 18.3468 118.323 18.2505C118.355 18.1059 118.484 18.0577 118.596 17.9935ZM115.689 17.9293C115.721 17.9774 115.721 18.0096 115.673 18.0096C115.641 18.0096 115.593 18.0096 115.56 17.9935C115.432 17.9132 115.432 17.7847 115.448 17.6562C115.496 17.7686 115.625 17.8329 115.689 17.9293ZM115.464 17.608C115.48 17.592 115.48 17.608 115.464 17.608V17.608ZM115.4 17.608C115.4 17.592 115.4 17.5759 115.4 17.608V17.608ZM116.942 19.5193C117.263 19.5836 117.584 19.5836 117.905 19.6157C117.986 19.6317 118.082 19.5996 118.13 19.6799C118.05 19.7924 117.921 19.8245 117.793 19.8405C117.215 19.9369 116.637 19.8566 116.058 19.7442C115.496 19.6478 115.03 19.3266 114.613 18.9411C114.549 18.8769 114.484 18.8126 114.5 18.7163C114.629 18.6841 114.741 18.7644 114.854 18.8126C115.528 19.1017 116.219 19.3587 116.942 19.5193ZM115.159 18.2826C115.143 18.2665 115.143 18.2344 115.159 18.2826V18.2826ZM115.223 18.2987C115.287 18.2826 115.239 18.3147 115.223 18.2987V18.2987ZM120.829 16.0983C120.829 16.1143 120.812 16.1464 120.796 16.1464C120.668 16.1625 120.539 16.1786 120.411 16.1786C119.56 16.1786 118.725 16.1786 117.873 16.1786C117.873 16.1946 117.873 16.2107 117.873 16.2268C116.942 16.2268 115.994 16.2268 115.063 16.2268C114.918 16.2268 114.806 16.2268 114.725 16.0983C114.693 16.0661 114.693 16.018 114.677 15.9858C114.661 15.8895 114.757 15.8734 114.806 15.8734C115.175 15.8734 115.544 15.8895 115.914 15.9055C116.588 15.9377 117.247 15.9377 117.921 15.8413C118.484 15.761 119.046 15.761 119.624 15.7449C119.688 15.7289 119.785 15.7289 119.801 15.761C120.009 16.1786 120.363 15.9377 120.668 15.9858C120.7 15.9858 120.748 15.9858 120.796 16.0019C120.845 16.018 120.861 16.0501 120.829 16.0983ZM115.095 13.0787C115.111 13.0787 115.111 13.0787 115.111 13.0627L115.095 13.0787Z" fill="white"/>
</svg>
