<svg width="293" height="38" viewBox="0 0 293 38" fill="none" xmlns="http://www.w3.org/2000/svg">
<rect x="56" y="0.5" width="5" height="37" fill="#3A7ED1" fill-opacity="0.24"/>
<rect x="63" y="0.5" width="3" height="37" fill="#3A7ED1" fill-opacity="0.24"/>
<rect width="5" height="37" transform="matrix(-1 0 0 1 237 0.5)" fill="#3A7ED1" fill-opacity="0.24"/>
<rect width="3" height="37" transform="matrix(-1 0 0 1 230 0.5)" fill="#3A7ED1" fill-opacity="0.24"/>
<path d="M1 18L18 1H54V36.5H1V18Z" fill="#000A16" fill-opacity="0.53"/>
<path d="M292 20.5L275.5 37H239V1H292V20.5Z" fill="#000A16" fill-opacity="0.53"/>
<path d="M293 3C293 1.34314 291.657 0 290 0H19.1802C18.3853 0 17.6228 0.315508 17.0604 0.877231L0.88013 17.0354C0.316634 17.5981 0 18.3618 0 19.1581V34.463C0 36.1176 1.33955 37.4598 2.99409 37.463L274.475 37.9975C275.275 37.9991 276.043 37.6806 276.608 37.1129L292.127 21.5062C292.686 20.9441 293 20.1836 293 19.3909V3Z" fill="#2E99DA" fill-opacity="0.2"/>
<path d="M290 0.5H19.1802C18.5178 0.5 17.8824 0.762925 17.4137 1.23103L1.23343 17.3892C0.763855 17.8581 0.5 18.4945 0.5 19.1581V34.463C0.5 35.8418 1.6163 36.9603 2.99509 36.963L274.476 37.4975C275.143 37.4989 275.783 37.2334 276.253 36.7603L291.773 21.1537C292.239 20.6852 292.5 20.0515 292.5 19.3909V3C292.5 1.61928 291.381 0.5 290 0.5Z" stroke="white" stroke-opacity="0.5"/>
<path d="M108.028 18.68C107.764 18.46 107.434 18.306 107.192 17.976C107.28 17.888 107.346 17.8 107.434 17.734C107.566 17.646 107.698 17.558 107.808 17.448C108.864 16.48 109.304 15.292 109.018 13.862C108.644 11.86 106.862 10.386 104.86 10.386C103.122 10.364 101.406 10.386 99.6679 10.386C98.8979 10.386 98.1059 10.408 97.3359 10.43C97.1819 10.43 97.0499 10.452 96.8959 10.496C96.8739 10.518 96.8519 10.584 96.8299 10.65C96.8299 10.65 96.8519 10.694 96.8739 10.716C96.9179 10.738 96.9839 10.76 97.0279 10.782C97.2259 10.826 97.4679 10.716 97.6219 10.892C97.7539 11.068 97.7099 11.31 97.7099 11.508C97.7099 11.53 97.7099 11.574 97.7099 11.596C97.7539 15.776 97.7979 19.934 97.8419 24.092C97.8419 24.334 97.8639 24.576 97.8419 24.818C97.8419 25.126 97.7759 25.17 97.4679 25.192C97.2479 25.214 97.0499 25.214 96.8299 25.236C96.7639 25.236 96.6759 25.28 96.6539 25.39C96.6099 25.522 96.7199 25.544 96.8079 25.544C96.9399 25.566 97.0939 25.566 97.2479 25.566C97.5119 25.566 97.7979 25.522 97.9519 25.83C97.9739 25.896 98.1279 25.918 98.1719 25.808C98.3259 25.478 98.6119 25.566 98.8759 25.566C100.152 25.522 101.428 25.522 102.726 25.478C103.584 25.456 104.464 25.456 105.322 25.368C106.444 25.236 107.456 24.774 108.27 23.96C108.864 23.344 109.282 22.618 109.348 21.716C109.458 20.462 108.974 19.472 108.028 18.68ZM108.688 14.456C108.688 15.644 108.49 16.172 107.698 16.854C108.182 16.04 108.358 15.292 108.688 14.456ZM107.368 14.742C107.39 14.632 107.346 14.39 107.588 14.456C107.742 14.5 107.72 14.72 107.72 14.852C107.72 15.116 107.544 15.292 107.39 15.622C107.236 15.226 107.346 14.984 107.368 14.742ZM98.4799 10.826C98.5459 10.804 98.6559 10.826 98.7219 10.87C98.8099 10.936 98.7879 11.024 98.7219 11.09C98.6559 11.156 98.5899 11.2 98.5239 11.266C98.3259 11.442 98.3039 11.2 98.1939 11.134H98.2159C98.3039 11.024 98.3699 10.914 98.4799 10.826ZM98.1279 14.28C98.1279 13.73 98.1279 13.158 98.1279 12.586C98.1279 12.542 98.1939 12.476 98.2379 12.454C98.2819 12.41 98.3479 12.454 98.3479 12.542C98.4799 13.026 98.4579 13.554 98.6559 14.016C98.6999 14.148 98.5899 14.258 98.2379 14.522C98.1939 14.456 98.1279 14.368 98.1279 14.28ZM98.2159 15.556C98.3919 15.688 98.3479 15.798 98.3479 15.908C98.3479 15.996 98.3259 16.084 98.3039 16.172C98.1499 15.974 98.2379 15.776 98.2159 15.556ZM98.3259 16.81C98.4139 17.492 98.4139 17.976 98.2819 18.438C98.2159 17.954 98.1059 17.47 98.3259 16.81ZM99.2939 25.082C98.9639 24.994 98.5899 25.346 98.3479 25.104C98.0619 24.84 98.2159 24.422 98.2159 24.07C98.1939 22.706 98.1939 21.364 98.1939 20C98.1939 19.758 98.1939 19.516 98.1939 19.274C98.2379 19.274 98.3039 19.252 98.3479 19.252C98.3699 19.538 98.4139 19.846 98.3919 20.132C98.2819 21.188 98.4139 22.244 98.3919 23.3C98.3699 23.96 98.6559 24.532 99.2939 24.818C99.3599 24.862 99.4479 24.906 99.4259 25.016C99.4039 25.082 99.3599 25.104 99.2939 25.082ZM106.334 14.236C106.356 14.236 106.378 14.192 106.4 14.192C106.422 14.214 106.444 14.214 106.466 14.236C106.576 14.39 106.62 14.544 106.598 14.742C106.576 14.764 106.576 14.786 106.554 14.808C106.532 14.808 106.488 14.808 106.488 14.786C106.356 14.698 106.268 14.39 106.334 14.236ZM106.048 19.582C105.96 19.45 105.96 19.34 106.026 19.23C105.784 19.296 105.542 19.34 105.344 19.142C105.3 19.098 105.278 19.032 105.3 19.01C105.322 18.966 105.388 18.944 105.454 18.944C105.674 18.966 105.762 19.318 106.026 19.208C106.026 19.34 106.114 19.45 106.048 19.582ZM105.652 12.916C105.696 12.916 105.718 12.982 105.74 13.026C105.74 13.048 105.696 13.092 105.696 13.092C105.652 13.07 105.608 13.048 105.564 13.004C105.564 12.938 105.586 12.894 105.652 12.916ZM104.53 11.376C104.618 11.376 104.64 11.398 104.574 11.442C104.574 11.464 104.53 11.442 104.508 11.442C104.486 11.442 104.486 11.42 104.464 11.398C104.486 11.376 104.508 11.376 104.53 11.376ZM104.948 12.344C104.97 12.366 104.992 12.388 104.992 12.41C105.014 12.498 104.992 12.542 104.948 12.564C104.904 12.564 104.882 12.586 104.86 12.586C104.002 12.608 103.166 12.608 102.286 12.498C102.418 12.256 102.572 12.366 102.704 12.344C103.276 12.3 103.87 12.256 104.464 12.212C104.64 12.212 104.816 12.19 104.948 12.344ZM101.89 10.848C102.132 10.738 102.374 10.76 102.594 10.804C102.66 10.826 102.704 10.936 102.77 11.002C102.726 11.09 102.704 11.2 102.638 11.222C102.418 11.31 101.956 11.156 101.846 10.98C101.824 10.958 101.868 10.848 101.89 10.848ZM100.394 25.104C100.284 25.104 100.152 25.082 100.13 24.95C100.108 24.84 100.218 24.84 100.284 24.818C100.394 24.818 100.526 24.796 100.57 24.95C100.548 25.038 100.482 25.104 100.394 25.104ZM100.284 20.396C100.24 19.978 100.13 19.582 100.262 18.966C100.438 19.582 100.306 20 100.284 20.396ZM100.284 21.694C100.284 21.958 100.284 22.222 100.284 22.486C100.152 22.222 100.262 21.958 100.284 21.694ZM100.394 12.938C100.35 13.136 100.372 13.356 100.372 13.576C100.35 14.544 100.35 15.512 100.328 16.48C100.064 16.502 100.042 16.304 100.064 16.194C100.262 15.27 100.108 14.324 100.086 13.378C100.086 13.202 100.042 13.026 100.086 12.85C100.108 12.63 100.064 12.388 100.218 12.256C100.46 12.036 100.79 11.992 101.076 12.058C101.318 12.102 101.538 12.234 101.802 12.322C101.516 12.498 101.296 12.344 101.054 12.344C100.68 12.388 100.438 12.542 100.394 12.938ZM100.746 13.29C100.746 13.026 100.856 12.938 101.142 12.938C101.626 12.916 102.11 12.938 102.572 12.938V12.96C102.99 12.96 103.408 12.982 103.826 12.96C104.178 12.96 104.486 13.026 104.794 13.136C105.74 13.466 106.026 14.148 106.004 15.138C106.004 15.424 105.872 15.666 105.63 15.82C105.146 16.15 104.684 16.436 104.09 16.524C103.078 16.634 102.066 16.634 101.054 16.634C100.856 16.634 100.724 16.524 100.724 16.304C100.724 15.292 100.724 14.302 100.746 13.29ZM104.816 18.922C104.728 18.922 104.64 18.944 104.574 18.922C104.486 18.9 104.486 18.834 104.552 18.812C104.618 18.79 104.684 18.79 104.728 18.812C104.75 18.812 104.772 18.878 104.816 18.922ZM102.792 18.702C102.748 18.724 102.704 18.746 102.638 18.768C102.594 18.746 102.55 18.724 102.506 18.68C102.55 18.658 102.594 18.614 102.66 18.614C102.704 18.614 102.748 18.658 102.792 18.702ZM101.098 25.038H101.142C101.12 25.06 101.12 25.06 101.12 25.06L101.098 25.038ZM101.45 24.4C101.428 24.4 101.428 24.356 101.406 24.356C101.428 24.334 101.45 24.334 101.472 24.334C101.494 24.334 101.494 24.356 101.516 24.378C101.494 24.378 101.472 24.4 101.45 24.4ZM102.286 24.796C102.594 24.62 102.792 24.862 103.012 24.84C103.21 24.818 103.43 24.73 103.606 24.95C103.144 25.082 102.726 25.104 102.286 24.796ZM105.146 24.994C105.102 24.972 105.058 24.95 105.014 24.906C105.036 24.884 105.058 24.84 105.102 24.818C105.278 24.774 105.454 24.796 105.608 24.884C105.454 24.95 105.3 25.016 105.146 24.994ZM105.63 24.84C105.652 24.818 105.696 24.862 105.63 24.84V24.84ZM105.08 22.728C104.882 22.772 104.684 22.816 104.464 22.816C103.936 22.838 103.408 22.816 102.858 22.816C102.264 22.816 101.67 22.816 101.076 22.816C100.878 22.816 100.724 22.728 100.746 22.486C100.746 21.518 100.746 20.55 100.768 19.582C100.768 19.362 100.9 19.252 101.098 19.23C102.33 19.142 103.54 19.098 104.75 19.384C104.948 19.428 105.146 19.494 105.322 19.582C105.96 19.89 106.29 20.396 106.29 21.1C106.312 22.002 105.96 22.486 105.08 22.728ZM106.092 24.752C106.07 24.752 106.048 24.73 106.048 24.708C106.07 24.708 106.092 24.686 106.114 24.686C106.136 24.686 106.158 24.708 106.158 24.73C106.136 24.73 106.114 24.752 106.092 24.752ZM107.852 22.134C107.852 22.112 107.852 22.112 107.852 22.134C107.83 22.156 107.83 22.156 107.83 22.156H107.852V22.178C107.324 22.332 106.906 22.75 106.268 22.75C106.202 22.464 106.444 22.31 106.488 22.09C106.532 21.892 106.62 21.694 106.642 21.496C106.664 21.254 106.642 21.012 106.642 20.77C106.62 20.55 106.598 20.33 106.466 20.154C106.334 19.956 106.202 19.78 106.048 19.582C106.136 19.582 106.224 19.538 106.268 19.56C106.62 19.714 106.972 19.89 107.148 20.264C107.258 20.286 107.302 20.374 107.368 20.462C107.654 20.55 107.896 20.682 107.852 21.056C107.83 21.232 107.94 21.342 108.006 21.474C108.138 21.738 108.028 21.936 107.852 22.134ZM108.886 22.09C108.864 22.09 108.842 22.068 108.842 22.068C108.842 22.002 108.864 21.958 108.864 21.914C108.886 21.914 108.93 21.936 108.908 21.936C108.908 22.002 108.886 22.046 108.886 22.09ZM119.494 14.39C119.362 14.324 119.23 14.258 119.098 14.236C118.108 14.06 117.184 14.214 116.326 14.698C116.128 14.808 115.974 15.028 115.71 15.006C115.534 14.786 115.732 14.588 115.688 14.39C115.622 14.104 115.49 14.038 115.16 14.17C115.072 14.192 114.984 14.236 114.896 14.236C114.522 14.236 114.126 14.236 113.73 14.236C113.532 14.236 113.422 14.104 113.356 13.928C113.29 13.796 113.18 13.752 113.092 13.906C112.96 14.148 112.806 14.258 112.52 14.214C112.476 14.214 112.41 14.258 112.366 14.28C112.344 14.302 112.3 14.324 112.322 14.346C112.322 14.412 112.322 14.478 112.366 14.5C112.454 14.544 112.542 14.566 112.63 14.588C113.004 14.676 113.004 14.676 113.026 15.028C113.026 15.204 113.026 15.38 113.026 15.578C113.048 18.284 113.07 21.012 113.092 23.718C113.092 24.092 113.158 24.488 113.004 24.862C112.96 24.95 113.004 25.104 113.048 25.214C113.114 25.434 113.224 25.456 113.466 25.324C113.554 25.28 113.62 25.236 113.708 25.192C113.752 25.192 113.818 25.192 113.884 25.192C114.39 25.302 114.962 25.016 115.402 25.478C115.424 25.5 115.556 25.5 115.556 25.478C115.776 25.148 116.172 25.302 116.436 25.126C116.458 25.104 116.502 25.082 116.502 25.06C116.48 25.016 116.436 24.928 116.414 24.928C116.26 24.884 116.106 24.862 115.974 24.862C115.754 24.84 115.644 24.73 115.644 24.532C115.622 24.444 115.622 24.356 115.622 24.268C115.6 22.64 115.644 21.034 115.798 19.428C115.93 18.064 116.766 17.272 117.998 16.942C118.394 16.832 118.438 16.876 118.592 17.316C118.614 17.36 118.658 17.404 118.68 17.448C118.702 17.47 118.746 17.47 118.768 17.492C118.834 17.514 118.9 17.492 118.9 17.404C118.922 17.228 118.944 17.052 118.944 16.876C118.966 16.26 118.966 15.622 118.966 15.006C118.966 14.764 119.054 14.588 119.34 14.654C119.384 14.654 119.45 14.632 119.516 14.61C119.538 14.61 119.56 14.566 119.56 14.544C119.56 14.5 119.538 14.412 119.494 14.39ZM113.686 24.796C113.488 24.774 113.466 24.642 113.51 24.488C113.51 24.422 113.532 24.312 113.664 24.356C113.818 24.4 113.884 24.51 113.862 24.664C113.84 24.752 113.774 24.796 113.686 24.796ZM113.972 18.372C113.95 18.416 113.862 18.416 113.818 18.438C113.686 18.394 113.664 18.064 113.774 17.998C113.796 17.976 113.884 17.998 113.928 18.042C114.016 18.13 114.016 18.262 113.972 18.372ZM114.038 14.764C114.016 14.83 113.972 14.852 113.906 14.83C113.884 14.786 113.862 14.742 113.84 14.698C113.884 14.676 113.928 14.632 113.972 14.654C114.038 14.654 114.06 14.698 114.038 14.764ZM114.544 18.834C114.522 18.812 114.478 18.768 114.456 18.724C114.456 18.68 114.5 18.636 114.5 18.592C114.544 18.636 114.588 18.68 114.61 18.724C114.632 18.79 114.61 18.834 114.544 18.834ZM114.808 21.276L114.852 21.32L114.808 21.276ZM114.852 21.298C114.764 21.188 114.72 21.078 114.742 20.924C114.764 20.858 114.808 20.814 114.874 20.858C114.874 20.858 114.896 20.88 114.896 20.902C114.896 21.034 114.874 21.166 114.852 21.298ZM115.138 15.292L115.182 15.248C115.028 15.072 114.852 14.896 114.676 14.72C115.138 14.61 115.204 14.632 115.226 14.918C115.226 15.028 115.204 15.138 115.182 15.27L115.138 15.292ZM115.182 18.306C115.182 18.262 115.182 18.196 115.182 18.152C115.182 18.13 115.204 18.13 115.226 18.13C115.226 18.174 115.248 18.24 115.248 18.284C115.248 18.284 115.204 18.306 115.182 18.306ZM115.6 18.328C115.49 17.976 115.49 17.976 115.71 17.734L115.688 17.668L115.732 17.712C115.688 17.91 115.666 18.108 115.6 18.328ZM116.436 15.952C116.392 15.974 116.326 15.93 116.282 15.908C116.26 15.908 116.26 15.864 116.26 15.842C116.502 15.534 116.81 15.402 117.206 15.446C116.964 15.622 116.7 15.798 116.436 15.952ZM118.328 14.786C118.284 14.742 118.218 14.676 118.24 14.654C118.284 14.566 118.372 14.544 118.46 14.588C118.504 14.61 118.504 14.676 118.526 14.742C118.482 14.83 118.394 14.83 118.328 14.786ZM123.343 16.436H123.321C123.343 16.436 123.343 16.436 123.343 16.436ZM132.935 18.46C132.429 16.216 131.065 14.676 128.821 14.082C126.577 13.466 124.619 14.148 123.123 15.908C121.847 17.36 121.451 19.098 121.847 21.012C122.375 23.608 124.707 25.522 127.413 25.544C127.985 25.566 128.623 25.434 129.261 25.214C131.879 24.312 133.617 21.364 132.935 18.46ZM122.265 20.33C122.221 20.55 122.067 20.066 122.089 19.516C122.089 19.494 122.111 19.472 122.111 19.45C122.133 19.494 122.177 19.538 122.199 19.582C122.221 19.824 122.287 20.088 122.265 20.33ZM129.613 16.678C129.811 16.898 130.009 17.14 130.185 17.36V17.382C130.163 17.36 130.163 17.36 130.163 17.36C129.965 17.426 129.855 17.272 129.745 17.162C129.525 16.986 129.415 16.7 129.085 16.7C129.261 16.546 129.437 16.502 129.613 16.678ZM128.843 14.478C128.821 14.5 128.821 14.522 128.821 14.544C128.799 14.544 128.777 14.544 128.755 14.544C128.733 14.522 128.711 14.5 128.689 14.5C128.733 14.5 128.777 14.478 128.843 14.478ZM127.919 14.302C127.941 14.302 127.963 14.324 128.007 14.324C127.985 14.324 127.963 14.346 127.941 14.346C127.897 14.346 127.875 14.346 127.853 14.346C127.875 14.324 127.897 14.302 127.919 14.302ZM128.249 15.732C128.579 15.864 128.865 16.084 129.129 16.304C129.239 16.392 129.107 16.568 129.085 16.7C128.755 16.26 128.271 16.084 127.765 15.974C127.655 15.974 127.545 16.04 127.435 15.908C127.699 15.754 127.985 15.6 128.249 15.732ZM123.717 16.04C123.739 16.018 123.761 16.04 123.717 16.04V16.04ZM123.717 16.062C123.717 16.062 123.717 16.062 123.739 16.062H123.717ZM123.343 16.436C123.321 16.458 123.321 16.48 123.321 16.502C123.321 16.502 123.321 16.502 123.321 16.48C123.321 16.48 123.321 16.458 123.321 16.436C123.321 16.436 123.321 16.436 123.343 16.436C123.343 16.414 123.343 16.414 123.343 16.414C123.343 16.414 123.343 16.414 123.343 16.436ZM124.025 23.498C123.827 23.256 123.629 22.992 123.717 22.64C123.717 22.596 123.783 22.552 123.827 22.508V22.464V22.486C123.827 22.794 124.091 22.948 124.245 23.124C124.465 23.344 124.597 23.608 124.905 23.828C124.487 23.872 124.223 23.762 124.025 23.498ZM125.147 21.87C124.069 20.44 124.311 18.262 125.675 17.096C126.819 16.128 128.359 16.216 129.371 17.316C129.987 17.976 130.251 18.79 130.251 19.736C130.229 20.638 129.899 21.496 129.217 22.178C128.007 23.366 126.181 23.234 125.147 21.87ZM125.939 23.674C125.917 23.652 125.939 23.608 125.939 23.674V23.674ZM127.897 25.148C127.545 25.192 127.171 25.148 126.819 25.148C126.643 25.148 126.533 25.06 126.467 24.906C126.335 24.928 126.203 24.928 126.093 24.95C126.093 24.928 126.093 24.906 126.093 24.884C126.203 24.906 126.335 24.906 126.467 24.906C126.665 24.928 126.863 24.862 127.083 24.884C128.007 25.038 128.843 24.84 129.635 24.334C129.899 24.18 130.119 23.872 130.515 23.96C129.811 24.752 128.865 25.016 127.897 25.148ZM130.515 20.902C130.603 20.132 130.669 19.45 130.625 18.768C131.131 19.758 131.131 19.912 130.515 20.902ZM131.087 16.106C131.065 16.106 131.065 16.106 131.065 16.106C131.065 16.106 131.065 16.106 131.087 16.106ZM131.087 16.128C131.109 16.128 131.109 16.15 131.109 16.15C131.109 16.15 131.087 16.15 131.087 16.128ZM131.373 16.238C131.439 16.238 131.505 16.282 131.527 16.348C131.461 16.348 131.395 16.326 131.373 16.238ZM131.593 16.392C131.659 16.414 131.725 16.458 131.791 16.48C131.703 16.48 131.615 16.502 131.593 16.392ZM132.033 22.09C132.033 22.112 132.033 22.112 132.033 22.112C132.055 21.914 132.099 21.716 132.143 21.496C132.253 21.716 132.231 21.914 132.033 22.09ZM132.561 20.902C132.517 21.122 132.495 21.408 132.165 21.452C132.539 20.726 132.451 19.978 132.385 19.208C132.297 18.504 132.011 17.844 131.813 17.162C131.747 16.942 131.703 16.744 131.813 16.524C131.813 16.766 131.989 16.92 132.077 17.118C132.715 18.328 132.847 19.582 132.561 20.902ZM145.8 21.144C145.404 21.144 145.008 21.122 144.634 21.122C144.436 21.122 144.282 21.078 144.216 20.858C144.194 20.682 143.996 20.704 143.952 20.77C143.864 21.1 143.226 21.1 143.468 21.606C143.49 21.672 143.402 21.76 143.358 21.848C142.654 23.058 140.542 23.652 139.332 22.09C138.32 20.77 138.43 18.57 139.64 17.404C140.828 16.216 142.5 16.436 143.402 17.932C143.314 17.954 143.248 17.998 143.16 17.998C143.028 18.02 142.896 18.064 142.918 18.196C142.918 18.328 143.05 18.372 143.182 18.372C143.776 18.394 144.37 18.394 144.964 18.416C145.426 18.438 145.932 18.284 146.262 18.812C146.284 18.878 146.438 18.768 146.438 18.68C146.416 18.482 146.416 18.262 146.35 18.064C145.976 16.744 145.272 15.622 144.128 14.808C142.698 13.774 141.114 13.532 139.442 14.126C138.254 14.544 137.352 15.38 136.714 16.48C135.878 17.954 135.702 19.516 136.076 21.144C136.406 22.64 137.198 23.85 138.452 24.73C139.486 25.434 140.652 25.764 141.928 25.61C143.468 25.39 144.656 24.598 145.536 23.344C145.866 22.882 146.086 22.354 146.284 21.826C146.504 21.254 146.57 21.144 145.8 21.144ZM143.446 14.852L143.424 14.896L143.402 14.852H143.446ZM144.634 17.91C144.26 18.064 143.952 18.086 143.776 17.712C143.556 17.228 143.138 16.942 142.72 16.634C142.61 16.568 142.456 16.524 142.5 16.348C142.83 16.392 143.094 16.568 143.336 16.766C143.776 17.14 144.194 17.514 144.634 17.91ZM142.324 16.282C142.368 16.282 142.412 16.304 142.456 16.348C142.412 16.348 142.368 16.37 142.324 16.37C142.28 16.37 142.236 16.326 142.192 16.326C142.236 16.304 142.28 16.26 142.324 16.282ZM139.068 24.62C139.046 24.62 139.002 24.576 139.002 24.576C139.002 24.51 139.068 24.466 139.112 24.51C139.156 24.532 139.178 24.576 139.2 24.62C139.156 24.62 139.112 24.62 139.068 24.62ZM139.222 24.642C139.882 24.598 140.454 24.884 141.026 25.104C141.07 25.104 141.07 25.192 141.092 25.236C140.498 25.236 139.948 25.104 139.442 24.862C139.332 24.818 139.244 24.752 139.222 24.642ZM141.18 25.236C141.158 25.236 141.158 25.236 141.136 25.236C141.158 25.214 141.202 25.192 141.224 25.214C141.29 25.236 141.268 25.258 141.18 25.236ZM144.656 23.718C144.656 23.696 144.7 23.696 144.656 23.718V23.718ZM144.634 23.784C144.458 23.894 144.282 24.004 144.128 24.114C144.194 23.806 144.216 23.784 144.634 23.784ZM144.128 21.606C144.128 21.606 144.15 21.694 144.128 21.738C144.04 21.892 143.93 21.936 143.798 21.804C143.82 21.804 143.842 21.782 143.842 21.76C143.908 21.65 143.974 21.562 144.128 21.606ZM143.776 21.826C143.798 21.87 143.82 21.914 143.82 21.98C143.82 22.024 143.798 22.068 143.776 22.134C143.776 22.068 143.776 22.024 143.776 21.98C143.776 21.936 143.776 21.87 143.776 21.826ZM143.732 24.312C143.71 24.29 143.732 24.268 143.754 24.246C143.842 24.136 143.952 24.092 144.084 24.136C143.996 24.224 143.93 24.29 143.842 24.356C143.776 24.4 143.732 24.378 143.732 24.312ZM144.656 23.762C144.656 23.74 144.656 23.74 144.656 23.74C144.678 23.74 144.678 23.74 144.678 23.74C144.678 23.74 144.678 23.74 144.656 23.762ZM145.8 22.046C145.734 22.2 145.58 22.222 145.47 22.068C145.404 22.002 145.36 21.936 145.316 21.848C145.25 21.738 145.25 21.606 145.382 21.54C145.536 21.452 145.822 21.518 145.866 21.628C145.888 21.65 145.888 21.672 145.91 21.738C145.866 21.826 145.844 21.936 145.8 22.046ZM160.378 25.214C160.356 25.17 160.29 25.148 160.246 25.126C159.696 24.928 159.696 24.928 159.74 24.422C159.806 23.014 159.916 21.628 159.938 20.22C159.982 18.812 159.806 17.426 159.212 16.106C158.486 14.478 156.924 13.752 155.384 13.906C154.548 13.972 153.734 14.214 153.008 14.632C152.876 14.698 152.766 14.83 152.568 14.698C152.568 14.544 152.546 14.368 152.546 14.192C152.568 13.004 152.59 11.794 152.59 10.606C152.59 10.518 152.612 10.43 152.612 10.342C152.612 10.1 152.7 9.946 152.964 9.924C153.03 9.924 153.096 9.924 153.14 9.88C153.184 9.814 153.25 9.704 153.14 9.66C153.052 9.594 152.92 9.572 152.81 9.572C152.59 9.528 152.634 9.242 152.458 9.198C152.216 9.154 152.282 9.484 152.106 9.528C151.996 9.55 151.886 9.572 151.754 9.572C151.402 9.572 151.05 9.572 150.676 9.572C150.456 9.572 150.192 9.594 150.082 9.308C150.06 9.286 149.95 9.264 149.928 9.308C149.796 9.462 149.554 9.616 149.664 9.814C149.884 10.342 149.774 10.87 149.774 11.398C149.796 15.71 149.774 20 149.774 24.312C149.774 24.576 149.774 24.84 149.774 25.104C149.796 25.368 149.862 25.412 150.104 25.412C150.456 25.39 150.808 25.39 151.16 25.368C151.6 25.324 151.974 25.412 152.26 25.786C152.392 25.94 152.59 25.918 152.612 25.764C152.634 25.368 152.898 25.368 153.162 25.346C153.294 25.346 153.514 25.368 153.47 25.148C153.448 24.994 153.294 25.016 153.184 24.994C153.03 24.994 152.876 24.972 152.722 24.95C152.7 24.818 152.656 24.708 152.656 24.598C152.612 22.882 152.568 21.188 152.546 19.494C152.546 19.164 152.59 18.834 152.678 18.504C152.854 17.822 153.25 17.272 153.866 16.898C154.724 16.392 155.714 16.546 156.352 17.338C156.55 17.558 156.682 17.822 156.792 18.108C156.924 18.482 156.946 18.856 156.946 19.252C156.946 20.88 156.968 22.486 156.99 24.092C156.99 24.4 156.99 24.686 157.034 24.994C157.056 25.28 157.122 25.346 157.43 25.368C158.31 25.39 159.212 25.434 160.114 25.456C160.18 25.456 160.29 25.412 160.356 25.368C160.378 25.346 160.4 25.258 160.378 25.214ZM150.258 15.248C150.236 15.248 150.214 15.248 150.192 15.248C150.17 13.642 150.17 12.036 150.148 10.43C150.148 10.342 150.148 10.254 150.17 10.166C150.192 10.1 150.214 9.99 150.346 10.034C150.39 10.034 150.434 10.1 150.456 10.144C150.456 10.386 150.478 10.606 150.456 10.848C150.412 11.882 150.368 12.916 150.302 13.972C150.302 14.39 150.28 14.808 150.258 15.248ZM150.544 18.702C150.478 18.746 150.412 18.702 150.412 18.614C150.39 18.46 150.368 18.284 150.368 18.108C150.368 18.086 150.434 18.042 150.478 18.02C150.5 18.02 150.522 18.042 150.544 18.064C150.632 18.196 150.632 18.35 150.632 18.482C150.632 18.504 150.632 18.548 150.632 18.57C150.61 18.614 150.588 18.68 150.544 18.702ZM150.698 24.95C150.654 24.95 150.632 24.906 150.61 24.862C150.654 24.84 150.698 24.818 150.764 24.818C150.786 24.818 150.808 24.884 150.83 24.906C150.786 24.928 150.742 24.95 150.698 24.95ZM158.838 16.128H158.816C158.816 16.128 158.816 16.128 158.816 16.106C158.398 16.062 158.332 15.644 158.068 15.424C157.936 15.314 157.87 15.138 157.892 14.94C157.892 14.94 157.892 14.918 157.892 14.896C158.222 15.292 158.596 15.666 158.838 16.128ZM157.892 14.874C157.892 14.874 157.892 14.874 157.87 14.874V14.852C157.87 14.852 157.87 14.874 157.892 14.874ZM157.848 14.874C157.826 14.874 157.826 14.83 157.848 14.874V14.874ZM151.468 22.002C151.446 21.958 151.424 21.936 151.402 21.892C151.402 21.826 151.468 21.782 151.512 21.826C151.534 21.848 151.512 21.914 151.534 21.958C151.512 21.98 151.49 22.002 151.468 22.002ZM151.402 10.21C151.314 10.166 151.358 10.034 151.446 9.99C151.622 9.902 151.842 9.924 152.04 9.968C152.172 9.99 152.216 10.122 152.216 10.254C152.216 10.716 152.216 11.2 152.216 11.662C152.15 11.684 152.106 11.684 152.04 11.684C152.062 11.09 151.908 10.584 151.402 10.21ZM151.71 23.762C151.644 23.806 151.6 23.784 151.622 23.696C151.622 23.608 151.622 23.52 151.644 23.432C151.666 23.52 151.688 23.608 151.71 23.696C151.71 23.718 151.71 23.762 151.71 23.762ZM151.798 24.994C151.886 24.07 151.974 23.278 152.018 22.486C152.04 21.716 152.018 20.924 152.018 19.934C152.37 21.98 152.282 23.828 151.798 24.994ZM153.624 16.282C153.646 16.392 153.646 16.502 153.536 16.59C152.898 17.074 152.502 17.712 152.26 18.504C152.018 17.734 152.128 17.294 152.678 16.898C152.986 16.678 153.316 16.48 153.624 16.282C153.866 16.26 154.108 16.128 154.35 16.282C154.108 16.326 153.866 16.458 153.624 16.282ZM157.166 17.844C156.858 17.47 156.704 16.986 156.286 16.722C156.132 16.634 156 16.524 155.824 16.458C155.692 16.392 155.56 16.348 155.406 16.304C155.23 16.26 155.054 16.238 154.878 16.216C154.724 16.216 154.548 16.26 154.372 16.282C154.394 16.216 154.394 16.084 154.438 16.084C154.966 15.93 155.494 15.776 156.088 15.82C156.33 15.842 156.462 15.886 156.484 16.15C156.506 16.326 156.682 16.348 156.814 16.392C157.144 16.48 157.32 16.678 157.298 17.03C157.276 17.294 157.386 17.558 157.166 17.844ZM159.146 24.994C158.882 25.016 158.618 25.038 158.552 25.038C157.21 25.016 157.364 25.06 157.342 24.004C157.342 23.828 157.342 23.63 157.364 23.454C157.408 23.234 157.606 22.97 157.716 22.992C157.87 23.058 157.892 23.234 157.958 23.344C158.09 23.586 158.222 23.806 158.376 24.026C158.442 24.136 158.552 24.202 158.662 24.18C158.794 24.158 158.926 24.048 158.992 24.158C159.124 24.356 159.3 24.532 159.278 24.796C159.278 24.884 159.256 24.972 159.146 24.994ZM159.366 21.694C159.256 20.726 159.234 18.9 159.344 18.042C159.652 19.032 159.674 20.726 159.366 21.694ZM173.709 25.038C173.379 24.906 173.379 24.642 173.379 24.356C173.379 23.85 173.379 23.344 173.379 22.838C173.357 20.33 173.335 17.822 173.313 15.314C173.313 15.116 173.313 14.896 173.291 14.698C173.269 14.324 173.203 14.258 172.873 14.258C172.169 14.258 171.443 14.258 170.717 14.28C170.585 14.28 170.431 14.324 170.299 14.368C170.211 14.39 170.167 14.522 170.255 14.566C170.607 14.72 170.585 15.028 170.585 15.336C170.563 17.03 170.519 18.724 170.497 20.418C170.497 20.726 170.497 21.034 170.475 21.32C170.409 22.222 169.903 22.794 169.023 23.014C167.857 23.3 166.251 22.728 166.339 20.946C166.449 19.032 166.383 17.118 166.361 15.204C166.361 14.852 166.493 14.654 166.845 14.61C166.933 14.61 167.021 14.544 166.999 14.456C166.977 14.412 166.911 14.346 166.867 14.346C166.625 14.302 166.383 14.214 166.163 14.236C165.503 14.324 164.843 14.28 164.183 14.28C163.963 14.302 163.677 14.214 163.523 14.434C163.413 14.632 163.611 14.83 163.589 15.028C163.567 15.182 163.589 15.336 163.589 15.49C163.589 17.448 163.589 19.428 163.611 21.386C163.611 21.936 163.655 22.464 163.787 22.992C164.139 24.312 165.041 25.148 166.405 25.324C166.911 25.39 167.417 25.456 167.923 25.456C168.869 25.434 169.859 25.434 170.607 24.62C170.849 25.016 170.717 25.324 170.805 25.61C170.827 25.654 170.871 25.72 170.915 25.742C170.959 25.742 171.025 25.698 171.069 25.676C171.179 25.588 171.157 25.346 171.333 25.346C171.927 25.368 172.521 25.17 173.071 25.478C173.225 25.566 173.665 25.346 173.731 25.17C173.753 25.148 173.731 25.038 173.709 25.038ZM164.117 16.37C164.095 16.128 164.095 16.062 164.073 15.974C164.073 15.886 164.095 15.798 164.095 15.6C164.117 15.776 164.139 15.864 164.139 15.952C164.139 16.04 164.139 16.128 164.117 16.37ZM166.493 22.86V22.882C166.515 22.882 166.515 22.882 166.515 22.882V22.86C166.537 22.838 166.537 22.882 166.537 22.882C166.669 22.882 166.691 22.97 166.647 23.102C166.581 23.014 166.537 22.948 166.471 22.86C166.471 22.86 166.471 22.86 166.493 22.86ZM165.811 14.698C165.921 14.698 165.987 14.764 165.987 14.852C165.987 14.94 165.965 15.028 165.943 15.116C165.789 15.072 165.723 14.984 165.679 14.874C165.657 14.786 165.723 14.698 165.811 14.698ZM165.877 16.832C165.877 16.92 165.899 16.986 165.899 17.052C165.877 17.096 165.855 17.14 165.811 17.184C165.811 17.206 165.789 17.228 165.767 17.228C165.723 17.206 165.701 17.162 165.767 17.118C165.811 17.096 165.855 17.074 165.899 17.052C165.899 16.986 165.877 16.92 165.877 16.832ZM165.525 18.548C165.767 18.702 165.943 18.812 165.877 19.142C165.833 19.56 165.833 19.956 165.789 20.55C165.393 19.802 165.481 19.186 165.525 18.548ZM164.777 17.668C164.755 17.646 164.755 17.646 164.755 17.646C164.777 17.58 164.799 17.602 164.777 17.668ZM164.777 18.592C164.755 18.614 164.733 18.636 164.733 18.636C164.711 18.636 164.667 18.636 164.667 18.614C164.645 18.548 164.667 18.504 164.733 18.526C164.755 18.548 164.755 18.57 164.777 18.592ZM164.733 17.734C164.711 17.734 164.689 17.712 164.689 17.712C164.711 17.712 164.733 17.69 164.755 17.69C164.733 17.712 164.733 17.712 164.733 17.734ZM164.645 14.72L164.689 14.808L164.623 14.786L164.645 14.72ZM164.887 20.44C164.865 20.484 164.799 20.528 164.755 20.528C164.711 20.528 164.645 20.484 164.623 20.44C164.579 20.286 164.623 20.154 164.711 20.022C164.733 19.978 164.799 19.956 164.865 19.934C164.865 19.934 164.887 19.978 164.909 20C164.909 20.066 164.931 20.132 164.931 20.198C164.931 20.264 164.909 20.352 164.887 20.44ZM164.975 16.04C164.953 15.996 164.887 15.996 164.865 15.952C164.843 15.908 164.865 15.82 164.887 15.798C164.975 15.732 165.041 15.798 165.041 15.886C165.041 15.93 164.997 15.996 164.975 16.04ZM165.129 24.18C165.107 24.18 165.151 24.136 165.129 24.18V24.18ZM166.097 24.862C165.811 24.818 165.525 24.752 165.305 24.576C165.173 24.466 165.107 24.356 165.195 24.18C165.173 24.202 165.173 24.202 165.173 24.202C165.173 24.18 165.173 24.18 165.173 24.18C165.415 24.312 165.657 24.444 165.899 24.576C166.009 24.642 166.119 24.708 166.097 24.862ZM166.361 24.928C166.295 24.928 166.229 24.906 166.141 24.884C166.207 24.862 166.273 24.84 166.339 24.818C166.383 24.818 166.449 24.862 166.493 24.862C166.449 24.884 166.405 24.928 166.361 24.928ZM165.437 22.904C165.767 22.948 165.811 23.3 166.053 23.454C166.295 23.586 166.559 23.718 166.757 24.004C166.031 23.894 165.547 23.608 165.437 22.904ZM166.647 23.102C166.823 22.992 167.021 23.124 167.197 23.08C167.021 23.146 166.845 23.212 166.647 23.102ZM167.197 23.08C167.241 23.3 167.571 23.256 167.615 23.498C167.219 23.454 167.219 23.454 167.197 23.08ZM170.695 23.718C170.541 24.158 170.255 24.51 169.859 24.73C169.551 24.928 169.177 25.082 168.737 24.95C169.221 24.312 169.903 23.982 170.497 23.586C170.541 23.564 170.629 23.564 170.651 23.586C170.695 23.608 170.717 23.696 170.695 23.718ZM170.673 22.772C170.651 22.794 170.563 22.75 170.541 22.706C170.431 22.442 170.585 22.266 170.761 22.112C170.783 22.156 170.827 22.178 170.827 22.2C170.827 22.398 170.959 22.64 170.673 22.772ZM170.959 19.978C170.937 19.978 170.937 19.978 170.915 19.978C170.915 19.802 170.915 19.626 170.915 19.45C170.937 19.45 170.937 19.45 170.959 19.45C170.959 19.626 170.959 19.802 170.959 19.978ZM171.707 14.676C171.795 14.632 171.883 14.698 171.927 14.764C172.125 15.182 172.059 15.622 172.125 16.238C171.817 15.886 171.883 15.644 171.795 15.424C171.707 15.248 171.619 15.072 171.575 14.874C171.553 14.83 171.641 14.72 171.707 14.676ZM172.081 21.628C172.081 21.672 171.993 21.76 171.993 21.738C171.905 21.694 171.905 21.628 171.927 21.54C171.927 21.496 171.971 21.452 172.015 21.386C172.037 21.474 172.059 21.54 172.081 21.628ZM171.113 15.996C171.091 15.974 171.091 15.952 171.091 15.93C171.091 15.886 171.091 15.864 171.113 15.842C171.113 15.886 171.113 15.952 171.113 15.996ZM171.355 24.95C171.245 24.928 171.157 24.862 171.135 24.73C171.113 24.62 171.135 24.488 171.245 24.444C171.333 24.378 171.465 24.356 171.553 24.466C171.641 24.554 171.729 24.686 171.817 24.796C171.663 24.84 171.553 24.994 171.355 24.95ZM171.817 24.796C171.839 24.774 171.839 24.73 171.839 24.73C171.751 24.488 171.729 24.224 171.993 24.136C172.213 24.048 172.367 24.224 172.499 24.4C172.587 24.554 172.785 24.62 172.829 24.796C172.323 25.016 172.323 25.016 171.817 24.796ZM172.851 14.896C172.785 14.83 172.763 14.764 172.719 14.698C172.741 14.676 172.763 14.654 172.785 14.654C172.873 14.654 172.917 14.72 172.917 14.808C172.917 14.874 172.873 14.918 172.851 14.896ZM183.926 14.39C183.794 14.324 183.662 14.258 183.53 14.236C182.54 14.06 181.616 14.214 180.758 14.698C180.56 14.808 180.406 15.028 180.142 15.006C179.966 14.786 180.164 14.588 180.12 14.39C180.054 14.104 179.922 14.038 179.592 14.17C179.504 14.192 179.416 14.236 179.328 14.236C178.954 14.236 178.558 14.236 178.162 14.236C177.964 14.236 177.854 14.104 177.788 13.928C177.722 13.796 177.612 13.752 177.524 13.906C177.392 14.148 177.238 14.258 176.952 14.214C176.908 14.214 176.842 14.258 176.798 14.28C176.776 14.302 176.732 14.324 176.754 14.346C176.754 14.412 176.754 14.478 176.798 14.5C176.886 14.544 176.974 14.566 177.062 14.588C177.436 14.676 177.436 14.676 177.458 15.028C177.458 15.204 177.458 15.38 177.458 15.578C177.48 18.284 177.502 21.012 177.524 23.718C177.524 24.092 177.59 24.488 177.436 24.862C177.392 24.95 177.436 25.104 177.48 25.214C177.546 25.434 177.656 25.456 177.898 25.324C177.986 25.28 178.052 25.236 178.14 25.192C178.184 25.192 178.25 25.192 178.316 25.192C178.822 25.302 179.394 25.016 179.834 25.478C179.856 25.5 179.988 25.5 179.988 25.478C180.208 25.148 180.604 25.302 180.868 25.126C180.89 25.104 180.934 25.082 180.934 25.06C180.912 25.016 180.868 24.928 180.846 24.928C180.692 24.884 180.538 24.862 180.406 24.862C180.186 24.84 180.076 24.73 180.076 24.532C180.054 24.444 180.054 24.356 180.054 24.268C180.032 22.64 180.076 21.034 180.23 19.428C180.362 18.064 181.198 17.272 182.43 16.942C182.826 16.832 182.87 16.876 183.024 17.316C183.046 17.36 183.09 17.404 183.112 17.448C183.134 17.47 183.178 17.47 183.2 17.492C183.266 17.514 183.332 17.492 183.332 17.404C183.354 17.228 183.376 17.052 183.376 16.876C183.398 16.26 183.398 15.622 183.398 15.006C183.398 14.764 183.486 14.588 183.772 14.654C183.816 14.654 183.882 14.632 183.948 14.61C183.97 14.61 183.992 14.566 183.992 14.544C183.992 14.5 183.97 14.412 183.926 14.39ZM178.118 24.796C177.92 24.774 177.898 24.642 177.942 24.488C177.942 24.422 177.964 24.312 178.096 24.356C178.25 24.4 178.316 24.51 178.294 24.664C178.272 24.752 178.206 24.796 178.118 24.796ZM178.404 18.372C178.382 18.416 178.294 18.416 178.25 18.438C178.118 18.394 178.096 18.064 178.206 17.998C178.228 17.976 178.316 17.998 178.36 18.042C178.448 18.13 178.448 18.262 178.404 18.372ZM178.47 14.764C178.448 14.83 178.404 14.852 178.338 14.83C178.316 14.786 178.294 14.742 178.272 14.698C178.316 14.676 178.36 14.632 178.404 14.654C178.47 14.654 178.492 14.698 178.47 14.764ZM178.976 18.834C178.954 18.812 178.91 18.768 178.888 18.724C178.888 18.68 178.932 18.636 178.932 18.592C178.976 18.636 179.02 18.68 179.042 18.724C179.064 18.79 179.042 18.834 178.976 18.834ZM179.24 21.276L179.284 21.32L179.24 21.276ZM179.284 21.298C179.196 21.188 179.152 21.078 179.174 20.924C179.196 20.858 179.24 20.814 179.306 20.858C179.306 20.858 179.328 20.88 179.328 20.902C179.328 21.034 179.306 21.166 179.284 21.298ZM179.57 15.292L179.614 15.248C179.46 15.072 179.284 14.896 179.108 14.72C179.57 14.61 179.636 14.632 179.658 14.918C179.658 15.028 179.636 15.138 179.614 15.27L179.57 15.292ZM179.614 18.306C179.614 18.262 179.614 18.196 179.614 18.152C179.614 18.13 179.636 18.13 179.658 18.13C179.658 18.174 179.68 18.24 179.68 18.284C179.68 18.284 179.636 18.306 179.614 18.306ZM180.032 18.328C179.922 17.976 179.922 17.976 180.142 17.734L180.12 17.668L180.164 17.712C180.12 17.91 180.098 18.108 180.032 18.328ZM180.868 15.952C180.824 15.974 180.758 15.93 180.714 15.908C180.692 15.908 180.692 15.864 180.692 15.842C180.934 15.534 181.242 15.402 181.638 15.446C181.396 15.622 181.132 15.798 180.868 15.952ZM182.76 14.786C182.716 14.742 182.65 14.676 182.672 14.654C182.716 14.566 182.804 14.544 182.892 14.588C182.936 14.61 182.936 14.676 182.958 14.742C182.914 14.83 182.826 14.83 182.76 14.786ZM197.06 18.372C196.268 15.402 193.408 13.62 190.57 14.236C188.524 14.698 187.16 15.996 186.434 17.866C185.972 19.076 185.972 20.374 186.346 21.65C187.028 24.026 189.162 25.698 191.538 25.742C193.782 25.83 195.872 24.422 196.752 22.332C196.818 22.178 196.862 22.046 196.884 21.892C196.928 21.738 196.84 21.606 196.664 21.584C196.532 21.562 196.422 21.562 196.312 21.562C195.894 21.562 195.476 21.562 195.058 21.562C194.882 21.562 194.772 21.518 194.728 21.32C194.706 21.122 194.574 21.1 194.442 21.232C194.31 21.342 194.244 21.54 194.046 21.562C193.738 21.606 193.342 21.584 193.826 22.024C193.892 22.09 193.804 22.178 193.738 22.244C193.21 22.706 192.572 22.948 191.868 22.97C190.966 23.014 189.778 22.596 189.272 21.408C189.03 20.858 189.14 20.704 189.712 20.704C191.824 20.682 193.936 20.682 196.07 20.682C196.312 20.682 196.532 20.682 196.774 20.66C197.104 20.638 197.214 20.55 197.236 20.242C197.28 19.604 197.214 18.988 197.06 18.372ZM195.894 22.068C195.916 21.936 196.048 21.936 196.158 21.936C196.334 21.936 196.422 21.98 196.422 22.09C196.4 22.222 196.356 22.332 196.246 22.376C196.092 22.42 195.85 22.2 195.894 22.068ZM195.85 16.942C195.806 16.876 195.872 16.744 195.916 16.634C196.136 17.118 196.378 17.602 196.598 18.086C196.576 18.13 196.576 18.174 196.576 18.218C196.576 18.174 196.576 18.13 196.576 18.064C196.18 17.778 196.026 17.338 195.85 16.942ZM195.894 16.634C195.784 16.744 195.652 16.7 195.52 16.678C195.652 16.678 195.784 16.656 195.894 16.634ZM195.564 16.59C195.542 16.612 195.52 16.656 195.52 16.678C195.52 16.678 195.52 16.678 195.498 16.678C195.52 16.656 195.542 16.612 195.564 16.59ZM191.186 14.676C191.23 14.676 191.274 14.764 191.296 14.808C191.296 14.852 191.274 14.918 191.23 14.94C190.856 15.182 190.482 15.182 190.02 15.05C190.372 14.654 190.768 14.654 191.186 14.676ZM189.646 16.458L189.668 16.436L189.646 16.48C189.822 16.282 189.998 16.128 190.306 16.062C191.142 15.886 192 15.864 192.858 15.886C193.276 15.908 193.694 15.974 193.848 16.48C193.892 16.59 194.068 16.656 194.178 16.744C194.42 16.964 194.596 17.184 194.596 17.514C194.42 17.646 194.398 17.47 194.332 17.404C194.156 17.206 193.98 16.986 193.782 16.832C192.88 16.04 191.846 15.974 190.768 16.304C189.932 16.568 189.294 17.074 188.964 17.91C188.876 18.13 188.788 18.35 188.7 18.57C188.634 18.68 188.524 18.724 188.414 18.702C188.238 18.636 188.172 18.504 188.194 18.35C188.216 18.24 188.282 18.13 188.348 18.042C188.7 17.646 189.052 17.25 189.404 16.832C189.492 16.722 189.558 16.59 189.646 16.458ZM194.046 18.504C193.298 18.504 192.55 18.504 191.802 18.504C191.802 18.526 191.802 18.548 191.802 18.548C191.032 18.548 190.262 18.548 189.492 18.548C189.206 18.548 189.118 18.416 189.25 18.152C189.778 17.14 190.592 16.546 191.736 16.524C192.902 16.48 193.738 17.03 194.288 18.02C194.442 18.306 194.354 18.504 194.046 18.504ZM187.6 17.778C187.49 17.668 187.534 17.536 187.578 17.448C187.842 16.788 188.238 16.194 188.766 15.71C188.832 15.644 188.92 15.6 188.986 15.644C189.118 15.732 189.03 15.864 188.986 15.952C188.986 15.974 188.964 15.996 188.942 15.996C189.074 16.084 189.184 16.172 189.096 16.348C189.052 16.414 188.986 16.502 188.92 16.546C188.524 16.876 188.15 17.25 187.82 17.668C187.776 17.734 187.666 17.756 187.6 17.778ZM187.71 23.388V23.432C187.71 23.432 187.71 23.432 187.688 23.432L187.71 23.388ZM187.974 23.564C188.04 23.586 188.106 23.63 188.084 23.74C187.974 23.718 187.93 23.652 187.974 23.564ZM195.19 24.004C195.168 24.004 195.168 24.004 195.168 24.004L195.146 23.982L195.19 24.004ZM195.168 24.026C195.036 24.07 194.882 24.092 194.75 24.07C194.882 23.96 195.014 23.916 195.168 24.026ZM194.618 22.024C194.728 22.09 194.64 22.156 194.574 22.2C194.53 22.244 194.464 22.266 194.398 22.288C194.398 22.222 194.398 22.156 194.42 22.09C194.464 22.002 194.552 21.958 194.618 22.024ZM194.376 22.31C194.332 22.42 194.266 22.464 194.178 22.442C194.222 22.376 194.288 22.31 194.376 22.31ZM194.156 22.464C194.178 22.574 194.134 22.64 194.024 22.662C193.98 22.552 194.068 22.508 194.156 22.464ZM193.716 22.75C193.804 22.684 193.892 22.64 194.002 22.662C194.024 22.794 193.958 22.882 193.87 22.948C193.628 23.168 193.32 23.234 193.342 23.102C193.386 22.904 193.562 22.838 193.716 22.75ZM189.734 22.662C189.778 22.728 189.778 22.772 189.712 22.772C189.668 22.772 189.602 22.772 189.558 22.75C189.382 22.64 189.382 22.464 189.404 22.288C189.47 22.442 189.646 22.53 189.734 22.662ZM189.426 22.222C189.448 22.2 189.448 22.222 189.426 22.222V22.222ZM189.338 22.222C189.338 22.2 189.338 22.178 189.338 22.222V22.222ZM191.45 24.84C191.89 24.928 192.33 24.928 192.77 24.972C192.88 24.994 193.012 24.95 193.078 25.06C192.968 25.214 192.792 25.258 192.616 25.28C191.824 25.412 191.032 25.302 190.24 25.148C189.47 25.016 188.832 24.576 188.26 24.048C188.172 23.96 188.084 23.872 188.106 23.74C188.282 23.696 188.436 23.806 188.59 23.872C189.514 24.268 190.46 24.62 191.45 24.84ZM189.008 23.146C188.986 23.124 188.986 23.08 189.008 23.146V23.146ZM189.096 23.168C189.184 23.146 189.118 23.19 189.096 23.168V23.168ZM196.774 20.154C196.774 20.176 196.752 20.22 196.73 20.22C196.554 20.242 196.378 20.264 196.202 20.264C195.036 20.264 193.892 20.264 192.726 20.264C192.726 20.286 192.726 20.308 192.726 20.33C191.45 20.33 190.152 20.33 188.876 20.33C188.678 20.33 188.524 20.33 188.414 20.154C188.37 20.11 188.37 20.044 188.348 20C188.326 19.868 188.458 19.846 188.524 19.846C189.03 19.846 189.536 19.868 190.042 19.89C190.966 19.934 191.868 19.934 192.792 19.802C193.562 19.692 194.332 19.692 195.124 19.67C195.212 19.648 195.344 19.648 195.366 19.692C195.652 20.264 196.136 19.934 196.554 20C196.598 20 196.664 20 196.73 20.022C196.796 20.044 196.818 20.088 196.774 20.154ZM188.92 16.018C188.942 16.018 188.942 16.018 188.942 15.996L188.92 16.018Z" fill="white"/>
</svg>
