<svg width="145" height="145" viewBox="0 0 145 145" fill="none" xmlns="http://www.w3.org/2000/svg">
<path d="M118.453 128.577C107.945 137.187 95.2302 142.672 81.7566 144.407C68.283 146.141 54.5931 144.055 42.2475 138.387C29.9019 132.718 19.3974 123.695 11.9312 112.346C4.46512 100.997 0.337827 87.778 0.0198619 74.1969C-0.298103 60.6159 3.20605 47.2187 10.1329 35.5326C17.0597 23.8465 27.1305 14.3416 39.1972 8.10143C51.264 1.86128 64.8412 -0.863067 78.3812 0.238939C91.9213 1.34095 104.879 6.22497 115.778 14.3343L115.432 14.799C104.621 6.7545 91.7661 1.9095 78.3343 0.816299C64.9024 -0.276902 51.4337 2.42568 39.4633 8.61597C27.493 14.8063 17.5026 24.2352 10.6312 35.8279C3.7597 47.4207 0.283548 60.7108 0.598973 74.1834C0.914397 87.6559 5.00871 100.769 12.4152 112.027C19.8217 123.286 30.2423 132.237 42.4892 137.86C54.7362 143.483 68.3167 145.553 81.6826 143.832C95.0485 142.112 107.662 136.67 118.086 128.129L118.453 128.577Z" fill="white"/>
<path d="M80.4531 6.05139C98.0764 8.16066 114.14 17.1844 125.11 31.1374C136.08 45.0905 141.058 62.8299 138.949 80.4532C136.84 98.0766 127.816 114.14 113.863 125.11C99.9098 136.08 82.1704 141.058 64.5471 138.949L64.622 138.323C82.0793 140.412 99.6516 135.481 113.473 124.615C127.295 113.748 136.234 97.8356 138.323 80.3783C140.412 62.921 135.481 45.3487 124.614 31.5271C113.748 17.7055 97.8355 8.76681 80.3782 6.67741L80.4531 6.05139Z" fill="white"/>
<path d="M119.32 102.801C113.737 111.427 105.88 118.343 96.6153 122.786C87.3507 127.228 77.0388 129.026 66.8174 127.979C56.596 126.932 46.8626 123.081 38.6911 116.852C30.5196 110.623 24.2278 102.258 20.5099 92.6795C16.792 83.1009 15.7925 72.6814 17.6218 62.5707C19.4511 52.46 24.0381 43.0512 30.8765 35.3825C37.7149 27.7139 46.5389 22.0834 56.3749 19.1126C66.2109 16.1417 76.6764 15.9459 86.6166 18.5467L86.4344 19.2431C76.6225 16.6758 66.2921 16.8691 56.583 19.8017C46.874 22.7342 38.1639 28.2919 31.4137 35.8616C24.6636 43.4313 20.1359 52.7187 18.3302 62.6989C16.5245 72.6791 17.511 82.9641 21.1809 92.4191C24.8509 101.874 31.0615 110.131 39.1275 116.28C47.1935 122.428 56.8013 126.229 66.8907 127.263C76.9802 128.296 87.159 126.522 96.304 122.136C105.449 117.751 113.205 110.924 118.715 102.409L119.32 102.801Z" fill="white"/>
<path d="M64.0104 23.7861C63.9398 23.3812 64.2108 22.9951 64.6168 22.9305C69.343 22.1789 74.1525 22.1071 78.8991 22.7172C79.3068 22.7696 79.5892 23.1474 79.5308 23.5543V23.5543C79.4723 23.9612 79.0952 24.2431 78.6874 24.1909C74.096 23.6028 69.4442 23.6723 64.8724 24.3972C64.4664 24.4616 64.0809 24.1911 64.0104 23.7861V23.7861Z" fill="white" fill-opacity="0.8"/>
<path d="M40.7305 34.6078C40.4664 34.2928 40.5074 33.8229 40.8262 33.5635C44.5387 30.5435 48.664 28.07 53.0768 26.2181C53.4559 26.059 53.8897 26.2443 54.0431 26.6256V26.6256C54.1965 27.007 54.0115 27.44 53.6325 27.5992C49.365 29.3924 45.3749 31.7849 41.7827 34.7043C41.4637 34.9636 40.9946 34.9228 40.7305 34.6078V34.6078Z" fill="white" fill-opacity="0.8"/>
<path d="M26.4099 54.5886C26.0267 54.4397 25.8363 54.0082 25.9909 53.6273C27.7903 49.1928 30.2147 45.0384 33.1904 41.2904C33.446 40.9685 33.9154 40.922 34.2335 41.1824V41.1824C34.5517 41.4427 34.598 41.9113 34.3425 42.2333C31.4659 45.8599 29.121 49.8781 27.3786 54.1665C27.2238 54.5474 26.793 54.7375 26.4099 54.5886V54.5886Z" fill="white" fill-opacity="0.8"/>
<path d="M24.0684 82.4746C23.6658 82.5575 23.2716 82.2984 23.1947 81.8946C22.2989 77.1936 22.0801 72.3885 22.5449 67.6255C22.5848 67.2164 22.9538 66.9225 23.3623 66.9685V66.9685C23.7708 67.0145 24.064 67.3829 24.0243 67.792C23.5768 72.3993 23.7885 77.0468 24.6528 81.5943C24.7296 81.9981 24.471 82.3917 24.0684 82.4746V82.4746Z" fill="white" fill-opacity="0.8"/>
<path d="M37.5349 107.465C37.2442 107.756 36.7725 107.756 36.4862 107.461C33.1528 104.027 30.3276 100.134 28.0964 95.9007C27.9048 95.537 28.0514 95.0887 28.4178 94.9025V94.9025C28.7843 94.7162 29.2318 94.8626 29.4236 95.2262C31.5836 99.3203 34.3162 103.086 37.5389 106.408C37.8251 106.703 37.8256 107.174 37.5349 107.465V107.465Z" fill="white" fill-opacity="0.8"/>
<path d="M60.0927 120.366C59.9895 120.764 59.5832 121.003 59.1868 120.894C54.5726 119.625 50.1636 117.702 46.0938 115.185C45.7442 114.968 45.6432 114.508 45.8647 114.161V114.161C46.0861 113.815 46.546 113.714 46.8957 113.93C50.8334 116.364 55.0978 118.224 59.5604 119.453C59.9567 119.563 60.1958 119.968 60.0927 120.366V120.366Z" fill="white" fill-opacity="0.8"/>
<path d="M87.6175 119.58C87.7432 119.972 87.5279 120.391 87.1347 120.511C82.557 121.907 77.8032 122.64 73.0178 122.69C72.6068 122.694 72.275 122.358 72.2769 121.947V121.947C72.2787 121.536 72.6135 121.205 73.0245 121.201C77.6532 121.151 82.2512 120.441 86.6796 119.094C87.0728 118.974 87.4919 119.189 87.6175 119.58V119.58Z" fill="white" fill-opacity="0.8"/>
<circle cx="72.5" cy="72.5005" r="61.3462" stroke="white" stroke-width="0.576923" stroke-linecap="round" stroke-dasharray="2.31 4.62"/>
<line x1="117.986" y1="128.467" x2="103.969" y2="111.113" stroke="white" stroke-width="0.629058"/>
<line x1="115.536" y1="14.1559" x2="102.249" y2="32.0749" stroke="white" stroke-width="0.61206"/>
</svg>
