<svg width="176" height="52" viewBox="0 0 176 52" fill="none" xmlns="http://www.w3.org/2000/svg">
<line y1="-0.439175" x2="12.0305" y2="-0.439175" transform="matrix(0.837701 -0.546129 0.837701 0.546129 152.128 40.4873)" stroke="white" stroke-opacity="0.5" stroke-width="0.878351"/>
<line y1="-0.439175" x2="12.0305" y2="-0.439175" transform="matrix(0.837701 -0.546129 0.837701 0.546129 149.246 40.4873)" stroke="white" stroke-opacity="0.5" stroke-width="0.878351"/>
<line y1="-0.439175" x2="12.0305" y2="-0.439175" transform="matrix(0.837701 -0.546129 0.837701 0.546129 146.371 40.4873)" stroke="white" stroke-opacity="0.5" stroke-width="0.878351"/>
<line y1="-0.439175" x2="12.0305" y2="-0.439175" transform="matrix(0.837701 -0.546129 0.837701 0.546129 143.497 40.4873)" stroke="white" stroke-opacity="0.5" stroke-width="0.878351"/>
<line y1="-0.439175" x2="12.0305" y2="-0.439175" transform="matrix(0.837701 -0.546129 0.837701 0.546129 140.622 40.4873)" stroke="white" stroke-opacity="0.5" stroke-width="0.878351"/>
<line y1="-0.439175" x2="12.0305" y2="-0.439175" transform="matrix(0.837701 -0.546129 0.837701 0.546129 137.747 40.4873)" stroke="white" stroke-opacity="0.5" stroke-width="0.878351"/>
<line y1="-0.439175" x2="12.0305" y2="-0.439175" transform="matrix(0.837701 -0.546129 0.837701 0.546129 134.857 40.4873)" stroke="white" stroke-opacity="0.5" stroke-width="0.878351"/>
<line y1="-0.439175" x2="12.0305" y2="-0.439175" transform="matrix(0.837701 -0.546129 0.837701 0.546129 131.968 40.4873)" stroke="white" stroke-opacity="0.5" stroke-width="0.878351"/>
<line y1="-0.439175" x2="12.0305" y2="-0.439175" transform="matrix(0.837701 -0.546129 0.837701 0.546129 129.093 40.4873)" stroke="white" stroke-opacity="0.5" stroke-width="0.878351"/>
<line y1="-0.439175" x2="12.0305" y2="-0.439175" transform="matrix(0.837701 -0.546129 0.837701 0.546129 126.203 40.4873)" stroke="white" stroke-opacity="0.5" stroke-width="0.878351"/>
<line y1="-0.439175" x2="12.0305" y2="-0.439175" transform="matrix(0.837701 -0.546129 0.837701 0.546129 123.336 40.4873)" stroke="white" stroke-opacity="0.5" stroke-width="0.878351"/>
<line y1="-0.439175" x2="12.0305" y2="-0.439175" transform="matrix(0.837701 -0.546129 0.837701 0.546129 120.461 40.4873)" stroke="white" stroke-opacity="0.5" stroke-width="0.878351"/>
<line y1="-0.439175" x2="12.0305" y2="-0.439175" transform="matrix(0.837701 -0.546129 0.837701 0.546129 117.587 40.4873)" stroke="white" stroke-opacity="0.5" stroke-width="0.878351"/>
<line y1="-0.439175" x2="12.0305" y2="-0.439175" transform="matrix(0.837701 -0.546129 0.837701 0.546129 114.705 40.4873)" stroke="white" stroke-opacity="0.5" stroke-width="0.878351"/>
<line y1="-0.439175" x2="12.0305" y2="-0.439175" transform="matrix(0.837701 -0.546129 0.837701 0.546129 111.808 40.4873)" stroke="white" stroke-opacity="0.5" stroke-width="0.878351"/>
<line y1="-0.439175" x2="12.0305" y2="-0.439175" transform="matrix(0.837701 -0.546129 0.837701 0.546129 108.918 40.4873)" stroke="white" stroke-opacity="0.5" stroke-width="0.878351"/>
<line y1="-0.439175" x2="12.0305" y2="-0.439175" transform="matrix(0.837701 -0.546129 0.837701 0.546129 94.5371 40.4873)" stroke="white" stroke-opacity="0.5" stroke-width="0.878351"/>
<line y1="-0.439175" x2="12.0305" y2="-0.439175" transform="matrix(0.837701 -0.546129 0.837701 0.546129 91.6553 40.4873)" stroke="white" stroke-opacity="0.5" stroke-width="0.878351"/>
<line y1="-0.439175" x2="12.0305" y2="-0.439175" transform="matrix(0.837701 -0.546129 0.837701 0.546129 88.7803 40.4873)" stroke="white" stroke-opacity="0.5" stroke-width="0.878351"/>
<line y1="-0.439175" x2="12.0305" y2="-0.439175" transform="matrix(0.837701 -0.546129 0.837701 0.546129 85.8984 40.4873)" stroke="white" stroke-opacity="0.5" stroke-width="0.878351"/>
<line y1="-0.439175" x2="12.0305" y2="-0.439175" transform="matrix(0.837701 -0.546129 0.837701 0.546129 83.0239 40.4873)" stroke="white" stroke-opacity="0.5" stroke-width="0.878351"/>
<line y1="-0.439175" x2="12.0305" y2="-0.439175" transform="matrix(0.837701 -0.546129 0.837701 0.546129 80.1343 40.4873)" stroke="white" stroke-opacity="0.5" stroke-width="0.878351"/>
<line y1="-0.439175" x2="12.0305" y2="-0.439175" transform="matrix(0.837701 -0.546129 0.837701 0.546129 77.2593 40.4873)" stroke="white" stroke-opacity="0.5" stroke-width="0.878351"/>
<line y1="-0.439175" x2="12.0305" y2="-0.439175" transform="matrix(0.837701 -0.546129 0.837701 0.546129 106.051 40.4873)" stroke="white" stroke-opacity="0.5" stroke-width="0.878351"/>
<line y1="-0.439175" x2="12.0305" y2="-0.439175" transform="matrix(0.837701 -0.546129 0.837701 0.546129 103.184 40.4873)" stroke="white" stroke-opacity="0.5" stroke-width="0.878351"/>
<line y1="-0.439175" x2="12.0305" y2="-0.439175" transform="matrix(0.837701 -0.546129 0.837701 0.546129 100.301 40.4873)" stroke="white" stroke-opacity="0.5" stroke-width="0.878351"/>
<line y1="-0.439175" x2="12.0305" y2="-0.439175" transform="matrix(0.837701 -0.546129 0.837701 0.546129 97.4194 40.4873)" stroke="white" stroke-opacity="0.5" stroke-width="0.878351"/>
<line y1="-0.439175" x2="12.0305" y2="-0.439175" transform="matrix(0.837701 -0.546129 0.837701 0.546129 62.856 40.4873)" stroke="white" stroke-opacity="0.5" stroke-width="0.878351"/>
<line y1="-0.439175" x2="12.0305" y2="-0.439175" transform="matrix(0.837701 -0.546129 0.837701 0.546129 59.9814 40.4873)" stroke="white" stroke-opacity="0.5" stroke-width="0.878351"/>
<line y1="-0.439175" x2="12.0305" y2="-0.439175" transform="matrix(0.837701 -0.546129 0.837701 0.546129 57.1069 40.4873)" stroke="white" stroke-opacity="0.5" stroke-width="0.878351"/>
<line y1="-0.439175" x2="12.0305" y2="-0.439175" transform="matrix(0.837701 -0.546129 0.837701 0.546129 54.2251 40.4873)" stroke="white" stroke-opacity="0.5" stroke-width="0.878351"/>
<line y1="-0.439175" x2="12.0305" y2="-0.439175" transform="matrix(0.837701 -0.546129 0.837701 0.546129 51.3428 40.4873)" stroke="white" stroke-opacity="0.5" stroke-width="0.878351"/>
<line y1="-0.439175" x2="12.0305" y2="-0.439175" transform="matrix(0.837701 -0.546129 0.837701 0.546129 48.4756 40.4873)" stroke="white" stroke-opacity="0.5" stroke-width="0.878351"/>
<line y1="-0.439175" x2="12.0305" y2="-0.439175" transform="matrix(0.837701 -0.546129 0.837701 0.546129 45.5859 40.4873)" stroke="white" stroke-opacity="0.5" stroke-width="0.878351"/>
<line y1="-0.439175" x2="12.0305" y2="-0.439175" transform="matrix(0.837701 -0.546129 0.837701 0.546129 74.3926 40.4873)" stroke="white" stroke-opacity="0.5" stroke-width="0.878351"/>
<line y1="-0.439175" x2="12.0305" y2="-0.439175" transform="matrix(0.837701 -0.546129 0.837701 0.546129 71.5103 40.4873)" stroke="white" stroke-opacity="0.5" stroke-width="0.878351"/>
<line y1="-0.439175" x2="12.0305" y2="-0.439175" transform="matrix(0.837701 -0.546129 0.837701 0.546129 68.6279 40.4873)" stroke="white" stroke-opacity="0.5" stroke-width="0.878351"/>
<line y1="-0.439175" x2="12.0305" y2="-0.439175" transform="matrix(0.837701 -0.546129 0.837701 0.546129 65.7383 40.4873)" stroke="white" stroke-opacity="0.5" stroke-width="0.878351"/>
<line y1="-0.439175" x2="12.0305" y2="-0.439175" transform="matrix(0.837701 -0.546129 0.837701 0.546129 31.1826 40.4873)" stroke="white" stroke-opacity="0.5" stroke-width="0.878351"/>
<line y1="-0.439175" x2="12.0305" y2="-0.439175" transform="matrix(0.837701 -0.546129 0.837701 0.546129 28.3003 40.4873)" stroke="white" stroke-opacity="0.5" stroke-width="0.878351"/>
<line y1="-0.439175" x2="12.0305" y2="-0.439175" transform="matrix(0.837701 -0.546129 0.837701 0.546129 25.4331 40.4873)" stroke="white" stroke-opacity="0.5" stroke-width="0.878351"/>
<line y1="-0.439175" x2="12.0305" y2="-0.439175" transform="matrix(0.837701 -0.546129 0.837701 0.546129 22.5439 40.4873)" stroke="white" stroke-opacity="0.5" stroke-width="0.878351"/>
<line y1="-0.439175" x2="12.0305" y2="-0.439175" transform="matrix(0.837701 -0.546129 0.837701 0.546129 42.7041 40.4873)" stroke="white" stroke-opacity="0.5" stroke-width="0.878351"/>
<line y1="-0.439175" x2="12.0305" y2="-0.439175" transform="matrix(0.837701 -0.546129 0.837701 0.546129 39.8213 40.4873)" stroke="white" stroke-opacity="0.5" stroke-width="0.878351"/>
<line y1="-0.439175" x2="12.0305" y2="-0.439175" transform="matrix(0.837701 -0.546129 0.837701 0.546129 36.9468 40.4873)" stroke="white" stroke-opacity="0.5" stroke-width="0.878351"/>
<line y1="-0.439175" x2="12.0305" y2="-0.439175" transform="matrix(0.837701 -0.546129 0.837701 0.546129 34.0649 40.4873)" stroke="white" stroke-opacity="0.5" stroke-width="0.878351"/>
<g filter="url(#filter0_d_333_753)">
<path d="M164.243 33.9746L27.7784 33.9746L19.1218 39.9205" stroke="#009EFE" stroke-width="1.09794"/>
</g>
<path d="M169 11.2703L153.078 1H16.3726L1 11.2703V30.7297L16.9216 41H153.078L169 30.7297V20.4595V11.2703Z" fill="url(#paint0_linear_333_753)" stroke="#009EFE" stroke-width="1.09794"/>
<defs>
<filter id="filter0_d_333_753" x="7.83165" y="22.4463" width="167.391" height="28.9062" filterUnits="userSpaceOnUse" color-interpolation-filters="sRGB">
<feFlood flood-opacity="0" result="BackgroundImageFix"/>
<feColorMatrix in="SourceAlpha" type="matrix" values="0 0 0 0 0 0 0 0 0 0 0 0 0 0 0 0 0 0 127 0" result="hardAlpha"/>
<feOffset/>
<feGaussianBlur stdDeviation="5.48969"/>
<feComposite in2="hardAlpha" operator="out"/>
<feColorMatrix type="matrix" values="0 0 0 0 0.00784314 0 0 0 0 0.331843 0 0 0 0 0.960784 0 0 0 1 0"/>
<feBlend mode="normal" in2="BackgroundImageFix" result="effect1_dropShadow_333_753"/>
<feBlend mode="normal" in="SourceGraphic" in2="effect1_dropShadow_333_753" result="shape"/>
</filter>
<linearGradient id="paint0_linear_333_753" x1="85" y1="1" x2="85" y2="41" gradientUnits="userSpaceOnUse">
<stop stop-color="#0057A7" stop-opacity="0.61"/>
<stop offset="1" stop-color="#0057A7" stop-opacity="0"/>
</linearGradient>
</defs>
</svg>
