<svg width="176" height="52" viewBox="0 0 176 52" fill="none" xmlns="http://www.w3.org/2000/svg">
<line y1="-0.439175" x2="12.0305" y2="-0.439175" transform="matrix(0.837701 -0.546129 0.837701 0.546129 152.121 40.4868)" stroke="white" stroke-opacity="0.5" stroke-width="0.878351"/>
<line y1="-0.439175" x2="12.0305" y2="-0.439175" transform="matrix(0.837701 -0.546129 0.837701 0.546129 149.239 40.4868)" stroke="white" stroke-opacity="0.5" stroke-width="0.878351"/>
<line y1="-0.439175" x2="12.0305" y2="-0.439175" transform="matrix(0.837701 -0.546129 0.837701 0.546129 146.364 40.4868)" stroke="white" stroke-opacity="0.5" stroke-width="0.878351"/>
<line y1="-0.439175" x2="12.0305" y2="-0.439175" transform="matrix(0.837701 -0.546129 0.837701 0.546129 143.49 40.4868)" stroke="white" stroke-opacity="0.5" stroke-width="0.878351"/>
<line y1="-0.439175" x2="12.0305" y2="-0.439175" transform="matrix(0.837701 -0.546129 0.837701 0.546129 140.615 40.4868)" stroke="white" stroke-opacity="0.5" stroke-width="0.878351"/>
<line y1="-0.439175" x2="12.0305" y2="-0.439175" transform="matrix(0.837701 -0.546129 0.837701 0.546129 137.74 40.4868)" stroke="white" stroke-opacity="0.5" stroke-width="0.878351"/>
<line y1="-0.439175" x2="12.0305" y2="-0.439175" transform="matrix(0.837701 -0.546129 0.837701 0.546129 134.851 40.4868)" stroke="white" stroke-opacity="0.5" stroke-width="0.878351"/>
<line y1="-0.439175" x2="12.0305" y2="-0.439175" transform="matrix(0.837701 -0.546129 0.837701 0.546129 131.961 40.4868)" stroke="white" stroke-opacity="0.5" stroke-width="0.878351"/>
<line y1="-0.439175" x2="12.0305" y2="-0.439175" transform="matrix(0.837701 -0.546129 0.837701 0.546129 129.086 40.4868)" stroke="white" stroke-opacity="0.5" stroke-width="0.878351"/>
<line y1="-0.439175" x2="12.0305" y2="-0.439175" transform="matrix(0.837701 -0.546129 0.837701 0.546129 126.196 40.4868)" stroke="white" stroke-opacity="0.5" stroke-width="0.878351"/>
<line y1="-0.439175" x2="12.0305" y2="-0.439175" transform="matrix(0.837701 -0.546129 0.837701 0.546129 123.33 40.4868)" stroke="white" stroke-opacity="0.5" stroke-width="0.878351"/>
<line y1="-0.439175" x2="12.0305" y2="-0.439175" transform="matrix(0.837701 -0.546129 0.837701 0.546129 120.455 40.4868)" stroke="white" stroke-opacity="0.5" stroke-width="0.878351"/>
<line y1="-0.439175" x2="12.0305" y2="-0.439175" transform="matrix(0.837701 -0.546129 0.837701 0.546129 117.581 40.4868)" stroke="white" stroke-opacity="0.5" stroke-width="0.878351"/>
<line y1="-0.439175" x2="12.0305" y2="-0.439175" transform="matrix(0.837701 -0.546129 0.837701 0.546129 114.698 40.4868)" stroke="white" stroke-opacity="0.5" stroke-width="0.878351"/>
<line y1="-0.439175" x2="12.0305" y2="-0.439175" transform="matrix(0.837701 -0.546129 0.837701 0.546129 111.801 40.4868)" stroke="white" stroke-opacity="0.5" stroke-width="0.878351"/>
<line y1="-0.439175" x2="12.0305" y2="-0.439175" transform="matrix(0.837701 -0.546129 0.837701 0.546129 108.911 40.4868)" stroke="white" stroke-opacity="0.5" stroke-width="0.878351"/>
<line y1="-0.439175" x2="12.0305" y2="-0.439175" transform="matrix(0.837701 -0.546129 0.837701 0.546129 94.5303 40.4868)" stroke="white" stroke-opacity="0.5" stroke-width="0.878351"/>
<line y1="-0.439175" x2="12.0305" y2="-0.439175" transform="matrix(0.837701 -0.546129 0.837701 0.546129 91.6484 40.4868)" stroke="white" stroke-opacity="0.5" stroke-width="0.878351"/>
<line y1="-0.439175" x2="12.0305" y2="-0.439175" transform="matrix(0.837701 -0.546129 0.837701 0.546129 88.7734 40.4868)" stroke="white" stroke-opacity="0.5" stroke-width="0.878351"/>
<line y1="-0.439175" x2="12.0305" y2="-0.439175" transform="matrix(0.837701 -0.546129 0.837701 0.546129 85.8916 40.4868)" stroke="white" stroke-opacity="0.5" stroke-width="0.878351"/>
<line y1="-0.439175" x2="12.0305" y2="-0.439175" transform="matrix(0.837701 -0.546129 0.837701 0.546129 83.0171 40.4868)" stroke="white" stroke-opacity="0.5" stroke-width="0.878351"/>
<line y1="-0.439175" x2="12.0305" y2="-0.439175" transform="matrix(0.837701 -0.546129 0.837701 0.546129 80.1274 40.4868)" stroke="white" stroke-opacity="0.5" stroke-width="0.878351"/>
<line y1="-0.439175" x2="12.0305" y2="-0.439175" transform="matrix(0.837701 -0.546129 0.837701 0.546129 77.2524 40.4868)" stroke="white" stroke-opacity="0.5" stroke-width="0.878351"/>
<line y1="-0.439175" x2="12.0305" y2="-0.439175" transform="matrix(0.837701 -0.546129 0.837701 0.546129 106.044 40.4868)" stroke="white" stroke-opacity="0.5" stroke-width="0.878351"/>
<line y1="-0.439175" x2="12.0305" y2="-0.439175" transform="matrix(0.837701 -0.546129 0.837701 0.546129 103.177 40.4868)" stroke="white" stroke-opacity="0.5" stroke-width="0.878351"/>
<line y1="-0.439175" x2="12.0305" y2="-0.439175" transform="matrix(0.837701 -0.546129 0.837701 0.546129 100.294 40.4868)" stroke="white" stroke-opacity="0.5" stroke-width="0.878351"/>
<line y1="-0.439175" x2="12.0305" y2="-0.439175" transform="matrix(0.837701 -0.546129 0.837701 0.546129 97.4126 40.4868)" stroke="white" stroke-opacity="0.5" stroke-width="0.878351"/>
<line y1="-0.439175" x2="12.0305" y2="-0.439175" transform="matrix(0.837701 -0.546129 0.837701 0.546129 62.8491 40.4868)" stroke="white" stroke-opacity="0.5" stroke-width="0.878351"/>
<line y1="-0.439175" x2="12.0305" y2="-0.439175" transform="matrix(0.837701 -0.546129 0.837701 0.546129 59.9746 40.4868)" stroke="white" stroke-opacity="0.5" stroke-width="0.878351"/>
<line y1="-0.439175" x2="12.0305" y2="-0.439175" transform="matrix(0.837701 -0.546129 0.837701 0.546129 57.1001 40.4868)" stroke="white" stroke-opacity="0.5" stroke-width="0.878351"/>
<line y1="-0.439175" x2="12.0305" y2="-0.439175" transform="matrix(0.837701 -0.546129 0.837701 0.546129 54.2183 40.4868)" stroke="white" stroke-opacity="0.5" stroke-width="0.878351"/>
<line y1="-0.439175" x2="12.0305" y2="-0.439175" transform="matrix(0.837701 -0.546129 0.837701 0.546129 51.3359 40.4868)" stroke="white" stroke-opacity="0.5" stroke-width="0.878351"/>
<line y1="-0.439175" x2="12.0305" y2="-0.439175" transform="matrix(0.837701 -0.546129 0.837701 0.546129 48.4688 40.4868)" stroke="white" stroke-opacity="0.5" stroke-width="0.878351"/>
<line y1="-0.439175" x2="12.0305" y2="-0.439175" transform="matrix(0.837701 -0.546129 0.837701 0.546129 45.5791 40.4868)" stroke="white" stroke-opacity="0.5" stroke-width="0.878351"/>
<line y1="-0.439175" x2="12.0305" y2="-0.439175" transform="matrix(0.837701 -0.546129 0.837701 0.546129 74.3857 40.4868)" stroke="white" stroke-opacity="0.5" stroke-width="0.878351"/>
<line y1="-0.439175" x2="12.0305" y2="-0.439175" transform="matrix(0.837701 -0.546129 0.837701 0.546129 71.5034 40.4868)" stroke="white" stroke-opacity="0.5" stroke-width="0.878351"/>
<line y1="-0.439175" x2="12.0305" y2="-0.439175" transform="matrix(0.837701 -0.546129 0.837701 0.546129 68.6211 40.4868)" stroke="white" stroke-opacity="0.5" stroke-width="0.878351"/>
<line y1="-0.439175" x2="12.0305" y2="-0.439175" transform="matrix(0.837701 -0.546129 0.837701 0.546129 65.7314 40.4868)" stroke="white" stroke-opacity="0.5" stroke-width="0.878351"/>
<line y1="-0.439175" x2="12.0305" y2="-0.439175" transform="matrix(0.837701 -0.546129 0.837701 0.546129 31.1758 40.4868)" stroke="white" stroke-opacity="0.5" stroke-width="0.878351"/>
<line y1="-0.439175" x2="12.0305" y2="-0.439175" transform="matrix(0.837701 -0.546129 0.837701 0.546129 28.2935 40.4868)" stroke="white" stroke-opacity="0.5" stroke-width="0.878351"/>
<line y1="-0.439175" x2="12.0305" y2="-0.439175" transform="matrix(0.837701 -0.546129 0.837701 0.546129 25.4263 40.4868)" stroke="white" stroke-opacity="0.5" stroke-width="0.878351"/>
<line y1="-0.439175" x2="12.0305" y2="-0.439175" transform="matrix(0.837701 -0.546129 0.837701 0.546129 22.5371 40.4868)" stroke="white" stroke-opacity="0.5" stroke-width="0.878351"/>
<line y1="-0.439175" x2="12.0305" y2="-0.439175" transform="matrix(0.837701 -0.546129 0.837701 0.546129 42.6973 40.4868)" stroke="white" stroke-opacity="0.5" stroke-width="0.878351"/>
<line y1="-0.439175" x2="12.0305" y2="-0.439175" transform="matrix(0.837701 -0.546129 0.837701 0.546129 39.8145 40.4868)" stroke="white" stroke-opacity="0.5" stroke-width="0.878351"/>
<line y1="-0.439175" x2="12.0305" y2="-0.439175" transform="matrix(0.837701 -0.546129 0.837701 0.546129 36.9399 40.4868)" stroke="white" stroke-opacity="0.5" stroke-width="0.878351"/>
<line y1="-0.439175" x2="12.0305" y2="-0.439175" transform="matrix(0.837701 -0.546129 0.837701 0.546129 34.0581 40.4868)" stroke="white" stroke-opacity="0.5" stroke-width="0.878351"/>
<g filter="url(#filter0_d_333_753)">
<path d="M164.236 33.9741L27.7716 33.9741L19.115 39.92" stroke="#009EFE" stroke-width="1.09794"/>
</g>
<path d="M168.993 11.2698L153.072 0.999512H16.3657L0.993164 11.2698V30.7292L16.9147 40.9995H153.072L168.993 30.7292V20.459V11.2698Z" fill="url(#paint0_linear_333_753)" stroke="#009EFE" stroke-width="1.09794"/>
<defs>
<filter id="filter0_d_333_753" x="7.82482" y="22.4458" width="167.391" height="28.9062" filterUnits="userSpaceOnUse" color-interpolation-filters="sRGB">
<feFlood flood-opacity="0" result="BackgroundImageFix"/>
<feColorMatrix in="SourceAlpha" type="matrix" values="0 0 0 0 0 0 0 0 0 0 0 0 0 0 0 0 0 0 127 0" result="hardAlpha"/>
<feOffset/>
<feGaussianBlur stdDeviation="5.48969"/>
<feComposite in2="hardAlpha" operator="out"/>
<feColorMatrix type="matrix" values="0 0 0 0 0.00784314 0 0 0 0 0.331843 0 0 0 0 0.960784 0 0 0 1 0"/>
<feBlend mode="normal" in2="BackgroundImageFix" result="effect1_dropShadow_333_753"/>
<feBlend mode="normal" in="SourceGraphic" in2="effect1_dropShadow_333_753" result="shape"/>
</filter>
<linearGradient id="paint0_linear_333_753" x1="84.9932" y1="0.999512" x2="84.9932" y2="40.9995" gradientUnits="userSpaceOnUse">
<stop stop-color="#0057A7" stop-opacity="0.61"/>
<stop offset="1" stop-color="#0057A7" stop-opacity="0"/>
</linearGradient>
</defs>
</svg>
