<svg width="170" height="43" viewBox="0 0 170 43" fill="none" xmlns="http://www.w3.org/2000/svg">
<line y1="-0.439175" x2="12.0868" y2="-0.439175" transform="matrix(0.833779 -0.552098 0.833779 0.552098 152.106 41.1026)" stroke="white" stroke-opacity="0.5" stroke-width="0.878351"/>
<line y1="-0.439175" x2="12.0868" y2="-0.439175" transform="matrix(0.833779 -0.552098 0.833779 0.552098 149.224 41.1026)" stroke="white" stroke-opacity="0.5" stroke-width="0.878351"/>
<line y1="-0.439175" x2="12.0868" y2="-0.439175" transform="matrix(0.833779 -0.552098 0.833779 0.552098 146.35 41.1026)" stroke="white" stroke-opacity="0.5" stroke-width="0.878351"/>
<line y1="-0.439175" x2="12.0868" y2="-0.439175" transform="matrix(0.833779 -0.552098 0.833779 0.552098 143.476 41.1026)" stroke="white" stroke-opacity="0.5" stroke-width="0.878351"/>
<line y1="-0.439175" x2="12.0868" y2="-0.439175" transform="matrix(0.833779 -0.552098 0.833779 0.552098 140.601 41.1026)" stroke="white" stroke-opacity="0.5" stroke-width="0.878351"/>
<line y1="-0.439175" x2="12.0868" y2="-0.439175" transform="matrix(0.833779 -0.552098 0.833779 0.552098 137.727 41.1026)" stroke="white" stroke-opacity="0.5" stroke-width="0.878351"/>
<line y1="-0.439175" x2="12.0868" y2="-0.439175" transform="matrix(0.833779 -0.552098 0.833779 0.552098 134.837 41.1026)" stroke="white" stroke-opacity="0.5" stroke-width="0.878351"/>
<line y1="-0.439175" x2="12.0868" y2="-0.439175" transform="matrix(0.833779 -0.552098 0.833779 0.552098 131.948 41.1026)" stroke="white" stroke-opacity="0.5" stroke-width="0.878351"/>
<line y1="-0.439175" x2="12.0868" y2="-0.439175" transform="matrix(0.833779 -0.552098 0.833779 0.552098 129.074 41.1026)" stroke="white" stroke-opacity="0.5" stroke-width="0.878351"/>
<line y1="-0.439175" x2="12.0868" y2="-0.439175" transform="matrix(0.833779 -0.552098 0.833779 0.552098 126.184 41.1026)" stroke="white" stroke-opacity="0.5" stroke-width="0.878351"/>
<line y1="-0.439175" x2="12.0868" y2="-0.439175" transform="matrix(0.833779 -0.552098 0.833779 0.552098 123.317 41.1026)" stroke="white" stroke-opacity="0.5" stroke-width="0.878351"/>
<line y1="-0.439175" x2="12.0868" y2="-0.439175" transform="matrix(0.833779 -0.552098 0.833779 0.552098 120.443 41.1026)" stroke="white" stroke-opacity="0.5" stroke-width="0.878351"/>
<line y1="-0.439175" x2="12.0868" y2="-0.439175" transform="matrix(0.833779 -0.552098 0.833779 0.552098 117.569 41.1026)" stroke="white" stroke-opacity="0.5" stroke-width="0.878351"/>
<line y1="-0.439175" x2="12.0868" y2="-0.439175" transform="matrix(0.833779 -0.552098 0.833779 0.552098 114.687 41.1026)" stroke="white" stroke-opacity="0.5" stroke-width="0.878351"/>
<line y1="-0.439175" x2="12.0868" y2="-0.439175" transform="matrix(0.833779 -0.552098 0.833779 0.552098 111.79 41.1026)" stroke="white" stroke-opacity="0.5" stroke-width="0.878351"/>
<line y1="-0.439175" x2="12.0868" y2="-0.439175" transform="matrix(0.833779 -0.552098 0.833779 0.552098 108.9 41.1026)" stroke="white" stroke-opacity="0.5" stroke-width="0.878351"/>
<line y1="-0.439175" x2="12.0868" y2="-0.439175" transform="matrix(0.833779 -0.552098 0.833779 0.552098 94.521 41.1026)" stroke="white" stroke-opacity="0.5" stroke-width="0.878351"/>
<line y1="-0.439175" x2="12.0868" y2="-0.439175" transform="matrix(0.833779 -0.552098 0.833779 0.552098 91.6392 41.1026)" stroke="white" stroke-opacity="0.5" stroke-width="0.878351"/>
<line y1="-0.439175" x2="12.0868" y2="-0.439175" transform="matrix(0.833779 -0.552098 0.833779 0.552098 88.7649 41.1026)" stroke="white" stroke-opacity="0.5" stroke-width="0.878351"/>
<line y1="-0.439175" x2="12.0868" y2="-0.439175" transform="matrix(0.833779 -0.552098 0.833779 0.552098 85.8831 41.1026)" stroke="white" stroke-opacity="0.5" stroke-width="0.878351"/>
<line y1="-0.439175" x2="12.0868" y2="-0.439175" transform="matrix(0.833779 -0.552098 0.833779 0.552098 83.0085 41.1026)" stroke="white" stroke-opacity="0.5" stroke-width="0.878351"/>
<line y1="-0.439175" x2="12.0868" y2="-0.439175" transform="matrix(0.833779 -0.552098 0.833779 0.552098 80.1191 41.1026)" stroke="white" stroke-opacity="0.5" stroke-width="0.878351"/>
<line y1="-0.439175" x2="12.0868" y2="-0.439175" transform="matrix(0.833779 -0.552098 0.833779 0.552098 77.2449 41.1026)" stroke="white" stroke-opacity="0.5" stroke-width="0.878351"/>
<line y1="-0.439175" x2="12.0868" y2="-0.439175" transform="matrix(0.833779 -0.552098 0.833779 0.552098 106.034 41.1026)" stroke="white" stroke-opacity="0.5" stroke-width="0.878351"/>
<line y1="-0.439175" x2="12.0868" y2="-0.439175" transform="matrix(0.833779 -0.552098 0.833779 0.552098 103.167 41.1026)" stroke="white" stroke-opacity="0.5" stroke-width="0.878351"/>
<line y1="-0.439175" x2="12.0868" y2="-0.439175" transform="matrix(0.833779 -0.552098 0.833779 0.552098 100.285 41.1026)" stroke="white" stroke-opacity="0.5" stroke-width="0.878351"/>
<line y1="-0.439175" x2="12.0868" y2="-0.439175" transform="matrix(0.833779 -0.552098 0.833779 0.552098 97.4031 41.1026)" stroke="white" stroke-opacity="0.5" stroke-width="0.878351"/>
<line y1="-0.439175" x2="12.0868" y2="-0.439175" transform="matrix(0.833779 -0.552098 0.833779 0.552098 62.8428 41.1026)" stroke="white" stroke-opacity="0.5" stroke-width="0.878351"/>
<line y1="-0.439175" x2="12.0868" y2="-0.439175" transform="matrix(0.833779 -0.552098 0.833779 0.552098 59.9685 41.1026)" stroke="white" stroke-opacity="0.5" stroke-width="0.878351"/>
<line y1="-0.439175" x2="12.0868" y2="-0.439175" transform="matrix(0.833779 -0.552098 0.833779 0.552098 57.094 41.1026)" stroke="white" stroke-opacity="0.5" stroke-width="0.878351"/>
<line y1="-0.439175" x2="12.0868" y2="-0.439175" transform="matrix(0.833779 -0.552098 0.833779 0.552098 54.2122 41.1026)" stroke="white" stroke-opacity="0.5" stroke-width="0.878351"/>
<line y1="-0.439175" x2="12.0868" y2="-0.439175" transform="matrix(0.833779 -0.552098 0.833779 0.552098 51.3303 41.1026)" stroke="white" stroke-opacity="0.5" stroke-width="0.878351"/>
<line y1="-0.439175" x2="12.0868" y2="-0.439175" transform="matrix(0.833779 -0.552098 0.833779 0.552098 48.4634 41.1026)" stroke="white" stroke-opacity="0.5" stroke-width="0.878351"/>
<line y1="-0.439175" x2="12.0868" y2="-0.439175" transform="matrix(0.833779 -0.552098 0.833779 0.552098 45.574 41.1026)" stroke="white" stroke-opacity="0.5" stroke-width="0.878351"/>
<line y1="-0.439175" x2="12.0868" y2="-0.439175" transform="matrix(0.833779 -0.552098 0.833779 0.552098 74.3779 41.1026)" stroke="white" stroke-opacity="0.5" stroke-width="0.878351"/>
<line y1="-0.439175" x2="12.0868" y2="-0.439175" transform="matrix(0.833779 -0.552098 0.833779 0.552098 71.4961 41.1026)" stroke="white" stroke-opacity="0.5" stroke-width="0.878351"/>
<line y1="-0.439175" x2="12.0868" y2="-0.439175" transform="matrix(0.833779 -0.552098 0.833779 0.552098 68.6143 41.1026)" stroke="white" stroke-opacity="0.5" stroke-width="0.878351"/>
<line y1="-0.439175" x2="12.0868" y2="-0.439175" transform="matrix(0.833779 -0.552098 0.833779 0.552098 65.7249 41.1026)" stroke="white" stroke-opacity="0.5" stroke-width="0.878351"/>
<line y1="-0.439175" x2="12.0868" y2="-0.439175" transform="matrix(0.833779 -0.552098 0.833779 0.552098 31.1721 41.1026)" stroke="white" stroke-opacity="0.5" stroke-width="0.878351"/>
<line y1="-0.439175" x2="12.0868" y2="-0.439175" transform="matrix(0.833779 -0.552098 0.833779 0.552098 28.2903 41.1026)" stroke="white" stroke-opacity="0.5" stroke-width="0.878351"/>
<line y1="-0.439175" x2="12.0868" y2="-0.439175" transform="matrix(0.833779 -0.552098 0.833779 0.552098 25.4233 41.1026)" stroke="white" stroke-opacity="0.5" stroke-width="0.878351"/>
<line y1="-0.439175" x2="12.0868" y2="-0.439175" transform="matrix(0.833779 -0.552098 0.833779 0.552098 22.5339 41.1026)" stroke="white" stroke-opacity="0.5" stroke-width="0.878351"/>
<line y1="-0.439175" x2="12.0868" y2="-0.439175" transform="matrix(0.833779 -0.552098 0.833779 0.552098 42.6921 41.1026)" stroke="white" stroke-opacity="0.5" stroke-width="0.878351"/>
<line y1="-0.439175" x2="12.0868" y2="-0.439175" transform="matrix(0.833779 -0.552098 0.833779 0.552098 39.8103 41.1026)" stroke="white" stroke-opacity="0.5" stroke-width="0.878351"/>
<line y1="-0.439175" x2="12.0868" y2="-0.439175" transform="matrix(0.833779 -0.552098 0.833779 0.552098 36.936 41.1026)" stroke="white" stroke-opacity="0.5" stroke-width="0.878351"/>
<line y1="-0.439175" x2="12.0868" y2="-0.439175" transform="matrix(0.833779 -0.552098 0.833779 0.552098 34.054 41.1026)" stroke="white" stroke-opacity="0.5" stroke-width="0.878351"/>
<path d="M165.5 33L31 33L17.5 41.5" stroke="#009EFE" stroke-width="1.09794"/>
<path d="M168.977 11.43L153.057 0.999557H16.3641L0.99292 11.43V31.1929L16.913 41.6233H153.057L168.977 31.1929V20.7624V11.43Z" fill="url(#paint0_linear_360_152)" stroke="#009EFE" stroke-width="1.09794"/>
<defs>
<linearGradient id="paint0_linear_360_152" x1="84.9852" y1="0.999557" x2="84.9852" y2="41.6233" gradientUnits="userSpaceOnUse">
<stop stop-color="#0057A7" stop-opacity="0.61"/>
<stop offset="1" stop-color="#0057A7" stop-opacity="0"/>
</linearGradient>
</defs>
</svg>
