<svg width="1442" height="1024" viewBox="0 0 1442 1024" fill="none" xmlns="http://www.w3.org/2000/svg">
<g filter="url(#filter0_bi_314_4)">
<path d="M4.00012 0L1438 0C1440.21 0 1442 1.79086 1442 4V1020C1442 1022.21 1440.21 1024 1438 1024H4.00012C1.79089 1024 0.00012207 1022.21 0.00012207 1020V4C0.00012207 1.79086 1.79089 0 4.00012 0Z" fill="url(#paint0_linear_314_4)" fill-opacity="0.2" style="mix-blend-mode:overlay"/>
<path d="M4.00012 1L1438 1C1439.66 1 1441 2.34315 1441 4V1020C1441 1021.66 1439.66 1023 1438 1023H4.00012C2.34314 1023 1.00012 1021.66 1.00012 1020V4C1.00012 2.34313 2.34314 1 4.00012 1Z" stroke="url(#paint1_linear_314_4)" stroke-opacity="0.5" stroke-width="2"/>
</g>
<defs>
<filter id="filter0_bi_314_4" x="-42" y="-42" width="1526" height="1108" filterUnits="userSpaceOnUse" color-interpolation-filters="sRGB">
<feFlood flood-opacity="0" result="BackgroundImageFix"/>
<feGaussianBlur in="BackgroundImage" stdDeviation="21"/>
<feComposite in2="SourceAlpha" operator="in" result="effect1_backgroundBlur_314_4"/>
<feBlend mode="normal" in="SourceGraphic" in2="effect1_backgroundBlur_314_4" result="shape"/>
<feColorMatrix in="SourceAlpha" type="matrix" values="0 0 0 0 0 0 0 0 0 0 0 0 0 0 0 0 0 0 127 0" result="hardAlpha"/>
<feMorphology radius="1" operator="erode" in="SourceAlpha" result="effect2_innerShadow_314_4"/>
<feOffset dx="-2"/>
<feComposite in2="hardAlpha" operator="arithmetic" k2="-1" k3="1"/>
<feColorMatrix type="matrix" values="0 0 0 0 0.192157 0 0 0 0 0.831373 0 0 0 0 0.972549 0 0 0 0.07 0"/>
<feBlend mode="normal" in2="shape" result="effect2_innerShadow_314_4"/>
</filter>
<linearGradient id="paint0_linear_314_4" x1="1640.16" y1="513.712" x2="-148.02" y2="513.712" gradientUnits="userSpaceOnUse">
<stop stop-color="white" stop-opacity="0.15"/>
<stop offset="0.0001" stop-color="white" stop-opacity="0.15"/>
<stop offset="1" stop-color="white" stop-opacity="0.15"/>
</linearGradient>
<linearGradient id="paint1_linear_314_4" x1="-139.606" y1="554.539" x2="1406.93" y2="554.539" gradientUnits="userSpaceOnUse">
<stop stop-color="#2CBDE1"/>
<stop offset="1" stop-color="#2CBDE1"/>
</linearGradient>
</defs>
</svg>
