<svg width="538" height="416" viewBox="0 0 538 416" fill="none" xmlns="http://www.w3.org/2000/svg">
<g opacity="0.2" filter="url(#filter0_f_5_139)">
<path d="M377.5 397L523 15H264H15L154 397H377.5Z" fill="url(#paint0_linear_5_139)"/>
</g>
<g opacity="0.2" filter="url(#filter1_f_5_139)">
<path d="M329 396L444 39H239.316H94L202 396H329Z" fill="url(#paint1_linear_5_139)"/>
</g>
<g filter="url(#filter2_d_5_139)">
<path d="M166.563 219H140.874C138.109 219 135.595 218.48 133.332 217.441C131.068 216.402 129.129 214.983 127.515 213.183C125.919 211.383 124.685 209.268 123.813 206.837C122.941 204.406 122.505 201.809 122.505 199.044C122.505 196.298 122.941 193.719 123.813 191.307C124.685 188.876 125.919 186.761 127.515 184.961C129.129 183.143 131.068 181.714 133.332 180.675C135.595 179.617 138.109 179.089 140.874 179.089H166.563V184.794H140.874C138.907 184.794 137.135 185.175 135.558 185.935C134 186.677 132.673 187.698 131.578 188.997C130.502 190.277 129.667 191.78 129.073 193.506C128.498 195.231 128.21 197.077 128.21 199.044C128.21 201.011 128.498 202.866 129.073 204.611C129.667 206.336 130.502 207.848 131.578 209.147C132.673 210.427 134 211.439 135.558 212.181C137.135 212.923 138.907 213.294 140.874 213.294H166.563V219ZM205.528 219H172.797V187.55H205.528V193.283H178.559V213.239H205.528V219ZM201.882 206.002H181.258V200.241H201.882V206.002ZM248.779 219H241.014L232.107 210.511H220.557V204.861H236.338C237.136 204.861 237.887 204.703 238.592 204.388C239.297 204.073 239.91 203.655 240.429 203.135C240.949 202.597 241.357 201.976 241.654 201.271C241.951 200.566 242.099 199.823 242.099 199.044C242.099 198.246 241.951 197.504 241.654 196.818C241.357 196.113 240.949 195.5 240.429 194.981C239.91 194.461 239.297 194.053 238.592 193.756C237.887 193.441 237.136 193.283 236.338 193.283H217.579V219H211.874V187.661H236.338C237.915 187.661 239.399 187.967 240.791 188.579C242.183 189.173 243.389 189.99 244.409 191.029C245.448 192.049 246.265 193.255 246.858 194.647C247.452 196.02 247.749 197.486 247.749 199.044C247.749 200.324 247.545 201.558 247.137 202.746C246.729 203.915 246.153 204.991 245.411 205.974C244.688 206.939 243.825 207.774 242.823 208.479C241.821 209.184 240.726 209.704 239.539 210.038L248.779 219ZM287.243 219H254.512V187.55H287.243V193.283H260.273V213.239H287.243V219ZM283.597 206.002H262.973V200.241H283.597V206.002ZM330.716 209.648C330.716 210.947 330.466 212.162 329.965 213.294C329.482 214.426 328.814 215.419 327.961 216.272C327.107 217.107 326.105 217.775 324.955 218.276C323.823 218.759 322.608 219 321.309 219H302.105V213.239H321.309C321.829 213.239 322.311 213.146 322.756 212.96C323.202 212.775 323.582 212.524 323.897 212.209C324.231 211.875 324.491 211.494 324.677 211.068C324.862 210.622 324.955 210.149 324.955 209.648C324.955 209.129 324.862 208.646 324.677 208.201C324.491 207.756 324.231 207.375 323.897 207.06C323.582 206.726 323.202 206.466 322.756 206.281C322.311 206.095 321.829 206.002 321.309 206.002H302.105V200.241H316.633C317.19 200.222 317.709 200.12 318.192 199.935C318.674 199.749 319.092 199.508 319.444 199.211C319.815 198.896 320.103 198.534 320.307 198.126C320.511 197.699 320.613 197.244 320.613 196.762C320.613 196.261 320.521 195.806 320.335 195.398C320.149 194.971 319.89 194.6 319.556 194.285C319.24 193.969 318.86 193.728 318.415 193.561C317.988 193.376 317.524 193.283 317.023 193.283H299.405V219H293.588V187.55H317.023C318.303 187.55 319.509 187.791 320.641 188.273C321.792 188.756 322.784 189.414 323.619 190.249C324.473 191.066 325.141 192.04 325.623 193.172C326.124 194.285 326.375 195.482 326.375 196.762C326.375 197.578 326.263 198.348 326.041 199.072C325.836 199.796 325.549 200.473 325.178 201.104C325.994 201.475 326.736 201.957 327.404 202.551C328.091 203.126 328.675 203.785 329.158 204.527C329.659 205.269 330.039 206.076 330.299 206.948C330.577 207.802 330.716 208.702 330.716 209.648ZM373.522 219H365.757L356.851 210.511H345.3V204.861H361.081C361.879 204.861 362.63 204.703 363.335 204.388C364.041 204.073 364.653 203.655 365.172 203.135C365.692 202.597 366.1 201.976 366.397 201.271C366.694 200.566 366.842 199.823 366.842 199.044C366.842 198.246 366.694 197.504 366.397 196.818C366.1 196.113 365.692 195.5 365.172 194.981C364.653 194.461 364.041 194.053 363.335 193.756C362.63 193.441 361.879 193.283 361.081 193.283H342.322V219H336.617V187.661H361.081C362.658 187.661 364.143 187.967 365.534 188.579C366.926 189.173 368.132 189.99 369.152 191.029C370.191 192.049 371.008 193.255 371.602 194.647C372.195 196.02 372.492 197.486 372.492 199.044C372.492 200.324 372.288 201.558 371.88 202.746C371.472 203.915 370.896 204.991 370.154 205.974C369.431 206.939 368.568 207.774 367.566 208.479C366.564 209.184 365.469 209.704 364.282 210.038L373.522 219ZM416.216 203.275C416.216 205.446 415.873 207.487 415.187 209.398C414.5 211.29 413.517 212.951 412.236 214.38C410.975 215.808 409.453 216.94 407.672 217.775C405.909 218.592 403.942 219 401.771 219H391.863C389.692 219 387.716 218.592 385.935 217.775C384.154 216.94 382.623 215.808 381.343 214.38C380.081 212.951 379.107 211.29 378.42 209.398C377.734 207.487 377.391 205.446 377.391 203.275C377.391 201.122 377.734 199.1 378.42 197.207C379.107 195.315 380.081 193.663 381.343 192.253C382.623 190.824 384.154 189.702 385.935 188.885C387.716 188.069 389.692 187.661 391.863 187.661H401.771C403.942 187.661 405.909 188.069 407.672 188.885C409.453 189.702 410.975 190.824 412.236 192.253C413.517 193.663 414.5 195.315 415.187 197.207C415.873 199.1 416.216 201.122 416.216 203.275ZM410.511 203.275C410.511 201.902 410.307 200.612 409.898 199.406C409.509 198.181 408.934 197.124 408.173 196.233C407.431 195.324 406.521 194.61 405.445 194.09C404.369 193.552 403.145 193.283 401.771 193.283H391.863C390.49 193.283 389.256 193.552 388.162 194.09C387.085 194.61 386.167 195.324 385.406 196.233C384.664 197.124 384.089 198.181 383.681 199.406C383.291 200.612 383.096 201.902 383.096 203.275C383.096 204.648 383.291 205.947 383.681 207.171C384.089 208.377 384.664 209.435 385.406 210.344C386.167 211.253 387.085 211.977 388.162 212.515C389.256 213.034 390.49 213.294 391.863 213.294H401.771C403.145 213.294 404.369 213.034 405.445 212.515C406.521 211.977 407.431 211.253 408.173 210.344C408.934 209.435 409.509 208.377 409.898 207.171C410.307 205.947 410.511 204.648 410.511 203.275Z" fill="white"/>
</g>
<g filter="url(#filter3_d_5_139)">
<path d="M251.896 252.999H238.898V248.995C238.898 248.448 239.003 247.934 239.211 247.452C239.426 246.964 239.712 246.54 240.07 246.182C240.435 245.818 240.858 245.531 241.34 245.323C241.828 245.108 242.349 245.001 242.902 245.001H247.902C248.176 245.001 248.433 244.949 248.674 244.844C248.921 244.74 249.133 244.597 249.309 244.415C249.491 244.232 249.634 244.021 249.738 243.78C249.849 243.533 249.904 243.272 249.904 242.999C249.904 242.725 249.849 242.468 249.738 242.227C249.634 241.98 249.491 241.765 249.309 241.583C249.133 241.4 248.921 241.257 248.674 241.153C248.433 241.049 248.176 240.997 247.902 240.997H239.904V238.995H247.902C248.449 238.995 248.964 239.102 249.445 239.317C249.934 239.525 250.357 239.812 250.715 240.176C251.079 240.535 251.366 240.958 251.574 241.446C251.789 241.934 251.896 242.452 251.896 242.999C251.896 243.546 251.789 244.063 251.574 244.551C251.366 245.04 251.079 245.466 250.715 245.831C250.357 246.189 249.934 246.475 249.445 246.69C248.964 246.898 248.449 247.003 247.902 247.003H242.902C242.629 247.003 242.368 247.055 242.121 247.159C241.874 247.263 241.659 247.406 241.477 247.589C241.294 247.771 241.148 247.982 241.037 248.223C240.933 248.464 240.881 248.721 240.881 248.995V250.997H251.896V252.999ZM270.021 245.997C270.021 246.967 269.865 247.878 269.553 248.731C269.247 249.584 268.811 250.326 268.244 250.958C267.684 251.589 267.007 252.087 266.213 252.452C265.425 252.816 264.549 252.999 263.586 252.999H260.324C259.354 252.999 258.472 252.816 257.678 252.452C256.883 252.087 256.203 251.589 255.637 250.958C255.077 250.326 254.644 249.584 254.338 248.731C254.032 247.878 253.879 246.967 253.879 245.997C253.879 245.033 254.032 244.128 254.338 243.282C254.644 242.429 255.077 241.687 255.637 241.055C256.203 240.417 256.883 239.916 257.678 239.551C258.472 239.18 259.354 238.995 260.324 238.995H263.586C264.549 238.995 265.425 239.18 266.213 239.551C267.007 239.916 267.684 240.417 268.244 241.055C268.811 241.687 269.247 242.429 269.553 243.282C269.865 244.128 270.021 245.033 270.021 245.997ZM268.02 245.997C268.02 245.307 267.915 244.659 267.707 244.053C267.505 243.448 267.212 242.921 266.828 242.471C266.451 242.016 265.988 241.658 265.441 241.397C264.895 241.13 264.276 240.997 263.586 240.997H260.324C259.634 240.997 259.012 241.13 258.459 241.397C257.912 241.658 257.447 242.016 257.062 242.471C256.685 242.921 256.392 243.448 256.184 244.053C255.982 244.659 255.881 245.307 255.881 245.997C255.881 246.687 255.982 247.338 256.184 247.95C256.392 248.555 256.685 249.086 257.062 249.542C257.447 249.991 257.912 250.346 258.459 250.606C259.012 250.867 259.634 250.997 260.324 250.997H263.586C264.276 250.997 264.895 250.867 265.441 250.606C265.988 250.346 266.451 249.991 266.828 249.542C267.212 249.086 267.505 248.555 267.707 247.95C267.915 247.338 268.02 246.687 268.02 245.997ZM284.865 252.999H271.867V248.995C271.867 248.448 271.971 247.934 272.18 247.452C272.395 246.964 272.681 246.54 273.039 246.182C273.404 245.818 273.827 245.531 274.309 245.323C274.797 245.108 275.318 245.001 275.871 245.001H280.871C281.145 245.001 281.402 244.949 281.643 244.844C281.89 244.74 282.102 244.597 282.277 244.415C282.46 244.232 282.603 244.021 282.707 243.78C282.818 243.533 282.873 243.272 282.873 242.999C282.873 242.725 282.818 242.468 282.707 242.227C282.603 241.98 282.46 241.765 282.277 241.583C282.102 241.4 281.89 241.257 281.643 241.153C281.402 241.049 281.145 240.997 280.871 240.997H272.873V238.995H280.871C281.418 238.995 281.932 239.102 282.414 239.317C282.902 239.525 283.326 239.812 283.684 240.176C284.048 240.535 284.335 240.958 284.543 241.446C284.758 241.934 284.865 242.452 284.865 242.999C284.865 243.546 284.758 244.063 284.543 244.551C284.335 245.04 284.048 245.466 283.684 245.831C283.326 246.189 282.902 246.475 282.414 246.69C281.932 246.898 281.418 247.003 280.871 247.003H275.871C275.598 247.003 275.337 247.055 275.09 247.159C274.842 247.263 274.628 247.406 274.445 247.589C274.263 247.771 274.117 247.982 274.006 248.223C273.902 248.464 273.85 248.721 273.85 248.995V250.997H284.865V252.999ZM299.807 252.999H286.809V248.995C286.809 248.448 286.913 247.934 287.121 247.452C287.336 246.964 287.622 246.54 287.98 246.182C288.345 245.818 288.768 245.531 289.25 245.323C289.738 245.108 290.259 245.001 290.812 245.001H295.812C296.086 245.001 296.343 244.949 296.584 244.844C296.831 244.74 297.043 244.597 297.219 244.415C297.401 244.232 297.544 244.021 297.648 243.78C297.759 243.533 297.814 243.272 297.814 242.999C297.814 242.725 297.759 242.468 297.648 242.227C297.544 241.98 297.401 241.765 297.219 241.583C297.043 241.4 296.831 241.257 296.584 241.153C296.343 241.049 296.086 240.997 295.812 240.997H287.814V238.995H295.812C296.359 238.995 296.874 239.102 297.355 239.317C297.844 239.525 298.267 239.812 298.625 240.176C298.99 240.535 299.276 240.958 299.484 241.446C299.699 241.934 299.807 242.452 299.807 242.999C299.807 243.546 299.699 244.063 299.484 244.551C299.276 245.04 298.99 245.466 298.625 245.831C298.267 246.189 297.844 246.475 297.355 246.69C296.874 246.898 296.359 247.003 295.812 247.003H290.812C290.539 247.003 290.279 247.055 290.031 247.159C289.784 247.263 289.569 247.406 289.387 247.589C289.204 247.771 289.058 247.982 288.947 248.223C288.843 248.464 288.791 248.721 288.791 248.995V250.997H299.807V252.999Z" fill="white"/>
</g>
<defs>
<filter id="filter0_f_5_139" x="0" y="0" width="538" height="412" filterUnits="userSpaceOnUse" color-interpolation-filters="sRGB">
<feFlood flood-opacity="0" result="BackgroundImageFix"/>
<feBlend mode="normal" in="SourceGraphic" in2="BackgroundImageFix" result="shape"/>
<feGaussianBlur stdDeviation="7.5" result="effect1_foregroundBlur_5_139"/>
</filter>
<filter id="filter1_f_5_139" x="74" y="19" width="390" height="397" filterUnits="userSpaceOnUse" color-interpolation-filters="sRGB">
<feFlood flood-opacity="0" result="BackgroundImageFix"/>
<feBlend mode="normal" in="SourceGraphic" in2="BackgroundImageFix" result="shape"/>
<feGaussianBlur stdDeviation="10" result="effect1_foregroundBlur_5_139"/>
</filter>
<filter id="filter2_d_5_139" x="103.505" y="160.089" width="331.711" height="77.9111" filterUnits="userSpaceOnUse" color-interpolation-filters="sRGB">
<feFlood flood-opacity="0" result="BackgroundImageFix"/>
<feColorMatrix in="SourceAlpha" type="matrix" values="0 0 0 0 0 0 0 0 0 0 0 0 0 0 0 0 0 0 127 0" result="hardAlpha"/>
<feOffset/>
<feGaussianBlur stdDeviation="9.5"/>
<feComposite in2="hardAlpha" operator="out"/>
<feColorMatrix type="matrix" values="0 0 0 0 0.0901961 0 0 0 0 0.505882 0 0 0 0 0.737255 0 0 0 1 0"/>
<feBlend mode="normal" in2="BackgroundImageFix" result="effect1_dropShadow_5_139"/>
<feBlend mode="normal" in="SourceGraphic" in2="effect1_dropShadow_5_139" result="shape"/>
</filter>
<filter id="filter3_d_5_139" x="219.898" y="219.995" width="98.9082" height="52.0039" filterUnits="userSpaceOnUse" color-interpolation-filters="sRGB">
<feFlood flood-opacity="0" result="BackgroundImageFix"/>
<feColorMatrix in="SourceAlpha" type="matrix" values="0 0 0 0 0 0 0 0 0 0 0 0 0 0 0 0 0 0 127 0" result="hardAlpha"/>
<feOffset/>
<feGaussianBlur stdDeviation="9.5"/>
<feComposite in2="hardAlpha" operator="out"/>
<feColorMatrix type="matrix" values="0 0 0 0 0.0901961 0 0 0 0 0.505882 0 0 0 0 0.737255 0 0 0 1 0"/>
<feBlend mode="normal" in2="BackgroundImageFix" result="effect1_dropShadow_5_139"/>
<feBlend mode="normal" in="SourceGraphic" in2="effect1_dropShadow_5_139" result="shape"/>
</filter>
<linearGradient id="paint0_linear_5_139" x1="269.5" y1="880.5" x2="266.398" y2="55.4984" gradientUnits="userSpaceOnUse">
<stop offset="0.178457" stop-color="#89CEFF"/>
<stop offset="1" stop-color="#89CEFF" stop-opacity="0"/>
</linearGradient>
<linearGradient id="paint1_linear_5_139" x1="271.5" y1="869" x2="269.008" y2="29.5" gradientUnits="userSpaceOnUse">
<stop stop-color="#89CEFF"/>
<stop offset="1" stop-color="#89CEFF" stop-opacity="0"/>
</linearGradient>
</defs>
</svg>
