<svg width="430" height="500" viewBox="0 0 430 500" fill="none" xmlns="http://www.w3.org/2000/svg">
<g opacity="0.2" filter="url(#filter0_f_5_139)">
<path d="M300.433 481L415 15H211.063H15L124.449 481H300.433Z" fill="url(#paint0_linear_5_139)"/>
</g>
<g opacity="0.2" filter="url(#filter1_f_5_139)">
<path d="M262.449 479.78L353 44.2775H191.832H77.4094L162.449 479.78H262.449Z" fill="url(#paint1_linear_5_139)"/>
</g>
<g filter="url(#filter2_d_5_139)">
<path d="M150.408 261H134.184C132.438 261 130.85 260.672 129.42 260.016C127.99 259.359 126.766 258.463 125.746 257.326C124.738 256.189 123.959 254.854 123.408 253.318C122.857 251.783 122.582 250.143 122.582 248.396C122.582 246.662 122.857 245.033 123.408 243.51C123.959 241.975 124.738 240.639 125.746 239.502C126.766 238.354 127.99 237.451 129.42 236.795C130.85 236.127 132.438 235.793 134.184 235.793H150.408V239.396H134.184C132.941 239.396 131.822 239.637 130.826 240.117C129.842 240.586 129.004 241.23 128.312 242.051C127.633 242.859 127.105 243.809 126.73 244.898C126.367 245.988 126.186 247.154 126.186 248.396C126.186 249.639 126.367 250.811 126.73 251.912C127.105 253.002 127.633 253.957 128.312 254.777C129.004 255.586 129.842 256.225 130.826 256.693C131.822 257.162 132.941 257.396 134.184 257.396H150.408V261ZM175.018 261H154.346V241.137H175.018V244.758H157.984V257.361H175.018V261ZM172.715 252.791H159.689V249.152H172.715V252.791ZM202.334 261H197.43L191.805 255.639H184.51V252.07H194.477C194.98 252.07 195.455 251.971 195.9 251.771C196.346 251.572 196.732 251.309 197.061 250.98C197.389 250.641 197.646 250.248 197.834 249.803C198.021 249.357 198.115 248.889 198.115 248.396C198.115 247.893 198.021 247.424 197.834 246.99C197.646 246.545 197.389 246.158 197.061 245.83C196.732 245.502 196.346 245.244 195.9 245.057C195.455 244.857 194.98 244.758 194.477 244.758H182.629V261H179.025V241.207H194.477C195.473 241.207 196.41 241.4 197.289 241.787C198.168 242.162 198.93 242.678 199.574 243.334C200.23 243.979 200.746 244.74 201.121 245.619C201.496 246.486 201.684 247.412 201.684 248.396C201.684 249.205 201.555 249.984 201.297 250.734C201.039 251.473 200.676 252.152 200.207 252.773C199.75 253.383 199.205 253.91 198.572 254.355C197.939 254.801 197.248 255.129 196.498 255.34L202.334 261ZM226.627 261H205.955V241.137H226.627V244.758H209.594V257.361H226.627V261ZM224.324 252.791H211.299V249.152H224.324V252.791ZM254.084 255.094C254.084 255.914 253.926 256.682 253.609 257.396C253.305 258.111 252.883 258.738 252.344 259.277C251.805 259.805 251.172 260.227 250.445 260.543C249.73 260.848 248.963 261 248.143 261H236.014V257.361H248.143C248.471 257.361 248.775 257.303 249.057 257.186C249.338 257.068 249.578 256.91 249.777 256.711C249.988 256.5 250.152 256.26 250.27 255.99C250.387 255.709 250.445 255.41 250.445 255.094C250.445 254.766 250.387 254.461 250.27 254.18C250.152 253.898 249.988 253.658 249.777 253.459C249.578 253.248 249.338 253.084 249.057 252.967C248.775 252.85 248.471 252.791 248.143 252.791H236.014V249.152H245.189C245.541 249.141 245.869 249.076 246.174 248.959C246.479 248.842 246.742 248.689 246.965 248.502C247.199 248.303 247.381 248.074 247.51 247.816C247.639 247.547 247.703 247.26 247.703 246.955C247.703 246.639 247.645 246.352 247.527 246.094C247.41 245.824 247.246 245.59 247.035 245.391C246.836 245.191 246.596 245.039 246.314 244.934C246.045 244.816 245.752 244.758 245.436 244.758H234.309V261H230.635V241.137H245.436C246.244 241.137 247.006 241.289 247.721 241.594C248.447 241.898 249.074 242.314 249.602 242.842C250.141 243.357 250.562 243.973 250.867 244.688C251.184 245.391 251.342 246.146 251.342 246.955C251.342 247.471 251.271 247.957 251.131 248.414C251.002 248.871 250.82 249.299 250.586 249.697C251.102 249.932 251.57 250.236 251.992 250.611C252.426 250.975 252.795 251.391 253.1 251.859C253.416 252.328 253.656 252.838 253.82 253.389C253.996 253.928 254.084 254.496 254.084 255.094ZM281.119 261H276.215L270.59 255.639H263.295V252.07H273.262C273.766 252.07 274.24 251.971 274.686 251.771C275.131 251.572 275.518 251.309 275.846 250.98C276.174 250.641 276.432 250.248 276.619 249.803C276.807 249.357 276.9 248.889 276.9 248.396C276.9 247.893 276.807 247.424 276.619 246.99C276.432 246.545 276.174 246.158 275.846 245.83C275.518 245.502 275.131 245.244 274.686 245.057C274.24 244.857 273.766 244.758 273.262 244.758H261.414V261H257.811V241.207H273.262C274.258 241.207 275.195 241.4 276.074 241.787C276.953 242.162 277.715 242.678 278.359 243.334C279.016 243.979 279.531 244.74 279.906 245.619C280.281 246.486 280.469 247.412 280.469 248.396C280.469 249.205 280.34 249.984 280.082 250.734C279.824 251.473 279.461 252.152 278.992 252.773C278.535 253.383 277.99 253.91 277.357 254.355C276.725 254.801 276.033 255.129 275.283 255.34L281.119 261ZM308.084 251.068C308.084 252.439 307.867 253.729 307.434 254.936C307 256.131 306.379 257.18 305.57 258.082C304.773 258.984 303.812 259.699 302.688 260.227C301.574 260.742 300.332 261 298.961 261H292.703C291.332 261 290.084 260.742 288.959 260.227C287.834 259.699 286.867 258.984 286.059 258.082C285.262 257.18 284.646 256.131 284.213 254.936C283.779 253.729 283.562 252.439 283.562 251.068C283.562 249.709 283.779 248.432 284.213 247.236C284.646 246.041 285.262 244.998 286.059 244.107C286.867 243.205 287.834 242.496 288.959 241.98C290.084 241.465 291.332 241.207 292.703 241.207H298.961C300.332 241.207 301.574 241.465 302.688 241.98C303.812 242.496 304.773 243.205 305.57 244.107C306.379 244.998 307 246.041 307.434 247.236C307.867 248.432 308.084 249.709 308.084 251.068ZM304.48 251.068C304.48 250.201 304.352 249.387 304.094 248.625C303.848 247.852 303.484 247.184 303.004 246.621C302.535 246.047 301.961 245.596 301.281 245.268C300.602 244.928 299.828 244.758 298.961 244.758H292.703C291.836 244.758 291.057 244.928 290.365 245.268C289.686 245.596 289.105 246.047 288.625 246.621C288.156 247.184 287.793 247.852 287.535 248.625C287.289 249.387 287.166 250.201 287.166 251.068C287.166 251.936 287.289 252.756 287.535 253.529C287.793 254.291 288.156 254.959 288.625 255.533C289.105 256.107 289.686 256.564 290.365 256.904C291.057 257.232 291.836 257.396 292.703 257.396H298.961C299.828 257.396 300.602 257.232 301.281 256.904C301.961 256.564 302.535 256.107 303.004 255.533C303.484 254.959 303.848 254.291 304.094 253.529C304.352 252.756 304.48 251.936 304.48 251.068Z" fill="white"/>
</g>
<g filter="url(#filter3_d_5_139)">
<path d="M197.896 308H184.898V303.996C184.898 303.449 185.003 302.935 185.211 302.453C185.426 301.965 185.712 301.542 186.07 301.184C186.435 300.819 186.858 300.533 187.34 300.324C187.828 300.109 188.349 300.002 188.902 300.002H193.902C194.176 300.002 194.433 299.95 194.674 299.846C194.921 299.742 195.133 299.598 195.309 299.416C195.491 299.234 195.634 299.022 195.738 298.781C195.849 298.534 195.904 298.273 195.904 298C195.904 297.727 195.849 297.469 195.738 297.229C195.634 296.981 195.491 296.766 195.309 296.584C195.133 296.402 194.921 296.258 194.674 296.154C194.433 296.05 194.176 295.998 193.902 295.998H185.904V293.996H193.902C194.449 293.996 194.964 294.104 195.445 294.318C195.934 294.527 196.357 294.813 196.715 295.178C197.079 295.536 197.366 295.959 197.574 296.447C197.789 296.936 197.896 297.453 197.896 298C197.896 298.547 197.789 299.064 197.574 299.553C197.366 300.041 197.079 300.467 196.715 300.832C196.357 301.19 195.934 301.477 195.445 301.691C194.964 301.9 194.449 302.004 193.902 302.004H188.902C188.629 302.004 188.368 302.056 188.121 302.16C187.874 302.264 187.659 302.408 187.477 302.59C187.294 302.772 187.148 302.984 187.037 303.225C186.933 303.465 186.881 303.723 186.881 303.996V305.998H197.896V308ZM216.021 300.998C216.021 301.968 215.865 302.88 215.553 303.732C215.247 304.585 214.811 305.327 214.244 305.959C213.684 306.59 213.007 307.089 212.213 307.453C211.425 307.818 210.549 308 209.586 308H206.324C205.354 308 204.472 307.818 203.678 307.453C202.883 307.089 202.203 306.59 201.637 305.959C201.077 305.327 200.644 304.585 200.338 303.732C200.032 302.88 199.879 301.968 199.879 300.998C199.879 300.035 200.032 299.13 200.338 298.283C200.644 297.43 201.077 296.688 201.637 296.057C202.203 295.419 202.883 294.917 203.678 294.553C204.472 294.182 205.354 293.996 206.324 293.996H209.586C210.549 293.996 211.425 294.182 212.213 294.553C213.007 294.917 213.684 295.419 214.244 296.057C214.811 296.688 215.247 297.43 215.553 298.283C215.865 299.13 216.021 300.035 216.021 300.998ZM214.02 300.998C214.02 300.308 213.915 299.66 213.707 299.055C213.505 298.449 213.212 297.922 212.828 297.473C212.451 297.017 211.988 296.659 211.441 296.398C210.895 296.132 210.276 295.998 209.586 295.998H206.324C205.634 295.998 205.012 296.132 204.459 296.398C203.912 296.659 203.447 297.017 203.062 297.473C202.685 297.922 202.392 298.449 202.184 299.055C201.982 299.66 201.881 300.308 201.881 300.998C201.881 301.688 201.982 302.339 202.184 302.951C202.392 303.557 202.685 304.087 203.062 304.543C203.447 304.992 203.912 305.347 204.459 305.607C205.012 305.868 205.634 305.998 206.324 305.998H209.586C210.276 305.998 210.895 305.868 211.441 305.607C211.988 305.347 212.451 304.992 212.828 304.543C213.212 304.087 213.505 303.557 213.707 302.951C213.915 302.339 214.02 301.688 214.02 300.998ZM230.865 308H217.867V303.996C217.867 303.449 217.971 302.935 218.18 302.453C218.395 301.965 218.681 301.542 219.039 301.184C219.404 300.819 219.827 300.533 220.309 300.324C220.797 300.109 221.318 300.002 221.871 300.002H226.871C227.145 300.002 227.402 299.95 227.643 299.846C227.89 299.742 228.102 299.598 228.277 299.416C228.46 299.234 228.603 299.022 228.707 298.781C228.818 298.534 228.873 298.273 228.873 298C228.873 297.727 228.818 297.469 228.707 297.229C228.603 296.981 228.46 296.766 228.277 296.584C228.102 296.402 227.89 296.258 227.643 296.154C227.402 296.05 227.145 295.998 226.871 295.998H218.873V293.996H226.871C227.418 293.996 227.932 294.104 228.414 294.318C228.902 294.527 229.326 294.813 229.684 295.178C230.048 295.536 230.335 295.959 230.543 296.447C230.758 296.936 230.865 297.453 230.865 298C230.865 298.547 230.758 299.064 230.543 299.553C230.335 300.041 230.048 300.467 229.684 300.832C229.326 301.19 228.902 301.477 228.414 301.691C227.932 301.9 227.418 302.004 226.871 302.004H221.871C221.598 302.004 221.337 302.056 221.09 302.16C220.842 302.264 220.628 302.408 220.445 302.59C220.263 302.772 220.117 302.984 220.006 303.225C219.902 303.465 219.85 303.723 219.85 303.996V305.998H230.865V308ZM245.807 308H232.809V303.996C232.809 303.449 232.913 302.935 233.121 302.453C233.336 301.965 233.622 301.542 233.98 301.184C234.345 300.819 234.768 300.533 235.25 300.324C235.738 300.109 236.259 300.002 236.812 300.002H241.812C242.086 300.002 242.343 299.95 242.584 299.846C242.831 299.742 243.043 299.598 243.219 299.416C243.401 299.234 243.544 299.022 243.648 298.781C243.759 298.534 243.814 298.273 243.814 298C243.814 297.727 243.759 297.469 243.648 297.229C243.544 296.981 243.401 296.766 243.219 296.584C243.043 296.402 242.831 296.258 242.584 296.154C242.343 296.05 242.086 295.998 241.812 295.998H233.814V293.996H241.812C242.359 293.996 242.874 294.104 243.355 294.318C243.844 294.527 244.267 294.813 244.625 295.178C244.99 295.536 245.276 295.959 245.484 296.447C245.699 296.936 245.807 297.453 245.807 298C245.807 298.547 245.699 299.064 245.484 299.553C245.276 300.041 244.99 300.467 244.625 300.832C244.267 301.19 243.844 301.477 243.355 301.691C242.874 301.9 242.359 302.004 241.812 302.004H236.812C236.539 302.004 236.279 302.056 236.031 302.16C235.784 302.264 235.569 302.408 235.387 302.59C235.204 302.772 235.058 302.984 234.947 303.225C234.843 303.465 234.791 303.723 234.791 303.996V305.998H245.807V308Z" fill="white"/>
</g>
<defs>
<filter id="filter0_f_5_139" x="0" y="0" width="430" height="496" filterUnits="userSpaceOnUse" color-interpolation-filters="sRGB">
<feFlood flood-opacity="0" result="BackgroundImageFix"/>
<feBlend mode="normal" in="SourceGraphic" in2="BackgroundImageFix" result="shape"/>
<feGaussianBlur stdDeviation="7.5" result="effect1_foregroundBlur_5_139"/>
</filter>
<filter id="filter1_f_5_139" x="57.4094" y="24.2775" width="315.591" height="475.503" filterUnits="userSpaceOnUse" color-interpolation-filters="sRGB">
<feFlood flood-opacity="0" result="BackgroundImageFix"/>
<feBlend mode="normal" in="SourceGraphic" in2="BackgroundImageFix" result="shape"/>
<feGaussianBlur stdDeviation="10" result="effect1_foregroundBlur_5_139"/>
</filter>
<filter id="filter2_d_5_139" x="103.582" y="216.793" width="223.502" height="63.207" filterUnits="userSpaceOnUse" color-interpolation-filters="sRGB">
<feFlood flood-opacity="0" result="BackgroundImageFix"/>
<feColorMatrix in="SourceAlpha" type="matrix" values="0 0 0 0 0 0 0 0 0 0 0 0 0 0 0 0 0 0 127 0" result="hardAlpha"/>
<feOffset/>
<feGaussianBlur stdDeviation="9.5"/>
<feComposite in2="hardAlpha" operator="out"/>
<feColorMatrix type="matrix" values="0 0 0 0 0.0901961 0 0 0 0 0.505882 0 0 0 0 0.737255 0 0 0 1 0"/>
<feBlend mode="normal" in2="BackgroundImageFix" result="effect1_dropShadow_5_139"/>
<feBlend mode="normal" in="SourceGraphic" in2="effect1_dropShadow_5_139" result="shape"/>
</filter>
<filter id="filter3_d_5_139" x="165.898" y="274.996" width="98.9082" height="52.0039" filterUnits="userSpaceOnUse" color-interpolation-filters="sRGB">
<feFlood flood-opacity="0" result="BackgroundImageFix"/>
<feColorMatrix in="SourceAlpha" type="matrix" values="0 0 0 0 0 0 0 0 0 0 0 0 0 0 0 0 0 0 127 0" result="hardAlpha"/>
<feOffset/>
<feGaussianBlur stdDeviation="9.5"/>
<feComposite in2="hardAlpha" operator="out"/>
<feColorMatrix type="matrix" values="0 0 0 0 0.0901961 0 0 0 0 0.505882 0 0 0 0 0.737255 0 0 0 1 0"/>
<feBlend mode="normal" in2="BackgroundImageFix" result="effect1_dropShadow_5_139"/>
<feBlend mode="normal" in="SourceGraphic" in2="effect1_dropShadow_5_139" result="shape"/>
</filter>
<linearGradient id="paint0_linear_5_139" x1="215.394" y1="1070.82" x2="209.532" y2="64.4237" gradientUnits="userSpaceOnUse">
<stop offset="0.178457" stop-color="#89CEFF"/>
<stop offset="1" stop-color="#89CEFF" stop-opacity="0"/>
</linearGradient>
<linearGradient id="paint1_linear_5_139" x1="217.173" y1="1056.79" x2="212.463" y2="32.7011" gradientUnits="userSpaceOnUse">
<stop stop-color="#89CEFF"/>
<stop offset="1" stop-color="#89CEFF" stop-opacity="0"/>
</linearGradient>
</defs>
</svg>
