<svg width="223" height="29" viewBox="0 0 223 29" fill="none" xmlns="http://www.w3.org/2000/svg">
<rect x="0.412639" y="0.412639" width="222.175" height="27.2342" rx="13.6171" fill="#306599" stroke="white" stroke-width="0.825279"/>
<rect x="7.46338" y="4.95117" width="208.907" height="18.1561" rx="9.07807" fill="#001B38"/>
<path d="M55.4122 8.41161V18H56.753V13.6121H61.6014V18H62.9557V8.41161H61.6014V12.4203H56.753V8.41161H55.4122ZM71.7114 14.7768C71.7114 14.2892 71.6166 13.8288 71.4405 13.4225C71.2644 13.0162 71.0207 12.6505 70.7092 12.3526C70.3977 12.0547 70.032 11.8244 69.6122 11.6619C69.1788 11.4994 68.7319 11.4046 68.2444 11.4046C67.7568 11.4046 67.2964 11.4994 66.8765 11.6619C66.4432 11.8244 66.0775 12.0547 65.7796 12.3526C65.4681 12.6505 65.2243 13.0162 65.0482 13.4225C64.8722 13.8288 64.7909 14.2892 64.7909 14.7768C64.7909 15.2779 64.8722 15.7383 65.0482 16.1446C65.2243 16.5645 65.4681 16.9301 65.7796 17.2281C66.0775 17.526 66.4432 17.7698 66.8765 17.9323C67.2964 18.0948 67.7568 18.1761 68.2444 18.1761C68.7319 18.1761 69.1788 18.0948 69.6122 17.9323C70.032 17.7698 70.3977 17.526 70.7092 17.2281C71.0207 16.9301 71.2644 16.5645 71.4405 16.1446C71.6166 15.7383 71.7114 15.2779 71.7114 14.7768ZM70.3842 14.7768C70.3842 15.0883 70.33 15.3862 70.2352 15.6571C70.1404 15.9415 70.005 16.1852 69.8289 16.4019C69.6393 16.6186 69.4226 16.7947 69.1518 16.9166C68.8809 17.052 68.5829 17.1062 68.2444 17.1062C67.8923 17.1062 67.5943 17.052 67.3235 16.9166C67.0526 16.7947 66.8359 16.6186 66.6599 16.4019C66.4703 16.1852 66.3348 15.9415 66.24 15.6571C66.1452 15.3862 66.1046 15.0883 66.1046 14.7768C66.1046 14.4788 66.1452 14.1809 66.24 13.8965C66.3348 13.6256 66.4703 13.3819 66.6599 13.1652C66.8359 12.9485 67.0526 12.786 67.3235 12.6505C67.5943 12.5287 67.8923 12.4609 68.2444 12.4609C68.5829 12.4609 68.8809 12.5287 69.1518 12.6505C69.4226 12.786 69.6393 12.9485 69.8289 13.1652C70.005 13.3819 70.1404 13.6256 70.2352 13.8965C70.33 14.1809 70.3842 14.4788 70.3842 14.7768ZM76.4968 18L79.0699 11.5807H77.7156L75.8196 16.6322H75.7925L73.9101 11.5807H72.5016L75.1154 18H76.4968ZM85.0005 14.2215H81.1814C81.1949 13.9778 81.2626 13.734 81.371 13.5173C81.4793 13.3006 81.6283 13.0975 81.8043 12.9349C81.9804 12.7724 82.1835 12.6505 82.4273 12.5557C82.6711 12.4609 82.9284 12.4068 83.1992 12.4068C83.4972 12.4068 83.7545 12.4609 83.9712 12.5557C84.1879 12.6505 84.3775 12.7724 84.5265 12.9349C84.6754 13.0975 84.7838 13.3006 84.865 13.5173C84.9463 13.734 84.9869 13.9778 85.0005 14.2215ZM86.287 14.7362C86.287 14.2215 86.2058 13.7611 86.0703 13.3548C85.9214 12.9485 85.7182 12.5964 85.4474 12.2984C85.1765 12.014 84.8515 11.7973 84.4723 11.6348C84.0931 11.4859 83.6597 11.4046 83.1992 11.4046C82.7252 11.4046 82.2919 11.4994 81.8856 11.6619C81.4793 11.8244 81.1272 12.0547 80.8292 12.3526C80.5313 12.6505 80.2875 13.0162 80.125 13.436C79.9625 13.8559 79.8812 14.3163 79.8812 14.8039C79.8812 15.3185 79.9625 15.779 80.1385 16.1852C80.3011 16.6051 80.5448 16.9572 80.8428 17.2551C81.1407 17.5531 81.4928 17.7698 81.9127 17.9323C82.319 18.0948 82.7794 18.1761 83.267 18.1761C83.8358 18.1761 84.3504 18.0813 84.8109 17.8646C85.2713 17.6479 85.6776 17.3229 86.0297 16.8624L85.1359 16.1446C84.9463 16.4155 84.7025 16.6457 84.391 16.8353C84.066 17.0249 83.7003 17.1197 83.267 17.1197C82.9826 17.1197 82.7117 17.0791 82.4679 16.9707C82.2242 16.8759 82.0075 16.7405 81.8179 16.5645C81.6283 16.3884 81.4658 16.1852 81.3574 15.9415C81.2491 15.6977 81.1814 15.4404 81.1814 15.1695H86.2735C86.2735 15.1018 86.287 15.0341 86.287 14.9528V14.7362ZM88.0644 12.962V18H89.3375V14.6278C89.3375 14.357 89.3646 14.0996 89.4458 13.8559C89.5135 13.6121 89.6219 13.3819 89.7708 13.1923C89.9198 13.0027 90.1094 12.8537 90.3396 12.7453C90.5563 12.637 90.8272 12.5693 91.1387 12.5693C91.3418 12.5693 91.5314 12.5964 91.721 12.637L91.7752 11.4588C91.6398 11.4317 91.4637 11.4046 91.2741 11.4046C90.8407 11.4046 90.448 11.5265 90.0959 11.7567C89.7438 11.9869 89.4864 12.2849 89.3104 12.6641H89.2698C89.2698 12.5287 89.2562 12.3661 89.2562 12.1495C89.2427 11.9328 89.2291 11.7432 89.2156 11.5807H88.0103C88.0238 11.7973 88.0374 12.0276 88.0509 12.2984C88.0509 12.5693 88.0644 12.7995 88.0644 12.962ZM99.4988 12.6235V11.5807H97.7924V9.73882H96.5329V11.5807H95.3005V12.6235H96.5329V16.104C96.5329 16.7811 96.6819 17.2822 97.0069 17.6073C97.3319 17.9458 97.7924 18.1083 98.4018 18.1083C98.5914 18.1083 98.781 18.0948 98.9706 18.0677C99.1602 18.0406 99.3227 17.9865 99.4852 17.9323L99.4446 16.8895C99.3363 16.9437 99.2144 16.9843 99.079 17.0114C98.9435 17.0385 98.8081 17.052 98.6998 17.052C98.3747 17.052 98.1445 16.9707 98.0091 16.8082C97.8601 16.6457 97.7924 16.3613 97.7924 15.9686V12.6235H99.4988ZM107.314 14.7768C107.314 14.2892 107.22 13.8288 107.044 13.4225C106.868 13.0162 106.624 12.6505 106.312 12.3526C106.001 12.0547 105.635 11.8244 105.215 11.6619C104.782 11.4994 104.335 11.4046 103.847 11.4046C103.36 11.4046 102.899 11.4994 102.48 11.6619C102.046 11.8244 101.681 12.0547 101.383 12.3526C101.071 12.6505 100.827 13.0162 100.651 13.4225C100.475 13.8288 100.394 14.2892 100.394 14.7768C100.394 15.2779 100.475 15.7383 100.651 16.1446C100.827 16.5645 101.071 16.9301 101.383 17.2281C101.681 17.526 102.046 17.7698 102.48 17.9323C102.899 18.0948 103.36 18.1761 103.847 18.1761C104.335 18.1761 104.782 18.0948 105.215 17.9323C105.635 17.7698 106.001 17.526 106.312 17.2281C106.624 16.9301 106.868 16.5645 107.044 16.1446C107.22 15.7383 107.314 15.2779 107.314 14.7768ZM105.987 14.7768C105.987 15.0883 105.933 15.3862 105.838 15.6571C105.743 15.9415 105.608 16.1852 105.432 16.4019C105.242 16.6186 105.026 16.7947 104.755 16.9166C104.484 17.052 104.186 17.1062 103.847 17.1062C103.495 17.1062 103.197 17.052 102.927 16.9166C102.656 16.7947 102.439 16.6186 102.263 16.4019C102.073 16.1852 101.938 15.9415 101.843 15.6571C101.748 15.3862 101.708 15.0883 101.708 14.7768C101.708 14.4788 101.748 14.1809 101.843 13.8965C101.938 13.6256 102.073 13.3819 102.263 13.1652C102.439 12.9485 102.656 12.786 102.927 12.6505C103.197 12.5287 103.495 12.4609 103.847 12.4609C104.186 12.4609 104.484 12.5287 104.755 12.6505C105.026 12.786 105.242 12.9485 105.432 13.1652C105.608 13.3819 105.743 13.6256 105.838 13.8965C105.933 14.1809 105.987 14.4788 105.987 14.7768ZM119.291 16.0769L114.28 8.41161H112.533V18H113.874V10.1722H113.901L118.966 18H120.659V8.41161H119.318V16.0769H119.291ZM126.922 13.8423V14.0184C126.38 14.0184 125.839 14.0455 125.31 14.0861C124.769 14.1403 124.295 14.2351 123.875 14.384C123.442 14.533 123.103 14.7497 122.846 15.0341C122.575 15.3185 122.453 15.6977 122.453 16.1852C122.453 16.5645 122.521 16.8759 122.67 17.1197C122.819 17.377 123.008 17.5802 123.238 17.7291C123.455 17.8917 123.712 18 123.983 18.0677C124.254 18.1354 124.525 18.1625 124.782 18.1625C125.27 18.1625 125.69 18.0677 126.042 17.8781C126.394 17.6885 126.692 17.4312 126.936 17.0791H126.976C126.976 17.3906 127.003 17.7021 127.085 18H128.236C128.195 17.851 128.168 17.6614 128.154 17.4177C128.141 17.1739 128.141 16.9437 128.141 16.727V13.9236C128.141 13.5715 128.087 13.2464 127.978 12.9349C127.87 12.637 127.708 12.3661 127.491 12.1359C127.274 11.9192 126.99 11.7432 126.651 11.6077C126.313 11.4723 125.92 11.4046 125.459 11.4046C124.931 11.4046 124.444 11.4994 123.983 11.6619C123.523 11.838 123.144 12.0682 122.832 12.3661L123.509 13.1787C123.726 12.962 123.983 12.786 124.308 12.6505C124.633 12.5151 124.972 12.4339 125.338 12.4339C125.812 12.4339 126.191 12.5557 126.489 12.786C126.773 13.0162 126.922 13.3683 126.922 13.8423ZM126.611 14.9393H126.922V15.2779C126.922 15.8196 126.76 16.28 126.434 16.6322C126.109 16.9843 125.663 17.1603 125.067 17.1603C124.904 17.1603 124.742 17.1468 124.593 17.1197C124.43 17.0926 124.295 17.0249 124.173 16.9437C124.037 16.8624 123.943 16.7676 123.861 16.6322C123.78 16.5103 123.753 16.3478 123.753 16.1582C123.753 15.8873 123.834 15.6706 124.024 15.5081C124.2 15.3456 124.43 15.2237 124.701 15.1424C124.972 15.0612 125.283 15.007 125.622 14.9799C125.96 14.9528 126.286 14.9393 126.611 14.9393ZM133.287 18L135.86 11.5807H134.506L132.61 16.6322H132.583L130.7 11.5807H129.292L131.906 18H133.287ZM138.378 18V11.5807H137.105V18H138.378ZM138.595 9.26482C138.595 9.03459 138.5 8.84499 138.337 8.68247C138.175 8.51996 137.972 8.4387 137.741 8.4387C137.498 8.4387 137.308 8.51996 137.146 8.68247C136.983 8.84499 136.902 9.03459 136.902 9.26482C136.902 9.49505 136.983 9.68465 137.146 9.84716C137.308 10.0097 137.498 10.0774 137.741 10.0774C137.972 10.0774 138.175 10.0097 138.337 9.84716C138.5 9.69819 138.595 9.50859 138.595 9.26482ZM141.097 19.097L140.285 20.0856C140.691 20.4648 141.165 20.7492 141.734 20.9524C142.303 21.1555 142.858 21.2503 143.427 21.2503C144.09 21.2503 144.645 21.1555 145.106 20.9524C145.553 20.7628 145.919 20.4919 146.203 20.1669C146.474 19.8418 146.677 19.4626 146.799 19.0293C146.907 18.5959 146.975 18.149 146.975 17.675V11.5807H145.742V12.6099H145.715C145.472 12.2036 145.133 11.9057 144.713 11.7025C144.293 11.5129 143.86 11.4046 143.4 11.4046C142.912 11.4046 142.465 11.4994 142.072 11.6755C141.666 11.8515 141.327 12.0953 141.057 12.3932C140.772 12.6912 140.556 13.0433 140.407 13.4496C140.244 13.8559 140.176 14.2892 140.176 14.7497C140.176 15.2102 140.244 15.6435 140.407 16.0498C140.556 16.4561 140.772 16.7947 141.057 17.0926C141.327 17.3906 141.666 17.6343 142.072 17.7969C142.479 17.9729 142.926 18.0542 143.413 18.0542C143.874 18.0542 144.307 17.9594 144.713 17.7698C145.119 17.5802 145.431 17.3093 145.675 16.9437H145.702V17.7698C145.702 18.1083 145.661 18.4198 145.58 18.7042C145.499 19.0022 145.377 19.2459 145.201 19.4626C145.025 19.6793 144.794 19.8418 144.51 19.9637C144.212 20.0856 143.86 20.1398 143.44 20.1398C142.993 20.1398 142.56 20.045 142.14 19.8554C141.72 19.6658 141.368 19.422 141.097 19.097ZM141.49 14.7226C141.49 14.4247 141.531 14.1267 141.625 13.8559C141.72 13.585 141.856 13.3412 142.045 13.1381C142.235 12.9349 142.452 12.7724 142.722 12.6505C142.98 12.5287 143.278 12.4609 143.616 12.4609C143.941 12.4609 144.226 12.5287 144.497 12.6505C144.767 12.7724 144.998 12.9349 145.187 13.1381C145.377 13.3548 145.526 13.585 145.634 13.8559C145.742 14.1267 145.797 14.4247 145.797 14.7226C145.797 15.0476 145.742 15.3456 145.634 15.6164C145.526 15.8873 145.39 16.1311 145.201 16.3342C145.011 16.5374 144.781 16.6999 144.51 16.8082C144.239 16.9301 143.941 16.9843 143.616 16.9843C143.278 16.9843 142.98 16.9301 142.722 16.7947C142.452 16.6728 142.235 16.5103 142.045 16.2936C141.856 16.0904 141.72 15.8467 141.625 15.5758C141.531 15.305 141.49 15.0206 141.49 14.7226ZM153.148 13.8423V14.0184C152.606 14.0184 152.065 14.0455 151.537 14.0861C150.995 14.1403 150.521 14.2351 150.101 14.384C149.668 14.533 149.329 14.7497 149.072 15.0341C148.801 15.3185 148.679 15.6977 148.679 16.1852C148.679 16.5645 148.747 16.8759 148.896 17.1197C149.045 17.377 149.234 17.5802 149.465 17.7291C149.681 17.8917 149.939 18 150.209 18.0677C150.48 18.1354 150.751 18.1625 151.008 18.1625C151.496 18.1625 151.916 18.0677 152.268 17.8781C152.62 17.6885 152.918 17.4312 153.162 17.0791H153.202C153.202 17.3906 153.229 17.7021 153.311 18H154.462C154.421 17.851 154.394 17.6614 154.381 17.4177C154.367 17.1739 154.367 16.9437 154.367 16.727V13.9236C154.367 13.5715 154.313 13.2464 154.205 12.9349C154.096 12.637 153.934 12.3661 153.717 12.1359C153.5 11.9192 153.216 11.7432 152.877 11.6077C152.539 11.4723 152.146 11.4046 151.686 11.4046C151.157 11.4046 150.67 11.4994 150.209 11.6619C149.749 11.838 149.37 12.0682 149.058 12.3661L149.735 13.1787C149.952 12.962 150.209 12.786 150.534 12.6505C150.859 12.5151 151.198 12.4339 151.564 12.4339C152.038 12.4339 152.417 12.5557 152.715 12.786C152.999 13.0162 153.148 13.3683 153.148 13.8423ZM152.837 14.9393H153.148V15.2779C153.148 15.8196 152.986 16.28 152.661 16.6322C152.336 16.9843 151.889 17.1603 151.293 17.1603C151.13 17.1603 150.968 17.1468 150.819 17.1197C150.656 17.0926 150.521 17.0249 150.399 16.9437C150.264 16.8624 150.169 16.7676 150.088 16.6322C150.006 16.5103 149.979 16.3478 149.979 16.1582C149.979 15.8873 150.06 15.6706 150.25 15.5081C150.426 15.3456 150.656 15.2237 150.927 15.1424C151.198 15.0612 151.51 15.007 151.848 14.9799C152.187 14.9528 152.512 14.9393 152.837 14.9393ZM159.503 12.6235V11.5807H157.797V9.73882H156.537V11.5807H155.305V12.6235H156.537V16.104C156.537 16.7811 156.686 17.2822 157.011 17.6073C157.336 17.9458 157.797 18.1083 158.406 18.1083C158.596 18.1083 158.785 18.0948 158.975 18.0677C159.164 18.0406 159.327 17.9865 159.489 17.9323L159.449 16.8895C159.34 16.9437 159.219 16.9843 159.083 17.0114C158.948 17.0385 158.812 17.052 158.704 17.052C158.379 17.052 158.149 16.9707 158.013 16.8082C157.864 16.6457 157.797 16.3613 157.797 15.9686V12.6235H159.503ZM165.517 14.2215H161.698C161.712 13.9778 161.779 13.734 161.888 13.5173C161.996 13.3006 162.145 13.0975 162.321 12.9349C162.497 12.7724 162.7 12.6505 162.944 12.5557C163.188 12.4609 163.445 12.4068 163.716 12.4068C164.014 12.4068 164.271 12.4609 164.488 12.5557C164.705 12.6505 164.894 12.7724 165.043 12.9349C165.192 13.0975 165.301 13.3006 165.382 13.5173C165.463 13.734 165.504 13.9778 165.517 14.2215ZM166.804 14.7362C166.804 14.2215 166.723 13.7611 166.587 13.3548C166.438 12.9485 166.235 12.5964 165.964 12.2984C165.693 12.014 165.368 11.7973 164.989 11.6348C164.61 11.4859 164.177 11.4046 163.716 11.4046C163.242 11.4046 162.809 11.4994 162.402 11.6619C161.996 11.8244 161.644 12.0547 161.346 12.3526C161.048 12.6505 160.804 13.0162 160.642 13.436C160.479 13.8559 160.398 14.3163 160.398 14.8039C160.398 15.3185 160.479 15.779 160.655 16.1852C160.818 16.6051 161.062 16.9572 161.36 17.2551C161.658 17.5531 162.01 17.7698 162.43 17.9323C162.836 18.0948 163.296 18.1761 163.784 18.1761C164.353 18.1761 164.867 18.0813 165.328 17.8646C165.788 17.6479 166.194 17.3229 166.547 16.8624L165.653 16.1446C165.463 16.4155 165.219 16.6457 164.908 16.8353C164.583 17.0249 164.217 17.1197 163.784 17.1197C163.499 17.1197 163.229 17.0791 162.985 16.9707C162.741 16.8759 162.524 16.7405 162.335 16.5645C162.145 16.3884 161.983 16.1852 161.874 15.9415C161.766 15.6977 161.698 15.4404 161.698 15.1695H166.79C166.79 15.1018 166.804 15.0341 166.804 14.9528V14.7362Z" fill="white"/>
</svg>
