<svg width="28" height="28" viewBox="0 0 28 28" fill="none" xmlns="http://www.w3.org/2000/svg">
<path d="M14 28C6.26801 28 0 21.732 0 14C0 6.26801 6.26801 0 14 0C21.732 0 28 6.26801 28 14C28 21.732 21.732 28 14 28Z" fill="#44658C"/>
<path d="M17.5938 22.1678L11.9165 27.845C7.183 27.1377 3.22445 24.0608 1.28555 19.8599L8.09814 13.0474L17.5938 22.1678Z" fill="#1F3E63" fill-opacity="0.38"/>
<path d="M12.2782 14.5166L17.5949 19.8333C18.2393 20.4777 18.2392 21.5223 17.5949 22.1667C16.9505 22.8109 15.9059 22.8109 15.2615 22.1667L8.26153 15.1667C7.61715 14.5224 7.61726 13.4777 8.26153 12.8333L15.2615 5.8333C15.9059 5.18903 16.9505 5.18903 17.5949 5.8333C18.2393 6.47758 18.2392 7.52227 17.5949 8.16665L12.2782 13.4834C11.9928 13.7687 11.9928 14.2313 12.2782 14.5166Z" fill="#EDF2FF" fill-opacity="0.6"/>
<path d="M12.0641 14C12.0641 14.1869 12.1355 14.374 12.2781 14.5166L17.5948 19.8334C18.2392 20.4776 18.2392 21.5223 17.5948 22.1667C16.9505 22.811 15.9059 22.811 15.2615 22.1667L8.26149 15.1667C7.93932 14.8445 7.77821 14.4223 7.77821 14.0001H12.0641V14Z" fill="white" fill-opacity="0.4"/>
</svg>
