<svg width="41" height="41" viewBox="0 0 41 41" fill="none" xmlns="http://www.w3.org/2000/svg">
<g clip-path="url(#clip0_348_471)">
<path d="M26.5177 41C34.5194 41 41 34.5194 41 26.5177L41 14.4823C41 6.48064 34.5194 -1.50889e-06 26.5177 -1.15913e-06L14.4823 -6.3304e-07C6.48064 -2.83278e-07 2.83278e-07 6.48064 6.3304e-07 14.4823L1.15913e-06 26.5177C1.50889e-06 34.5194 6.48065 41 14.4823 41L26.5177 41Z" fill="#0C458D" fill-opacity="0.5"/>
<path d="M14.4823 -6.3304e-07C6.48065 -2.83278e-07 2.83278e-07 6.48065 6.3304e-07 14.4823L1.15913e-06 26.5177C1.50889e-06 34.5194 6.48065 41 14.4823 41L26.5177 41C34.5194 41 41 34.5194 41 26.5177" fill="#0C458D" fill-opacity="0.41"/>
<path d="M0 26.5176C3.49762e-07 34.5192 6.48065 40.9998 14.4823 40.9998L26.5177 40.9998C34.5194 40.9998 41 34.5192 41 26.5176" fill="#0C458D" fill-opacity="0.7"/>
<path d="M19.4417 25.063L15.6062 21.1614C15.2094 20.7646 15.2094 20.1695 15.6062 19.7727L19.4417 15.9372C19.8384 15.5405 20.4336 15.5405 20.8304 15.9372C21.2271 16.334 21.2271 16.9292 20.8304 17.3259L18.6481 19.5743L27.5755 19.5743C28.1046 19.5743 28.5675 20.0372 28.5675 20.5663C28.5675 21.0953 28.1046 21.5582 27.5755 21.5582L18.582 21.5582L20.7642 23.7405C20.9626 23.9388 21.0288 24.2034 21.0288 24.4017C21.0288 24.6001 20.9626 24.8646 20.7642 25.063C20.4336 25.3937 19.8384 25.3937 19.4417 25.063Z" fill="#0C458D" fill-opacity="0.5"/>
<path d="M18.0549 25.063L14.2195 21.1614C13.8227 20.7646 13.8227 20.1695 14.2195 19.7727L18.0549 15.9372C18.4517 15.5405 19.0469 15.5405 19.4436 15.9372C19.8404 16.334 19.8404 16.9292 19.4436 17.3259L17.2614 19.5743L26.1888 19.5743C26.7178 19.5743 27.1807 20.0372 27.1807 20.5663C27.1807 21.0953 26.784 21.5582 26.1888 21.5582L17.1953 21.5582L19.3775 23.7405C19.5759 23.9388 19.642 24.2034 19.642 24.4017C19.642 24.6001 19.5759 24.8646 19.3775 25.063C19.0469 25.3937 18.4517 25.3937 18.0549 25.063Z" fill="white"/>
</g>
<defs>
<clipPath id="clip0_348_471">
<rect width="41" height="41" fill="white" transform="matrix(4.37114e-08 1 1 -4.37114e-08 0 0)"/>
</clipPath>
</defs>
</svg>
