<svg width="205" height="15" viewBox="0 0 205 15" fill="none" xmlns="http://www.w3.org/2000/svg">
<path d="M0 2.01031C0 0.901722 0.90171 0.00463604 2.01028 0.0103356L193.506 0.994892C194.132 0.99811 194.721 1.29415 195.096 1.79487L202.6 11.8C203.589 13.1185 202.648 15 201 15H2C0.895429 15 0 14.1046 0 13V2.01031Z" fill="#2E99DA" fill-opacity="0.1"/>
<path d="M2.009 0.260332L193.505 1.24489C194.053 1.2477 194.568 1.50674 194.896 1.94487L202.4 11.95C203.265 13.1037 202.442 14.75 201 14.75H2C1.0335 14.75 0.25 13.9665 0.25 13V2.01031C0.25 1.0403 1.039 0.255345 2.009 0.260332Z" stroke="white" stroke-opacity="0.2" stroke-width="0.5"/>
<line x1="60.5" y1="13" x2="60.5" y2="3" stroke="#51ADE5" stroke-opacity="0.2"/>
<line x1="109.5" y1="13" x2="109.5" y2="3" stroke="#51ADE5" stroke-opacity="0.2"/>
<line x1="156.5" y1="13" x2="156.5" y2="3" stroke="#51ADE5" stroke-opacity="0.2"/>
<path d="M30.66 6.05C30.62 5.86 30.5 5.7 30.38 5.56C30.1 5.22 29.76 4.94 29.37 4.75C28.52 4.32 27.6 4.15 26.65 4.15C26.18 4.15 25.7 4.18 25.23 4.18C25.02 4.19 25.02 4.18 24.98 3.97C24.97 3.93 24.96 3.89 24.94 3.86C24.93 3.85 24.89 3.84 24.87 3.86C24.82 3.89 24.82 3.94 24.82 4C24.79 4.18 24.78 4.18 24.63 4.19C24.57 4.2 24.5 4.21 24.43 4.22C24.42 4.22 24.4 4.26 24.39 4.28C24.38 4.31 24.39 4.34 24.42 4.34C24.49 4.35 24.56 4.36 24.62 4.37C24.79 4.39 24.81 4.4 24.82 4.56C24.82 4.64 24.82 4.72 24.82 4.8C24.84 6.65 24.86 8.49 24.88 10.34C24.88 10.48 24.94 10.65 24.83 10.77C24.74 10.86 24.6 10.8 24.48 10.83C24.45 10.83 24.43 10.85 24.41 10.87C24.4 10.87 24.4 10.89 24.4 10.9C24.4 10.91 24.41 10.93 24.41 10.93C24.45 10.95 24.49 10.97 24.53 10.97C24.62 10.99 24.72 10.97 24.8 11.01C24.93 11.06 24.85 11.2 24.91 11.29C24.93 11.32 24.94 11.33 24.98 11.32C24.99 11.31 25 11.31 25.01 11.3C25.02 11.27 25.04 11.23 25.05 11.19C25.1 10.99 25.1 10.98 25.27 10.98C25.66 10.98 26.06 10.98 26.45 10.98C26.45 10.99 26.45 11 26.45 11.01C26.57 11.01 26.69 11 26.82 11.01C27.6 11.07 28.36 10.95 29.1 10.71C29.31 10.64 29.5 10.55 29.68 10.42C30.08 10.12 30.37 9.74 30.57 9.28C31.02 8.21 30.94 7.13 30.66 6.05ZM30.2 7.84C30.26 7.45 30.22 7.06 30.19 6.67C30.19 6.65 30.21 6.61 30.23 6.61C30.25 6.61 30.28 6.63 30.3 6.64C30.37 6.73 30.38 6.84 30.39 6.95C30.44 7.41 30.39 7.86 30.13 8.34C30.16 8.12 30.17 7.98 30.2 7.84ZM25.01 5.79C24.98 5.44 25 5.09 24.99 4.73C25.09 4.78 25.08 4.87 25.08 4.93C25.06 5.2 25.06 5.46 25.08 5.73C25.09 5.74 25.05 5.76 25.01 5.79ZM25.09 10.37C25.1 10.38 25.12 10.38 25.12 10.39C25.11 10.41 25.11 10.43 25.1 10.46C25.09 10.45 25.07 10.44 25.07 10.44C25.08 10.42 25.08 10.39 25.09 10.37ZM25.1 10.75C25.09 10.74 25.07 10.74 25.07 10.73C25.07 10.7 25.08 10.68 25.09 10.66C25.1 10.67 25.13 10.68 25.13 10.69C25.13 10.71 25.11 10.73 25.1 10.75ZM25.38 10.8C25.32 10.82 25.27 10.78 25.24 10.74C25.23 10.73 25.24 10.69 25.24 10.67C25.25 10.64 25.27 10.63 25.3 10.64C25.35 10.67 25.39 10.7 25.43 10.72C25.44 10.73 25.44 10.75 25.44 10.76C25.42 10.78 25.4 10.79 25.38 10.8ZM25.33 8.55C25.34 8.55 25.36 8.55 25.36 8.55C25.36 8.58 25.37 8.61 25.36 8.63C25.35 8.67 25.32 8.66 25.32 8.62C25.31 8.6 25.33 8.57 25.33 8.55ZM25.64 9.91C25.62 9.91 25.6 9.88 25.6 9.86C25.6 9.81 25.6 9.75 25.67 9.75C25.69 9.75 25.7 9.79 25.71 9.81C25.7 9.85 25.71 9.92 25.64 9.91ZM25.55 4.53C25.46 4.5 25.39 4.42 25.29 4.42C25.22 4.42 25.14 4.42 25.06 4.42C25.07 4.4 25.07 4.38 25.07 4.37C25.23 4.36 25.39 4.36 25.54 4.35C25.67 4.34 25.78 4.38 25.86 4.48C25.87 4.5 25.88 4.53 25.87 4.55C25.87 4.57 25.83 4.6 25.82 4.6C25.73 4.58 25.64 4.56 25.55 4.53ZM26.07 10.76C26.03 10.79 26 10.8 25.96 10.77V10.74C25.98 10.73 26.01 10.73 26.03 10.73C26.07 10.73 26.08 10.74 26.07 10.76ZM26.12 5.8C26.11 6.78 26.09 7.76 26.08 8.73C26.08 9.06 26 9.38 26.04 9.71C26.04 9.74 26.02 9.78 26 9.82C26 9.83 25.98 9.84 25.97 9.83C25.94 9.83 25.91 9.81 25.91 9.8C25.95 9.56 25.96 9.32 25.95 9.07C25.94 8.82 25.97 8.56 25.89 8.31C25.86 8.22 25.88 8.12 25.9 8.03C25.94 7.81 25.94 7.6 25.91 7.38C25.9 7.28 25.93 7.19 25.94 7.1C25.95 6.93 25.93 6.78 25.82 6.64C25.84 6.68 25.85 6.71 25.86 6.75C25.86 6.76 25.86 6.78 25.86 6.78C25.83 6.8 25.82 6.79 25.83 6.75C25.83 6.72 25.82 6.68 25.82 6.64C25.9 6.44 25.92 6.22 25.88 6.01C25.85 5.77 25.93 5.53 25.88 5.29C25.87 5.24 25.87 5.15 25.9 5.1C25.94 5.03 26.02 5.09 26.09 5.07C26.2 5.04 26.32 5.02 26.44 5C26.49 4.99 26.55 4.97 26.6 4.98C26.96 5.09 27.32 5.03 27.68 5.09C27.93 5.12 28.16 5.16 28.39 5.25C28.53 5.3 28.65 5.36 28.76 5.48C28.86 5.59 29.03 5.66 29.16 5.75C29.24 5.81 29.36 5.85 29.37 5.97C29.41 5.99 29.46 5.99 29.49 6.01C29.7 6.28 29.89 6.56 29.9 6.92C29.9 7.27 29.87 7.62 29.75 7.96C29.74 7.99 29.7 8.02 29.65 8.08C29.61 7.92 29.66 7.8 29.65 7.67C29.65 7.52 29.65 7.37 29.63 7.22C29.62 7.09 29.58 6.96 29.54 6.83C29.5 6.69 29.43 6.55 29.38 6.41C29.33 6.29 29.3 6.15 29.21 6.04C28.99 5.84 28.76 5.66 28.51 5.49C28.12 5.25 27.71 5.19 27.27 5.21C27.15 5.21 27.02 5.21 26.9 5.21C26.7 5.21 26.5 5.21 26.3 5.28C26.19 5.32 26.11 5.39 26.12 5.52C26.12 5.61 26.12 5.71 26.12 5.8ZM27.09 10.02C27.08 9.96 27.11 9.94 27.14 9.94C27.46 9.91 27.78 9.88 28.1 9.86C27.77 10.06 27.43 10.06 27.09 10.02ZM28.35 9.58C28.12 9.65 27.88 9.72 27.64 9.73C27.27 9.75 26.91 9.78 26.54 9.79C26.23 9.8 26.23 9.8 26.23 9.47C26.23 9.32 26.23 9.17 26.24 9.03C26.25 8.55 26.26 8.08 26.27 7.6H26.28C26.28 7.04 26.28 6.49 26.28 5.93C26.28 5.84 26.28 5.74 26.29 5.65C26.3 5.47 26.33 5.42 26.5 5.41C26.91 5.39 27.32 5.35 27.72 5.42C28.4 5.54 28.95 5.87 29.26 6.55C29.6 7.31 29.54 8.05 29.23 8.79C29.06 9.18 28.77 9.46 28.35 9.58ZM29.42 10.39C29.32 10.45 29.23 10.48 29.11 10.45C29.09 10.45 29.07 10.42 29.06 10.4C29.06 10.38 29.08 10.34 29.1 10.34C29.57 10.16 29.91 9.82 30.22 9.43C30.23 9.42 30.25 9.42 30.28 9.41C30.28 9.52 30.21 9.61 30.16 9.7C29.96 9.98 29.71 10.2 29.42 10.39ZM30.28 9.4C30.26 9.33 30.3 9.27 30.32 9.21C30.35 9.28 30.37 9.35 30.28 9.4ZM30.34 9.17C30.37 9.13 30.39 9.09 30.42 9.05C30.42 9.11 30.39 9.15 30.34 9.17ZM30.48 8.99C30.47 9 30.45 9.01 30.43 9.02C30.44 9 30.45 8.99 30.45 8.97C30.46 8.96 30.46 8.93 30.46 8.94C30.5 8.94 30.5 8.96 30.48 8.99ZM36.4947 10.94C36.3147 10.79 36.3547 10.59 36.3547 10.41C36.3447 9.65 36.3447 8.89 36.3447 8.13C36.3447 7.8 36.2947 7.48 36.2147 7.16C36.1047 6.68 35.8247 6.34 35.4047 6.09C35.0247 5.87 34.6047 5.76 34.1647 5.73C33.4347 5.69 32.8047 5.92 32.2847 6.44C32.0047 6.72 31.8847 7.08 31.8247 7.46C31.8147 7.54 31.8647 7.59 31.9447 7.6C32.3347 7.63 32.7247 7.68 33.1547 7.66C33.0947 7.31 33.2747 7.15 33.5347 7.04C33.7347 6.95 33.9447 6.92 34.1647 6.93C34.5947 6.95 34.8147 7.13 34.9247 7.53C34.9547 7.65 34.9247 7.7 34.7947 7.73C34.7447 7.74 34.6847 7.74 34.6347 7.76C34.1147 7.86 33.5947 7.97 33.0847 8.09C32.6747 8.18 32.3147 8.37 32.0447 8.7C31.8847 8.9 31.7547 9.12 31.7447 9.39C31.7247 9.66 31.7547 9.93 31.8447 10.19C31.9647 10.54 32.1947 10.76 32.5647 10.85C32.7347 10.89 32.9047 10.94 33.0747 10.99C33.3447 11.06 33.6247 11.09 33.9147 11.04C34.2247 10.98 34.5147 10.87 34.7847 10.72C34.8947 10.66 34.9747 10.56 35.1047 10.54C35.1747 10.58 35.1747 10.65 35.1847 10.72C35.1947 10.84 35.2047 10.96 35.2147 11.08C35.2247 11.19 35.2947 11.22 35.3747 11.14C35.4347 11.08 35.5047 11.05 35.5847 11.05C35.7247 11.05 35.8547 11.05 35.9947 11.07C36.0847 11.09 36.1747 11.07 36.2647 11.12C36.3547 11.18 36.4047 11.08 36.4647 11.04C36.5047 11.01 36.5247 10.96 36.4947 10.94ZM34.2547 5.91C34.2847 5.9 34.3047 5.91 34.2947 5.94C34.2747 5.94 34.2647 5.94 34.2547 5.94C34.2547 5.94 34.2447 5.91 34.2547 5.91ZM34.8747 7.03C34.4547 6.67 34.0047 6.71 33.5347 6.86C33.2947 6.93 33.0847 7.07 33.0047 7.32C32.9447 7.48 32.8347 7.51 32.6947 7.49C32.5247 7.48 32.3647 7.47 32.2047 7.45C32.0147 7.43 31.9747 7.36 32.0547 7.18C32.1047 7.06 32.1947 7.03 32.3047 7.12C32.3747 7.18 32.4547 7.23 32.5447 7.26C32.6447 7.29 32.7347 7.28 32.7947 7.19C33.1047 6.74 33.6047 6.65 34.0947 6.54C34.2847 6.49 34.4947 6.57 34.6947 6.6C34.8147 6.62 34.8747 6.7 34.8947 6.82C34.9047 6.88 34.9247 6.95 34.8747 7.03ZM31.9847 9.86C31.9747 9.86 31.9547 9.84 31.9547 9.83C31.9647 9.81 31.9747 9.79 31.9947 9.77C31.9947 9.78 32.0047 9.79 32.0147 9.8C32.0247 9.83 32.0147 9.85 31.9847 9.86ZM33.9347 8.42V8.43L33.9147 8.42H33.9347ZM33.6547 8.6C33.6547 8.59 33.6547 8.59 33.6547 8.59C33.6547 8.6 33.6547 8.6 33.6547 8.6ZM33.6547 8.59C33.6747 8.62 33.6347 8.6 33.6547 8.59V8.59ZM33.4347 8.68V8.7L33.4147 8.69L33.4347 8.68ZM32.1547 10.41C32.1447 10.4 32.1447 10.36 32.1547 10.34C32.1647 10.33 32.1947 10.32 32.2147 10.33C32.2547 10.34 32.3047 10.35 32.3247 10.38C32.3847 10.45 32.5047 10.49 32.5147 10.61C32.3447 10.64 32.2447 10.52 32.1547 10.41ZM32.5847 10.66C32.5447 10.67 32.5147 10.66 32.5147 10.61C32.5247 10.6 32.5347 10.6 32.5447 10.6C32.5647 10.61 32.5847 10.62 32.6147 10.63C32.6047 10.64 32.5947 10.66 32.5847 10.66ZM32.6747 9.46C32.6547 9.45 32.6447 9.43 32.6347 9.42C32.6947 9.41 32.6747 9.44 32.6747 9.46ZM32.8247 10.21C32.8147 10.19 32.8047 10.17 32.7947 10.16C32.8547 10.15 32.8447 10.18 32.8247 10.21ZM32.8347 10.21C32.8447 10.21 32.8447 10.21 32.8447 10.21C32.8747 10.23 32.8647 10.23 32.8347 10.21ZM32.8447 9.78C32.8247 9.79 32.7947 9.78 32.7747 9.76C32.6647 9.69 32.6547 9.59 32.6747 9.47C32.7347 9.4 32.7747 9.32 32.8547 9.27C32.7947 9.42 32.8447 9.57 32.8747 9.72C32.8747 9.74 32.8547 9.78 32.8447 9.78ZM34.3147 10.73C33.9647 10.89 33.6147 10.95 33.2347 10.81C33.6147 10.81 33.9747 10.66 34.3547 10.67C34.3347 10.69 34.3347 10.72 34.3147 10.73ZM33.3747 10.14C33.3847 10.14 33.4047 10.13 33.4147 10.13C33.4647 10.13 33.5147 10.14 33.5747 10.15C33.5747 10.15 33.5747 10.17 33.5847 10.18C33.5747 10.19 33.5747 10.2 33.5647 10.21C33.5147 10.24 33.4647 10.23 33.4147 10.2C33.3947 10.19 33.3847 10.16 33.3747 10.14ZM34.6147 10.65C34.5347 10.66 34.4447 10.66 34.3647 10.66C34.4447 10.62 34.5247 10.62 34.6147 10.65ZM33.7447 9.97C33.5647 9.97 33.3947 9.96 33.2347 9.87C32.9347 9.68 32.9247 9.35 33.2147 9.14C33.4247 9 33.6547 8.94 33.8847 8.86C34.1947 8.75 34.5047 8.66 34.8247 8.64C34.9347 8.63 34.9747 8.68 34.9747 8.78C34.9747 9.52 34.4947 9.97 33.7447 9.97ZM34.9647 8.11C34.8947 8.1 34.8347 8.06 34.8247 7.99C34.8147 7.92 34.8747 7.9 34.9247 7.9C35.0047 7.9 35.0447 7.95 35.0347 8.04C35.0247 8.07 35.0147 8.11 34.9647 8.11ZM35.6147 10.85C35.5247 10.92 35.3847 10.88 35.3647 10.77C35.3647 10.74 35.3747 10.69 35.3947 10.66C35.4047 10.65 35.4547 10.65 35.4747 10.66C35.5247 10.68 35.5647 10.71 35.6047 10.74C35.6247 10.76 35.6247 10.79 35.6347 10.82C35.6247 10.83 35.6247 10.84 35.6147 10.85ZM36.1247 9.59C36.0847 9.13 36.0447 8.67 36.0147 8.21C35.9847 7.89 35.9547 7.56 35.8747 7.25C35.7847 6.92 35.6147 6.65 35.3547 6.44C35.2847 6.38 35.2147 6.32 35.1647 6.23C35.2247 6.17 35.2747 6.21 35.3147 6.24C35.7147 6.46 35.9747 6.8 36.0747 7.25C36.1047 7.42 36.1447 7.6 36.1547 7.77C36.2047 8.38 36.2047 8.99 36.1247 9.59ZM42.1855 5.81C42.1155 5.8 42.0455 5.81 41.9855 5.8C41.7355 5.77 41.4655 5.89 41.2355 5.71C41.2155 5.7 41.1755 5.7 41.1555 5.72C41.0455 5.85 40.8855 5.8 40.7355 5.82C40.7155 5.83 40.6855 5.84 40.6655 5.85C40.6455 5.86 40.6155 5.89 40.6155 5.91C40.6155 5.93 40.6355 5.96 40.6555 5.96C40.7355 5.98 40.8155 5.99 40.8955 6C40.9455 6.01 40.9655 6.05 40.9555 6.09C40.9455 6.16 40.9155 6.22 40.8855 6.28C40.5155 7.18 40.1355 8.08 39.7555 8.98C39.7255 9.05 39.7155 9.14 39.6255 9.19C39.5355 9.16 39.5255 9.07 39.4955 9C39.1255 8.07 38.7555 7.13 38.3755 6.2C38.3155 6.05 38.3655 5.96 38.4455 5.84C38.3555 5.8 38.2655 5.77 38.1955 5.72C38.0555 5.61 38.0155 5.8 37.9055 5.79C37.8655 5.78 37.8255 5.8 37.7855 5.79C37.5355 5.77 37.2755 5.86 37.0255 5.73C36.9455 5.69 36.8755 5.78 36.8355 5.84C36.7855 5.93 36.8755 5.95 36.9355 5.97C37.0655 6.03 37.0755 6.17 37.1155 6.27C37.5955 7.44 38.0755 8.61 38.5555 9.77C38.6655 10.06 38.7855 10.35 38.9055 10.64C38.9655 10.76 38.9655 10.87 38.9055 10.99C38.8455 11.1 38.8055 11.21 38.7555 11.32C38.5155 11.87 38.2855 12.42 38.0455 12.97C38.0255 13.03 37.9655 13.1 38.0255 13.15C38.0955 13.23 38.1355 13.14 38.1755 13.1C38.2355 13.03 38.3255 13.03 38.4055 13.03C38.5955 13.03 38.7855 13.03 38.9755 13.03C39.1055 13.02 39.1655 13.07 39.1555 13.22C39.1555 13.28 39.2555 13.3 39.2755 13.25C39.3555 13.08 39.4755 13.01 39.6655 13.02C39.6755 13.02 39.6855 13.02 39.6955 13.01C39.7155 13 39.7455 12.98 39.7555 12.96C39.7755 12.9 39.7255 12.89 39.6955 12.88C39.4955 12.79 39.4955 12.79 39.5555 12.64C39.5855 12.55 39.6255 12.46 39.6655 12.37C40.4955 10.35 41.3255 8.34 42.1555 6.32C42.2055 6.21 42.2555 6.09 42.2955 5.98C42.3255 5.88 42.2755 5.82 42.1855 5.81ZM38.9055 8.07C38.9155 8.07 38.9255 8.07 38.9255 8.08C38.9255 8.09 38.9255 8.1 38.9255 8.11C38.9155 8.1 38.9055 8.1 38.9055 8.1C38.9055 8.09 38.9055 8.08 38.9055 8.07ZM37.9755 5.98C38.0055 5.97 38.0555 5.96 38.0855 5.98C38.1555 6.03 38.1755 6.1 38.1355 6.19C38.0855 6.15 38.0355 6.11 37.9855 6.07C37.9555 6.05 37.9255 6.01 37.9755 5.98ZM37.8555 7.13C37.8555 7.14 37.8555 7.14 37.8555 7.14L37.8355 7.11L37.8555 7.13ZM37.6255 5.98C37.6455 5.98 37.6855 5.98 37.6955 6C37.7155 6.02 37.6955 6.05 37.6655 6.05C37.6455 6.05 37.6155 6.04 37.6055 6.03C37.5855 6 37.5955 5.98 37.6255 5.98ZM38.1355 8.29C38.0955 8.18 38.0355 8.07 37.9955 7.96C37.7355 7.33 37.4755 6.7 37.2155 6.07L37.2355 6.05L37.2255 6.08C37.3555 6.08 37.4555 6.14 37.5055 6.26C37.5555 6.41 37.6155 6.56 37.6655 6.71C37.7155 6.86 37.7455 7.02 37.8555 7.14C37.8455 7.21 37.8655 7.27 37.8855 7.33C38.0555 7.66 38.1555 8.01 38.2555 8.37C38.2055 8.37 38.1655 8.35 38.1355 8.29ZM38.3055 8.62C38.2155 8.55 38.2155 8.47 38.2555 8.37C38.2955 8.45 38.3055 8.54 38.3055 8.62ZM38.7855 9.79C38.6855 9.75 38.6955 9.65 38.6555 9.58C38.6055 9.47 38.5855 9.36 38.4955 9.28C38.4955 9.12 38.4355 8.99 38.3355 8.87C38.3255 8.8 38.3255 8.72 38.3155 8.65C38.4055 8.71 38.3855 8.79 38.3355 8.87C38.5555 8.97 38.5755 9.03 38.4955 9.27C38.5355 9.28 38.5955 9.27 38.6055 9.29C38.6855 9.45 38.8155 9.59 38.7855 9.79ZM38.7955 9.8C38.8355 9.8 38.8655 9.82 38.8855 9.86C39.0055 10.08 39.1255 10.31 39.2555 10.53C39.3055 10.62 39.2955 10.71 39.2355 10.79C39.1555 10.79 39.1255 10.72 39.1055 10.66C38.9955 10.37 38.8155 10.12 38.7955 9.8ZM38.6355 12.84C38.5455 12.86 38.4555 12.87 38.3655 12.82C38.3555 12.81 38.3455 12.78 38.3355 12.75C38.3455 12.72 38.3655 12.68 38.3955 12.66C38.4755 12.6 38.5655 12.62 38.6455 12.67C38.6755 12.68 38.7055 12.73 38.7055 12.76C38.7055 12.79 38.6655 12.83 38.6355 12.84ZM38.9155 11.72C38.8955 11.77 38.8755 11.84 38.8155 11.83C38.7055 11.8 38.7855 11.72 38.7955 11.68C38.8455 11.54 38.8855 11.39 38.9955 11.29C39.0655 11.35 39.0655 11.42 39.0355 11.47C39.0055 11.56 38.9555 11.64 38.9155 11.72ZM39.3355 12.68C39.3155 12.77 39.2655 12.85 39.1455 12.85C39.1255 12.84 39.0855 12.83 39.0655 12.8C39.0355 12.76 39.0655 12.72 39.0955 12.7C39.1455 12.67 39.2055 12.64 39.2655 12.62C39.3155 12.6 39.3455 12.63 39.3355 12.68ZM39.5055 12.3C39.4855 12.33 39.4555 12.36 39.4355 12.39C39.4155 12.42 39.3855 12.41 39.3755 12.38C39.3555 12.32 39.4155 12.24 39.4755 12.24C39.5055 12.25 39.5155 12.27 39.5055 12.3ZM39.7155 9.68C39.6855 9.71 39.6455 9.72 39.6155 9.69C39.5855 9.66 39.5855 9.61 39.6155 9.59C39.6655 9.55 39.7155 9.51 39.7655 9.47C39.7755 9.55 39.7655 9.62 39.7155 9.68ZM39.7755 9.46C39.7855 9.4 39.7755 9.33 39.8455 9.3C39.8555 9.37 39.8555 9.44 39.7755 9.46ZM39.8555 9.28C39.8555 9.2 39.8955 9.14 39.9655 9.11C39.9655 9.1 39.9655 9.1 39.9755 9.09C39.9755 9.1 39.9755 9.1 39.9755 9.1C39.9055 9.14 39.9455 9.25 39.8555 9.28ZM40.2855 10.3L40.2655 10.29H40.2855C40.2855 10.3 40.2855 10.3 40.2855 10.3ZM40.7155 9.14C40.7055 9.14 40.7055 9.1 40.7155 9.08C40.7255 9.06 40.7555 9.05 40.7755 9.04C40.7855 9.06 40.7855 9.08 40.7955 9.1C40.7855 9.14 40.7555 9.16 40.7155 9.14ZM40.9855 8.66C40.9755 8.68 40.9655 8.69 40.9455 8.71C40.9455 8.68 40.9355 8.66 40.9455 8.64C40.9555 8.62 40.9755 8.61 40.9955 8.6C40.9955 8.62 40.9955 8.64 40.9855 8.66ZM41.0255 8.55C41.0255 8.56 41.0155 8.56 41.0155 8.56C41.0255 8.55 41.0255 8.54 41.0355 8.53C41.0255 8.54 41.0255 8.55 41.0255 8.55ZM41.2255 8.07C41.2255 8.08 41.2155 8.09 41.2055 8.1C41.1955 8.09 41.1755 8.08 41.1755 8.07C41.1755 8.02 41.1955 8 41.2355 8C41.2355 8.03 41.2355 8.05 41.2255 8.07ZM41.5355 7.34C41.4055 7.54 41.4155 7.81 41.2455 7.99C41.1555 7.73 41.2655 7.5 41.3955 7.29C41.4155 7.25 41.4555 7.23 41.4955 7.24C41.5455 7.26 41.5555 7.31 41.5355 7.34ZM41.9855 6.18C41.9155 6.19 41.9255 6.12 41.9055 6.07C41.8955 6 41.9255 5.98 41.9955 5.97C42.0255 5.98 42.0755 5.99 42.0755 6.03C42.0655 6.1 42.0655 6.18 41.9855 6.18ZM46.7515 7.96C46.7915 7.99 46.8615 7.91 46.8815 7.83C46.9115 7.65 46.9115 7.48 46.8715 7.3C46.7715 6.8 46.5015 6.41 46.0715 6.12C45.3415 5.64 44.2915 5.66 43.5715 6.16C43.2815 6.37 43.0615 6.64 42.9115 6.97C42.8515 7.1 42.8215 7.23 42.8415 7.36C42.9515 8.31 43.2715 8.57 44.0415 8.79C44.0815 8.81 44.1215 8.81 44.1615 8.81C44.3315 8.85 44.5115 8.87 44.6815 8.91C44.9215 8.97 45.1615 9.01 45.3915 9.1C45.6915 9.22 45.7215 9.55 45.4515 9.74C45.0615 10.03 44.2715 9.93 43.9515 9.56C43.9415 9.55 43.9315 9.54 43.9215 9.53C43.8915 9.46 43.8815 9.41 43.9615 9.36C43.9915 9.34 44.0215 9.32 44.0115 9.27C44.0015 9.21 43.9615 9.21 43.9215 9.21C43.5515 9.21 43.1915 9.21 42.8215 9.21C42.7615 9.21 42.6915 9.2 42.6415 9.27C42.6615 9.4 42.6915 9.53 42.7115 9.66C42.7715 9.95 42.9215 10.19 43.1315 10.39C43.3115 10.56 43.5215 10.68 43.7515 10.77C44.3915 11.02 45.0515 11.03 45.7015 10.82C45.9915 10.72 46.2415 10.57 46.4615 10.36C46.9915 9.86 46.8915 9.14 46.7015 8.73C46.5615 8.43 46.2915 8.26 46.0015 8.15C45.7315 8.05 45.4615 7.95 45.1815 7.91C44.9615 7.87 44.7515 7.83 44.5415 7.77C44.1015 7.66 44.0615 7.53 44.2915 7.11L44.2815 7.12C44.3915 7.04 44.4515 6.91 44.5915 6.87C44.9515 6.76 45.3715 6.94 45.5615 7.28C45.6115 7.36 45.6015 7.44 45.5115 7.49C45.4815 7.51 45.4515 7.54 45.4715 7.58C45.5015 7.61 45.5415 7.63 45.5715 7.63C45.6715 7.64 45.7615 7.63 45.8615 7.63C46.1015 7.62 46.3515 7.62 46.5915 7.61C46.6715 7.61 46.7215 7.65 46.7215 7.73C46.7215 7.76 46.7215 7.79 46.7115 7.81C46.7115 7.87 46.7115 7.92 46.7515 7.96ZM42.9415 9.5C42.9215 9.5 42.8815 9.48 42.8815 9.46C42.8615 9.41 42.9115 9.39 42.9515 9.39C42.9715 9.38 42.9915 9.41 43.0215 9.42C43.0115 9.46 42.9815 9.49 42.9415 9.5ZM43.6215 9.39C43.6615 9.4 43.7015 9.42 43.6915 9.47C43.6915 9.51 43.6715 9.52 43.6415 9.5C43.6115 9.48 43.5815 9.45 43.5515 9.42C43.5815 9.41 43.6015 9.4 43.6215 9.39ZM43.1615 10.09C43.1515 10.09 43.1515 10.09 43.1515 10.08C43.1515 10.09 43.1615 10.09 43.1615 10.09ZM43.1715 10.11C43.1915 10.13 43.2115 10.16 43.2315 10.19C43.2015 10.17 43.1815 10.14 43.1715 10.11ZM43.6615 10.51C43.4915 10.47 43.3215 10.4 43.2615 10.21C43.4515 10.25 43.6315 10.33 43.7515 10.49C43.7215 10.5 43.6915 10.52 43.6615 10.51ZM43.9215 10.65C43.8515 10.63 43.7815 10.59 43.7715 10.5C43.9915 10.57 44.2015 10.65 44.4415 10.74C44.2415 10.76 44.0715 10.71 43.9215 10.65ZM44.4615 10.25C44.4515 10.24 44.4515 10.22 44.4515 10.21C44.5515 10.14 44.6515 10.19 44.8015 10.24C44.6615 10.29 44.5615 10.32 44.4615 10.25ZM45.1015 10.73C45.2115 10.67 45.3115 10.71 45.4115 10.73C45.4115 10.73 45.4115 10.73 45.4015 10.73C45.3115 10.71 45.2115 10.8 45.1015 10.73ZM45.4115 10.73C45.4015 10.62 45.4715 10.59 45.5615 10.57C45.6415 10.55 45.7315 10.53 45.8215 10.52C45.7215 10.66 45.5415 10.66 45.4115 10.73ZM46.0515 10.47C46.1215 10.31 46.1315 10.3 46.3015 10.33C46.2015 10.33 46.1315 10.41 46.0515 10.47ZM46.3615 10.18C46.3415 10.23 46.3315 10.27 46.3115 10.32C46.2615 10.28 46.2315 10.23 46.2915 10.17C46.3115 10.16 46.3415 10.16 46.3615 10.15C46.3615 10.16 46.3615 10.17 46.3615 10.18ZM46.6115 9.72C46.6015 9.7 46.5815 9.68 46.5815 9.65C46.5815 9.63 46.6015 9.61 46.6215 9.59C46.6315 9.61 46.6415 9.64 46.6515 9.66C46.6315 9.68 46.6215 9.7 46.6115 9.72ZM46.3615 8.56C46.5815 8.78 46.6915 9.04 46.6415 9.38C46.5515 9.33 46.5615 9.24 46.5515 9.18C46.5015 8.91 46.3715 8.69 46.1515 8.51C46.2315 8.48 46.3015 8.5 46.3615 8.56ZM46.0315 8.36C46.0915 8.4 46.1915 8.4 46.1515 8.5C46.1415 8.5 46.1315 8.49 46.1215 8.49C46.0715 8.47 46.0215 8.44 46.0115 8.39C46.0015 8.38 46.0315 8.36 46.0315 8.36ZM46.0415 10.48C45.9815 10.5 45.9115 10.54 45.8415 10.51C45.8915 10.44 45.9715 10.44 46.0415 10.48ZM45.6315 8.87C45.6615 8.89 45.6815 8.94 45.6515 8.97C45.6415 8.99 45.6015 9 45.5915 8.99C45.4215 8.9 45.2215 8.9 45.0815 8.76C45.2715 8.78 45.4715 8.76 45.6315 8.87ZM45.1415 8.29C45.1615 8.3 45.1815 8.33 45.1815 8.35C45.1715 8.37 45.1415 8.39 45.1215 8.39C45.0115 8.4 44.9015 8.38 44.8315 8.28C44.9415 8.22 45.0415 8.24 45.1415 8.29ZM44.6615 8.7C44.4715 8.73 44.3815 8.67 44.2615 8.62C44.4215 8.53 44.5015 8.66 44.6615 8.7ZM43.2315 8.04C43.4415 8.16 43.6715 8.26 43.8015 8.48C43.5115 8.46 43.3215 8.31 43.2315 8.04ZM43.8815 8.55C43.8315 8.55 43.7915 8.55 43.8115 8.49C43.8215 8.48 43.8315 8.47 43.8415 8.48C43.8615 8.49 43.8815 8.51 43.9015 8.52C43.9015 8.53 43.8915 8.55 43.8815 8.55ZM43.8015 8.08C43.7815 8.06 43.7615 8.03 43.7615 8.02C43.7715 7.97 43.8115 7.97 43.8515 7.98C43.9415 8 44.0315 8.04 44.0915 8.13C43.9615 8.17 43.8815 8.12 43.8015 8.08ZM45.1115 6.63C45.1115 6.63 45.1315 6.62 45.1415 6.62C45.2815 6.61 45.3315 6.65 45.3115 6.81C45.2515 6.78 45.1915 6.74 45.1315 6.7C45.1115 6.68 45.1115 6.65 45.1115 6.63ZM45.3215 6.82C45.3215 6.81 45.3315 6.8 45.3415 6.8C45.3415 6.8 45.3415 6.8 45.3515 6.8C45.3415 6.81 45.3315 6.81 45.3215 6.82ZM46.3215 6.59C46.3115 6.56 46.3615 6.56 46.3215 6.59V6.59ZM46.2315 7.44C46.1615 7.44 46.0915 7.44 46.0315 7.44C45.9615 7.44 45.9015 7.46 45.8415 7.41C45.8115 7.37 45.9415 7.27 46.0415 7.26C46.1115 7.25 46.1715 7.28 46.2315 7.31C46.2815 7.33 46.3315 7.33 46.3715 7.29C46.3315 7.35 46.3315 7.44 46.2315 7.44ZM46.5815 7.41C46.5715 7.42 46.5315 7.42 46.5115 7.41C46.4715 7.37 46.4215 7.33 46.3815 7.28C46.4715 7.23 46.5415 7.25 46.5915 7.34C46.6015 7.36 46.5915 7.4 46.5815 7.41Z" fill="#51ADE5" fill-opacity="0.8"/>
<path d="M131.56 4.13C131.38 4.12 131.19 4.11 131 4.1C130.78 4.1 130.56 4.12 130.35 4.04C130.35 4.03 130.35 4.03 130.34 4.03C130.35 4.03 130.35 4.04 130.35 4.05C130.35 4.04 130.34 4.03 130.33 4.02C130.28 3.96 130.23 3.88 130.13 3.98C130.03 4.09 129.84 4.13 129.85 4.34C129.85 4.38 129.79 4.43 129.76 4.47C129.25 5.17 128.73 5.87 128.22 6.57C128.19 6.62 128.15 6.66 128.11 6.69C128.08 6.72 128.03 6.73 128 6.69C127.93 6.63 127.87 6.56 127.81 6.48C127.29 5.84 126.77 5.19 126.25 4.55C126.16 4.43 126.06 4.31 125.97 4.2C125.92 4.13 125.85 4.1 125.76 4.09C125.34 4.07 124.92 4.09 124.51 4.1C124.48 4.1 124.45 4.12 124.43 4.13C124.42 4.13 124.42 4.15 124.41 4.16C124.4 4.19 124.4 4.21 124.43 4.23C124.47 4.24 124.51 4.25 124.55 4.26C124.78 4.3 124.79 4.3 124.79 4.53C124.79 4.62 124.79 4.72 124.79 4.81C124.79 6.47 124.79 8.13 124.79 9.78C124.79 10.17 124.84 10.55 124.71 10.96C125.25 10.95 125.75 10.93 126.25 10.91C126.29 10.91 126.33 10.9 126.36 10.88C126.38 10.87 126.39 10.84 126.4 10.82C126.41 10.81 126.39 10.8 126.38 10.79C126.36 10.78 126.33 10.77 126.31 10.76C126.09 10.7 126.09 10.7 126.09 10.51C126.08 10.21 126.08 9.91 126.07 9.61C126.06 8.66 126.05 7.71 126.03 6.76C126.03 6.66 126.04 6.55 126.04 6.44C126.04 6.4 126.05 6.38 126.08 6.38C126.11 6.39 126.14 6.39 126.15 6.41C126.18 6.43 126.21 6.47 126.24 6.5C126.74 7.12 127.24 7.75 127.75 8.37C127.77 8.4 127.8 8.43 127.82 8.46C127.88 8.53 127.9 8.6 127.83 8.68C127.78 8.74 127.73 8.81 127.69 8.88C127.66 8.91 127.65 8.95 127.63 8.98C127.61 9.01 127.61 9.04 127.64 9.05C127.67 9.06 127.7 9.07 127.72 9.06C127.75 9.04 127.78 9.01 127.81 8.98C127.9 8.9 127.94 8.77 128.12 8.76C128.28 8.75 128.08 8.5 128.25 8.44C128.75 7.81 129.24 7.18 129.73 6.55C129.77 6.49 129.82 6.44 129.87 6.4C129.91 6.37 129.96 6.4 129.96 6.43C129.98 6.51 129.98 6.6 129.99 6.68C130 7.9 130.02 9.12 130.04 10.34C130.04 10.44 130.04 10.53 130.03 10.63C130.02 10.68 129.98 10.72 129.93 10.74C129.86 10.76 129.73 10.73 129.72 10.82C129.72 10.96 129.86 10.9 129.94 10.92C130.02 10.94 130.04 11.01 130.08 11.06C130.11 11.13 130.17 11.13 130.19 11.06C130.23 10.96 130.29 10.91 130.4 10.91C130.51 10.91 130.62 10.88 130.72 10.94C130.77 10.97 130.82 10.99 130.87 10.95C130.97 10.86 131.11 10.92 131.22 10.84C131.29 10.49 131.34 10.13 131.27 9.76C131.24 9.55 131.24 9.33 131.24 9.11C131.23 7.63 131.22 6.15 131.21 4.67C131.21 4.55 131.17 4.42 131.26 4.32C131.34 4.23 131.47 4.29 131.57 4.26C131.59 4.25 131.63 4.23 131.63 4.21C131.63 4.17 131.61 4.13 131.56 4.13ZM125.24 7.77H125.26C125.27 7.8 125.26 7.81 125.24 7.8C125.24 7.79 125.24 7.78 125.24 7.77ZM125.15 7.06C125.16 7.03 125.18 7.04 125.18 7.07C125.19 7.11 125.18 7.14 125.18 7.18C125.17 7.18 125.16 7.17 125.16 7.17C125.15 7.13 125.14 7.1 125.15 7.06ZM125.37 10.7C125.36 10.77 125.3 10.77 125.25 10.78C125.23 10.78 125.22 10.78 125.21 10.78C125.14 10.78 125.07 10.77 125.01 10.77C124.94 10.68 124.96 10.58 124.96 10.49C124.96 9.65 124.97 8.81 124.98 7.97C124.98 7.59 124.98 7.22 124.98 6.84C125 6.84 125.01 6.84 125.03 6.85C125.03 7.29 125.03 7.74 125.03 8.18C125.04 8.81 125.05 9.43 125.06 10.05C125.06 10.26 125.08 10.45 125.31 10.56C125.35 10.58 125.37 10.64 125.37 10.7ZM125.7 7.25C125.64 6.77 125.69 6.29 125.7 5.8C125.7 5.76 125.72 5.71 125.76 5.72C125.81 5.74 125.88 5.79 125.88 5.82C125.85 5.94 125.86 6.06 125.86 6.18C125.86 7.03 125.86 7.88 125.87 8.73C125.87 8.78 125.87 8.83 125.87 8.92C125.75 8.8 125.79 8.68 125.79 8.58C125.78 8.14 125.76 7.7 125.7 7.25ZM125.91 10.62C125.8 10.37 125.8 10.37 125.81 10.21C125.84 9.95 125.89 9.68 125.91 9.42C125.91 9.81 125.91 10.21 125.91 10.62ZM125.97 4.73C125.83 4.65 125.79 4.55 125.75 4.45C125.73 4.4 125.64 4.37 125.69 4.29C125.72 4.23 125.87 4.3 125.91 4.4C125.96 4.49 125.99 4.59 125.97 4.73ZM126.12 5.18C126.11 5.18 126.11 5.18 126.12 5.18V5.18ZM126.17 5.19C126.18 5.2 126.17 5.22 126.17 5.19V5.19ZM126.5 5.66C126.54 5.66 126.57 5.68 126.6 5.7C126.56 5.71 126.53 5.69 126.5 5.66ZM126.62 5.72C126.63 5.74 126.63 5.76 126.64 5.77C126.6 5.77 126.61 5.74 126.62 5.72ZM126.74 6.79C126.74 6.78 126.77 6.78 126.78 6.79C126.86 6.84 126.82 6.9 126.79 6.95C126.78 6.94 126.78 6.93 126.78 6.92C126.78 6.87 126.71 6.85 126.74 6.79ZM126.92 7.05H126.93C126.93 7.05 126.93 7.05 126.93 7.06C126.93 7.05 126.92 7.05 126.92 7.05ZM126.94 7.06C126.95 7.07 126.92 7.09 126.94 7.06V7.06ZM127.79 7.51C127.77 7.5 127.74 7.5 127.73 7.49C127.45 7.09 127.17 6.69 126.89 6.29C126.84 6.23 126.81 6.15 126.78 6.09C126.83 6 126.88 6.05 126.91 6.09C126.99 6.18 127.06 6.28 127.13 6.38C127.19 6.47 127.24 6.57 127.32 6.64C127.55 6.86 127.67 7.16 127.81 7.43C127.81 7.45 127.8 7.48 127.79 7.51ZM130.28 9.89C130.28 9.63 130.28 9.45 130.28 9.25C130.35 9.5 130.35 9.53 130.28 9.89ZM128.64 6.4C128.59 6.42 128.55 6.43 128.5 6.44C128.51 6.44 128.51 6.44 128.51 6.44C128.55 6.43 128.59 6.41 128.64 6.4ZM128.59 6.9L128.58 6.89L128.59 6.9ZM128.5 6.44C128.57 6.56 128.47 6.63 128.42 6.71C128.38 6.6 128.49 6.53 128.5 6.44ZM128.02 8.38C127.99 8.36 127.96 8.34 127.93 8.31C127.95 8.29 127.97 8.27 127.98 8.27C128 8.28 128.03 8.3 128.03 8.32C128.04 8.34 128.02 8.36 128.02 8.38ZM128.14 7.03C128.18 7.08 128.15 7.11 128.11 7.12C128.07 7.13 128.02 7.1 128.04 7.05C128.05 7.01 128.1 7 128.14 7.03C128.13 6.91 128.28 6.86 128.25 6.74C128.3 6.91 128.3 6.92 128.14 7.03ZM128.25 6.74C128.3 6.73 128.35 6.73 128.4 6.72C128.35 6.76 128.3 6.75 128.25 6.74ZM128.47 6.95C128.46 6.93 128.48 6.89 128.49 6.89C128.52 6.89 128.56 6.9 128.59 6.91C128.57 6.92 128.56 6.94 128.54 6.95C128.51 6.99 128.49 7 128.47 6.95ZM129.7 6.22C129.69 6.21 129.7 6.19 129.71 6.18C129.73 6.17 129.74 6.16 129.76 6.15C129.76 6.17 129.75 6.19 129.75 6.21C129.73 6.24 129.71 6.24 129.7 6.22ZM129.79 6.11C129.8 6.09 129.81 6.08 129.83 6.07C129.82 6.09 129.8 6.1 129.79 6.11ZM129.88 6.04C129.89 5.99 129.92 5.99 129.96 5.99C129.93 6.01 129.9 6.02 129.88 6.04ZM130.17 6.72C130.15 6.51 130.14 6.29 130.11 6.08C130.1 6 130.05 5.98 129.97 5.98C129.93 5.88 130.01 5.81 130.07 5.74C130.11 5.68 130.16 5.57 130.24 5.6C130.36 5.63 130.29 5.75 130.29 5.84C130.3 6.13 130.3 6.42 130.3 6.72C130.3 6.76 130.29 6.8 130.24 6.8C130.2 6.8 130.18 6.76 130.17 6.72ZM130.61 10.72C130.53 10.73 130.45 10.74 130.37 10.73C130.24 10.73 130.19 10.65 130.22 10.5C130.23 10.46 130.29 10.43 130.3 10.46C130.39 10.64 130.54 10.59 130.69 10.57C130.69 10.56 130.69 10.56 130.69 10.55C130.69 10.56 130.69 10.56 130.7 10.56C130.69 10.62 130.7 10.71 130.61 10.72ZM131.03 7.4C130.92 7.08 130.96 6.76 131.03 6.44C131.06 6.6 131.06 6.77 131.06 6.94C131.06 7.09 131.08 7.25 131.03 7.4ZM131.05 9.25C131.04 9.28 131.02 9.27 131.01 9.23C131.01 9.19 131.01 9.15 131.01 9.11C131.03 9.12 131.05 9.12 131.05 9.13C131.05 9.17 131.06 9.21 131.05 9.25ZM130.75 4.44C130.76 4.3 130.83 4.24 130.95 4.28C131.01 4.29 131.03 4.34 131.04 4.39C131.04 4.45 131.03 4.5 130.98 4.53C130.95 4.54 130.92 4.54 130.9 4.54C130.76 4.59 130.73 4.57 130.75 4.44ZM131.01 10.7C130.93 10.72 130.88 10.67 130.86 10.6C130.82 10.5 130.87 10.46 130.96 10.43C130.99 10.43 131.01 10.43 131.04 10.42C131.05 10.46 131.07 10.5 131.07 10.54C131.08 10.6 131.09 10.68 131.01 10.7ZM130.34 4.03C130.34 4.02 130.34 4.02 130.34 4.02C130.33 4.02 130.33 4.02 130.33 4.02C130.34 4.02 130.34 4.02 130.34 4.03ZM133.848 5.8C133.848 5.78 133.828 5.76 133.808 5.75C133.778 5.73 133.748 5.74 133.738 5.77C133.698 5.93 133.598 5.98 133.438 5.97C133.238 5.96 133.038 5.96 132.828 5.96C132.748 5.96 132.668 5.96 132.588 5.97C132.548 5.98 132.508 6.04 132.528 6.06C132.738 6.25 132.648 6.49 132.658 6.71C132.658 7.94 132.648 9.17 132.648 10.39C132.648 10.52 132.678 10.66 132.628 10.76C132.548 10.9 132.628 11 132.658 11.11C132.658 11.14 132.698 11.18 132.728 11.19C132.778 11.22 132.798 11.17 132.808 11.13C132.828 11.05 132.868 11.01 132.938 11C133.038 11 133.128 11 133.228 11C133.388 11 133.548 11.01 133.718 11.01C133.788 11.01 133.838 10.96 133.848 10.88C133.858 10.83 133.858 10.77 133.858 10.72C133.858 9.93 133.858 9.15 133.858 8.36H133.868C133.868 7.63 133.868 6.9 133.868 6.17C133.868 6.05 133.858 5.92 133.848 5.8ZM133.258 8.21C133.258 8.24 133.258 8.26 133.258 8.28C133.258 8.28 133.248 8.29 133.238 8.29C133.238 8.27 133.238 8.24 133.238 8.22C133.238 8.22 133.248 8.22 133.258 8.21ZM132.848 8.42C132.858 8.44 132.858 8.47 132.858 8.49C132.858 8.49 132.848 8.5 132.838 8.5C132.838 8.48 132.838 8.46 132.838 8.43C132.838 8.43 132.848 8.43 132.848 8.42ZM133.448 10.83C133.428 10.83 133.398 10.83 133.368 10.83C133.318 10.83 133.258 10.83 133.208 10.83C133.128 10.83 133.048 10.83 132.968 10.83C132.858 10.82 132.818 10.77 132.848 10.67C132.908 10.51 132.928 10.35 132.908 10.18C132.908 10.1 132.908 10.02 132.968 9.95C132.998 9.92 133.028 9.88 133.068 9.88C133.108 9.87 133.128 9.93 133.128 9.97C133.138 10.16 133.138 10.35 133.148 10.54C133.158 10.67 133.188 10.69 133.328 10.68C133.368 10.68 133.408 10.66 133.448 10.67C133.478 10.68 133.518 10.71 133.538 10.74C133.558 10.81 133.508 10.83 133.448 10.83ZM133.488 10.51C133.478 10.53 133.448 10.54 133.428 10.54C133.408 10.54 133.378 10.51 133.368 10.49C133.348 10.43 133.338 10.36 133.328 10.28C133.338 10.23 133.348 10.16 133.368 10.09C133.378 10.03 133.398 9.95 133.478 9.97C133.548 9.98 133.578 10.05 133.588 10.12C133.608 10.27 133.568 10.39 133.488 10.51ZM133.648 8.39C133.638 8.32 133.588 8.25 133.648 8.19C133.688 8.26 133.678 8.32 133.648 8.39ZM133.648 7.69C133.558 7.6 133.538 7.51 133.618 7.42C133.708 7.49 133.688 7.58 133.648 7.69ZM133.648 6.26C133.598 6.25 133.558 6.22 133.558 6.17C133.558 6.16 133.598 6.15 133.618 6.14C133.668 6.14 133.678 6.18 133.688 6.22C133.668 6.23 133.648 6.26 133.648 6.26ZM133.268 5.54C133.648 5.54 133.988 5.2 133.998 4.81C134.008 4.42 133.698 4.1 133.308 4.1C132.918 4.1 132.588 4.42 132.578 4.82C132.568 5.21 132.888 5.54 133.268 5.54ZM133.678 5.06C133.668 5.06 133.668 5.06 133.658 5.05C133.698 5.1 133.688 5.16 133.648 5.2C133.588 5.24 133.508 5.27 133.418 5.28C133.498 5.2 133.588 5.12 133.678 5.04C133.678 5.05 133.678 5.06 133.678 5.06ZM133.558 4.38C133.558 4.37 133.548 4.36 133.548 4.36C133.558 4.34 133.568 4.32 133.578 4.3C133.578 4.33 133.568 4.35 133.558 4.38ZM133.578 4.3C133.418 4.36 133.228 4.33 133.058 4.42C133.038 4.43 132.978 4.39 132.938 4.37C133.138 4.27 133.358 4.25 133.578 4.3ZM139.452 6.95C139.222 6.34 138.832 5.91 138.132 5.85C137.992 5.84 137.862 5.82 137.722 5.81C137.372 5.79 137.052 5.87 136.742 6.02C136.642 6.07 136.552 6.13 136.462 6.19C136.412 6.22 136.372 6.26 136.322 6.22C136.302 6.2 136.292 6.14 136.302 6.11C136.312 6.04 136.332 5.98 136.302 5.91C136.272 5.85 136.242 5.78 136.152 5.82C136.082 5.86 136.012 5.89 135.932 5.89C135.692 5.88 135.462 5.89 135.232 5.85C135.062 5.83 134.892 5.87 134.722 5.9C134.712 5.9 134.692 5.92 134.702 5.92C134.702 5.95 134.712 5.98 134.732 5.99C134.782 6.01 134.832 6.03 134.882 6.03C135.002 6.04 135.052 6.1 135.052 6.21C135.052 6.32 135.052 6.43 135.052 6.54C135.052 7.37 135.052 8.2 135.052 9.03C135.052 9.6 135.062 10.17 135.072 10.74C135.072 10.91 135.112 10.95 135.282 10.95C135.512 10.96 135.742 10.95 135.982 10.95C136.062 10.94 136.172 10.92 136.212 10.96C136.332 11.08 136.412 11.02 136.522 10.95C136.582 10.92 136.682 10.94 136.762 10.92C136.782 10.92 136.802 10.89 136.812 10.87C136.822 10.82 136.782 10.79 136.742 10.78C136.702 10.77 136.662 10.78 136.622 10.77C136.442 10.74 136.432 10.74 136.432 10.58C136.402 10 136.382 9.41 136.362 8.83C136.352 8.52 136.342 8.21 136.352 7.89C136.352 7.48 136.572 7.21 136.942 7.05C137.052 7.01 137.172 6.97 137.292 6.96C137.792 6.89 138.212 7.2 138.292 7.69C138.312 7.83 138.332 7.96 138.332 8.1C138.342 8.93 138.352 9.76 138.362 10.58C138.362 10.69 138.332 10.77 138.212 10.78C138.172 10.79 138.132 10.82 138.152 10.87C138.162 10.9 138.202 10.92 138.242 10.93C138.352 10.96 138.462 11.03 138.582 10.94C138.902 10.94 139.232 10.85 139.572 10.99C139.582 10.92 139.602 10.88 139.602 10.84C139.612 9.84 139.612 8.83 139.612 7.83C139.612 7.53 139.552 7.23 139.452 6.95ZM135.412 6.07C135.432 6.05 135.462 6.05 135.492 6.05C135.532 6.05 135.572 6.05 135.602 6.06C135.662 6.08 135.672 6.13 135.652 6.19C135.632 6.24 135.582 6.26 135.532 6.23C135.502 6.22 135.472 6.19 135.442 6.16C135.422 6.14 135.382 6.11 135.412 6.07ZM135.312 10.77C135.252 10.76 135.232 10.71 135.242 10.65C135.252 10.59 135.282 10.56 135.352 10.58C135.462 10.61 135.582 10.64 135.672 10.75C135.552 10.79 135.432 10.79 135.312 10.77ZM136.052 10.75C135.992 10.77 135.932 10.79 135.872 10.74C135.862 10.73 135.862 10.71 135.872 10.7C135.912 10.64 135.962 10.67 136.012 10.69C136.032 10.69 136.052 10.71 136.072 10.73C136.072 10.74 136.062 10.75 136.052 10.75ZM136.042 6.24C136.002 6.24 135.982 6.2 135.972 6.16C135.972 6.11 135.982 6.08 136.032 6.08C136.082 6.08 136.092 6.11 136.092 6.15C136.102 6.19 136.092 6.24 136.042 6.24ZM136.502 7.11C136.232 7.41 136.142 7.77 136.162 8.16C136.172 8.35 136.202 8.54 136.142 8.73C136.082 8.67 136.102 8.6 136.102 8.54C136.102 8.2 136.102 7.86 136.102 7.52C136.102 7.34 136.162 7.21 136.322 7.12C136.392 7.08 136.452 7.02 136.512 6.97C136.592 7.04 136.532 7.07 136.502 7.11ZM139.152 6.83C139.132 6.78 139.102 6.72 139.142 6.66C139.172 6.71 139.162 6.77 139.152 6.83ZM139.152 6.92C139.152 6.91 139.152 6.91 139.152 6.91C139.152 6.91 139.152 6.91 139.152 6.92ZM139.132 6.66C138.982 6.68 138.962 6.52 138.872 6.46C138.812 6.41 138.782 6.34 138.812 6.25C138.922 6.39 139.022 6.52 139.132 6.66ZM138.812 6.25C138.802 6.25 138.802 6.25 138.802 6.25C138.802 6.25 138.802 6.25 138.802 6.24C138.802 6.24 138.802 6.25 138.812 6.25ZM138.572 8.16H138.582C138.582 8.17 138.582 8.18 138.582 8.2H138.572C138.572 8.19 138.572 8.17 138.572 8.16ZM136.992 6.23C137.002 6.23 137.012 6.23 137.022 6.24C137.022 6.25 137.012 6.26 137.012 6.26C136.982 6.26 136.972 6.25 136.992 6.23ZM138.062 6.98C138.042 6.97 138.012 6.98 137.992 6.98C137.882 6.81 137.702 6.8 137.532 6.79C137.432 6.78 137.342 6.79 137.252 6.78C137.152 6.76 137.082 6.88 136.962 6.78C137.302 6.64 137.622 6.64 137.942 6.81C138.022 6.84 138.012 6.91 137.992 6.98C138.012 6.98 138.032 6.97 138.062 6.97C138.072 6.96 138.092 6.96 138.092 6.96C138.112 6.99 138.102 7 138.062 6.98ZM138.432 6.84C138.402 6.83 138.362 6.81 138.342 6.78C138.252 6.64 138.072 6.6 138.012 6.43C137.992 6.43 137.982 6.44 137.962 6.44C137.972 6.44 137.992 6.43 138.002 6.43C138.112 6.42 138.212 6.45 138.282 6.55C138.352 6.64 138.422 6.74 138.492 6.83C138.472 6.84 138.452 6.85 138.432 6.84ZM138.512 7.76C138.502 7.75 138.492 7.74 138.492 7.73C138.492 7.72 138.492 7.71 138.502 7.69C138.502 7.7 138.502 7.72 138.512 7.72C138.512 7.74 138.512 7.75 138.512 7.76ZM138.492 6.93C138.492 6.93 138.472 6.92 138.462 6.92C138.442 6.88 138.462 6.85 138.492 6.84C138.502 6.87 138.532 6.9 138.492 6.93ZM139.212 10.73C139.102 10.74 139.002 10.75 138.962 10.75C138.802 10.75 138.702 10.76 138.612 10.75C138.552 10.75 138.512 10.66 138.542 10.6C138.562 10.54 138.602 10.52 138.662 10.54C138.832 10.61 138.992 10.7 139.182 10.62C139.192 10.61 139.222 10.64 139.232 10.66C139.232 10.68 139.222 10.73 139.212 10.73ZM139.232 7.08C139.232 7.02 139.232 6.97 139.182 6.93C139.232 6.96 139.252 7.01 139.232 7.08Z" fill="#51ADE5" fill-opacity="0.8"/>
<path d="M176.05 7.71C175.49 7.33 174.9 7.03 174.23 6.88C174.04 6.84 173.86 6.78 173.67 6.74C173.43 6.69 173.23 6.56 173.02 6.43C172.92 6.37 172.89 6.27 172.89 6.16C172.9 5.97 172.97 5.81 173.11 5.67C173.3 5.47 173.55 5.36 173.82 5.34C174.18 5.31 174.53 5.39 174.84 5.56C175.07 5.69 175.24 5.87 175.33 6.11C175.37 6.19 175.34 6.25 175.23 6.27C175.16 6.29 175.08 6.29 175.09 6.38C175.09 6.43 175.17 6.43 175.22 6.44C175.36 6.45 175.34 6.55 175.35 6.64C175.36 6.68 175.38 6.71 175.42 6.72C175.48 6.73 175.5 6.68 175.5 6.65C175.51 6.48 175.61 6.44 175.77 6.44C176 6.44 176.23 6.44 176.46 6.44C176.58 6.43 176.63 6.38 176.64 6.27C176.66 6.1 176.64 5.93 176.6 5.76C176.48 5.3 176.21 4.94 175.82 4.66C174.87 3.95 173.39 3.95 172.44 4.65C171.98 4.99 171.68 5.43 171.62 5.99C171.59 6.4 171.64 6.8 171.93 7.13C172.14 7.37 172.4 7.56 172.71 7.67C173 7.78 173.29 7.89 173.58 7.99C173.89 8.11 174.19 8.21 174.5 8.32C174.75 8.42 175 8.52 175.2 8.7C175.48 8.93 175.49 9.27 175.24 9.53C175.15 9.63 175.04 9.7 174.91 9.75C174.47 9.92 174.01 9.94 173.56 9.8C173.17 9.68 172.87 9.45 172.69 9.08C172.65 8.99 172.67 8.95 172.78 8.91C172.82 8.9 172.86 8.89 172.89 8.87C172.92 8.85 172.93 8.8 172.88 8.78C172.85 8.76 172.8 8.75 172.77 8.75C172.63 8.76 172.67 8.6 172.58 8.57C172.45 8.54 172.5 8.73 172.39 8.73C172.29 8.74 172.18 8.74 172.07 8.74C171.83 8.75 171.58 8.72 171.35 8.76C171.33 8.89 171.44 8.96 171.44 9.07C171.44 9.38 171.58 9.65 171.72 9.91C171.95 10.32 172.29 10.6 172.75 10.75C172.92 10.81 173.11 10.87 173.29 10.91C173.65 11 174.01 11.04 174.38 11.01C175.08 10.94 175.69 10.72 176.18 10.21C176.54 9.85 176.7 9.42 176.7 8.94C176.69 8.43 176.5 8.01 176.05 7.71ZM175.86 6.12C175.97 6.18 176.06 6.17 176.14 6.08C176.18 6.04 176.21 6 176.24 5.96C176.29 5.91 176.33 5.85 176.41 5.89C176.49 5.92 176.47 6 176.48 6.06C176.48 6.09 176.48 6.13 176.47 6.17C176.47 6.23 176.43 6.26 176.37 6.27C176.13 6.29 175.9 6.28 175.64 6.25C175.71 6.15 175.73 6.03 175.86 6.12ZM174.51 5.22C174.39 5.27 174.31 5.18 174.22 5.15C174.12 5.11 174.02 5.09 173.83 5.04C174.16 4.96 174.36 5 174.51 5.22ZM173.53 5.13C173.53 5.13 173.54 5.15 173.54 5.16C173.52 5.19 173.5 5.23 173.45 5.21C173.44 5.21 173.44 5.19 173.44 5.18C173.46 5.15 173.48 5.11 173.53 5.13ZM172.75 5.78C172.76 5.76 172.79 5.79 172.75 5.78V5.78ZM172.75 5.8C172.75 5.79 172.75 5.79 172.75 5.79C172.75 5.79 172.75 5.79 172.76 5.79C172.74 5.82 172.72 5.85 172.7 5.88C172.72 5.85 172.73 5.82 172.75 5.8ZM172.69 6.23C172.72 6.31 172.76 6.37 172.79 6.44C172.81 6.49 172.84 6.54 172.8 6.59C172.78 6.62 172.67 6.55 172.65 6.49C172.61 6.41 172.61 6.32 172.69 6.23ZM172.35 5.07C172.36 5.08 172.37 5.08 172.37 5.08C172.37 5.09 172.37 5.1 172.36 5.11C172.36 5.1 172.34 5.1 172.34 5.1C172.34 5.09 172.35 5.08 172.35 5.07ZM172.89 7.57C172.53 7.46 172.26 7.23 172.02 6.97C171.97 6.92 171.94 6.86 171.92 6.8C171.83 6.55 171.73 6.29 171.8 6.03C171.86 6.01 171.88 6.01 171.89 6.04C171.92 6.37 172.16 6.62 172.32 6.89C172.44 7.12 172.67 7.31 172.91 7.46C172.97 7.5 173.03 7.51 173.1 7.47L173.11 7.49L173.09 7.48C173.16 7.55 173.23 7.62 173.16 7.72C173.1 7.62 172.99 7.6 172.89 7.57ZM173.47 7.73C173.36 7.73 173.26 7.72 173.16 7.72C173.26 7.67 173.37 7.66 173.47 7.73ZM173.75 7.79C173.76 7.79 173.78 7.79 173.78 7.79C173.78 7.8 173.78 7.81 173.78 7.82C173.76 7.82 173.74 7.81 173.75 7.79ZM173.79 7.83C173.91 7.82 173.91 7.82 173.9 7.93C173.87 7.89 173.8 7.89 173.79 7.83ZM173.91 7.94C173.91 7.94 173.91 7.94 173.91 7.93C173.91 7.93 173.92 7.93 173.93 7.93C173.92 7.93 173.92 7.94 173.91 7.94ZM172.45 8.95L172.43 8.97L172.42 8.95H172.45ZM172.52 10.48C171.97 10.18 171.7 9.68 171.6 9.09C171.58 8.96 171.63 8.92 171.75 8.92C171.89 8.92 172.02 8.92 172.16 8.93C172.17 8.93 172.19 8.97 172.19 8.99C172.19 9.01 172.16 9.04 172.15 9.04C172.06 9.03 171.96 9.01 171.87 9C171.78 8.98 171.71 9.07 171.74 9.15C171.93 9.63 172.21 10.04 172.7 10.3C172.95 10.44 173.2 10.59 173.52 10.78C173.12 10.71 172.8 10.62 172.52 10.48ZM174.76 10.34C174.78 10.34 174.8 10.35 174.82 10.36C174.81 10.36 174.8 10.37 174.78 10.37C174.77 10.37 174.76 10.36 174.75 10.36C174.75 10.35 174.76 10.34 174.76 10.34ZM174.37 10.81C174.34 10.81 174.29 10.76 174.29 10.74C174.3 10.71 174.34 10.66 174.37 10.66C174.53 10.67 174.68 10.67 174.92 10.72C174.68 10.81 174.53 10.83 174.37 10.81ZM176.05 9.13L176.04 9.12V9.11L176.05 9.13ZM175.49 8.22L175.48 8.21L175.49 8.22ZM175.61 8.95C175.54 8.85 175.48 8.75 175.4 8.67C175.24 8.5 175.06 8.35 174.83 8.26C174.7 8.2 174.55 8.18 174.46 8.06C174.87 8.04 175.2 8.24 175.55 8.39C175.6 8.41 175.64 8.48 175.67 8.54C175.71 8.63 175.7 8.71 175.61 8.95ZM175.96 9.38H175.97C175.96 9.38 175.96 9.38 175.96 9.38ZM175.98 9.35C176.02 9.28 176 9.2 176.03 9.13C176.09 9.22 176.04 9.28 175.98 9.35ZM176.45 9.19L176.44 9.18C176.44 9.16 176.44 9.13 176.44 9.11C176.46 9.13 176.47 9.16 176.45 9.19ZM176.44 9.1C176.44 9.09 176.44 9.08 176.43 9.07C176.43 9.02 176.44 8.97 176.5 8.95C176.5 8.95 176.52 8.96 176.52 8.97C176.54 9.04 176.51 9.08 176.44 9.1ZM182.522 7.76C182.162 6.41 180.862 5.6 179.572 5.88C178.642 6.09 178.022 6.68 177.692 7.53C177.482 8.08 177.482 8.67 177.652 9.25C177.962 10.33 178.932 11.09 180.012 11.11C181.032 11.15 181.982 10.51 182.382 9.56C182.412 9.49 182.432 9.43 182.442 9.36C182.462 9.29 182.422 9.23 182.342 9.22C182.282 9.21 182.232 9.21 182.182 9.21C181.992 9.21 181.802 9.21 181.612 9.21C181.532 9.21 181.482 9.19 181.462 9.1C181.452 9.01 181.392 9 181.332 9.06C181.272 9.11 181.242 9.2 181.152 9.21C181.012 9.23 180.832 9.22 181.052 9.42C181.082 9.45 181.042 9.49 181.012 9.52C180.772 9.73 180.482 9.84 180.162 9.85C179.752 9.87 179.212 9.68 178.982 9.14C178.872 8.89 178.922 8.82 179.182 8.82C180.142 8.81 181.102 8.81 182.072 8.81C182.182 8.81 182.282 8.81 182.392 8.8C182.542 8.79 182.592 8.75 182.602 8.61C182.622 8.32 182.592 8.04 182.522 7.76ZM181.992 9.44C182.002 9.38 182.062 9.38 182.112 9.38C182.192 9.38 182.232 9.4 182.232 9.45C182.222 9.51 182.202 9.56 182.152 9.58C182.082 9.6 181.972 9.5 181.992 9.44ZM181.972 7.11C181.952 7.08 181.982 7.02 182.002 6.97C182.102 7.19 182.212 7.41 182.312 7.63C182.302 7.65 182.302 7.67 182.302 7.69C182.302 7.67 182.302 7.65 182.302 7.62C182.122 7.49 182.052 7.29 181.972 7.11ZM181.992 6.97C181.942 7.02 181.882 7 181.822 6.99C181.882 6.99 181.942 6.98 181.992 6.97ZM181.842 6.95C181.832 6.96 181.822 6.98 181.822 6.99C181.822 6.99 181.822 6.99 181.812 6.99C181.822 6.98 181.832 6.96 181.842 6.95ZM179.852 6.08C179.872 6.08 179.892 6.12 179.902 6.14C179.902 6.16 179.892 6.19 179.872 6.2C179.702 6.31 179.532 6.31 179.322 6.25C179.482 6.07 179.662 6.07 179.852 6.08ZM179.152 6.89L179.162 6.88L179.152 6.9C179.232 6.81 179.312 6.74 179.452 6.71C179.832 6.63 180.222 6.62 180.612 6.63C180.802 6.64 180.992 6.67 181.062 6.9C181.082 6.95 181.162 6.98 181.212 7.02C181.322 7.12 181.402 7.22 181.402 7.37C181.322 7.43 181.312 7.35 181.282 7.32C181.202 7.23 181.122 7.13 181.032 7.06C180.622 6.7 180.152 6.67 179.662 6.82C179.282 6.94 178.992 7.17 178.842 7.55C178.802 7.65 178.762 7.75 178.722 7.85C178.692 7.9 178.642 7.92 178.592 7.91C178.512 7.88 178.482 7.82 178.492 7.75C178.502 7.7 178.532 7.65 178.562 7.61C178.722 7.43 178.882 7.25 179.042 7.06C179.082 7.01 179.112 6.95 179.152 6.89ZM181.152 7.82C180.812 7.82 180.472 7.82 180.132 7.82C180.132 7.83 180.132 7.84 180.132 7.84C179.782 7.84 179.432 7.84 179.082 7.84C178.952 7.84 178.912 7.78 178.972 7.66C179.212 7.2 179.582 6.93 180.102 6.92C180.632 6.9 181.012 7.15 181.262 7.6C181.332 7.73 181.292 7.82 181.152 7.82ZM178.222 7.49C178.172 7.44 178.192 7.38 178.212 7.34C178.332 7.04 178.512 6.77 178.752 6.55C178.782 6.52 178.822 6.5 178.852 6.52C178.912 6.56 178.872 6.62 178.852 6.66C178.852 6.67 178.842 6.68 178.832 6.68C178.892 6.72 178.942 6.76 178.902 6.84C178.882 6.87 178.852 6.91 178.822 6.93C178.642 7.08 178.472 7.25 178.322 7.44C178.302 7.47 178.252 7.48 178.222 7.49ZM178.272 10.04V10.06C178.272 10.06 178.272 10.06 178.262 10.06L178.272 10.04ZM178.392 10.12C178.422 10.13 178.452 10.15 178.442 10.2C178.392 10.19 178.372 10.16 178.392 10.12ZM181.672 10.32C181.662 10.32 181.662 10.32 181.662 10.32L181.652 10.31L181.672 10.32ZM181.662 10.33C181.602 10.35 181.532 10.36 181.472 10.35C181.532 10.3 181.592 10.28 181.662 10.33ZM181.412 9.42C181.462 9.45 181.422 9.48 181.392 9.5C181.372 9.52 181.342 9.53 181.312 9.54C181.312 9.51 181.312 9.48 181.322 9.45C181.342 9.41 181.382 9.39 181.412 9.42ZM181.302 9.55C181.282 9.6 181.252 9.62 181.212 9.61C181.232 9.58 181.262 9.55 181.302 9.55ZM181.202 9.62C181.212 9.67 181.192 9.7 181.142 9.71C181.122 9.66 181.162 9.64 181.202 9.62ZM181.002 9.75C181.042 9.72 181.082 9.7 181.132 9.71C181.142 9.77 181.112 9.81 181.072 9.84C180.962 9.94 180.822 9.97 180.832 9.91C180.852 9.82 180.932 9.79 181.002 9.75ZM179.192 9.71C179.212 9.74 179.212 9.76 179.182 9.76C179.162 9.76 179.132 9.76 179.112 9.75C179.032 9.7 179.032 9.62 179.042 9.54C179.072 9.61 179.152 9.65 179.192 9.71ZM179.052 9.51C179.062 9.5 179.062 9.51 179.052 9.51V9.51ZM179.012 9.51C179.012 9.5 179.012 9.49 179.012 9.51V9.51ZM179.972 10.7C180.172 10.74 180.372 10.74 180.572 10.76C180.622 10.77 180.682 10.75 180.712 10.8C180.662 10.87 180.582 10.89 180.502 10.9C180.142 10.96 179.782 10.91 179.422 10.84C179.072 10.78 178.782 10.58 178.522 10.34C178.482 10.3 178.442 10.26 178.452 10.2C178.532 10.18 178.602 10.23 178.672 10.26C179.092 10.44 179.522 10.6 179.972 10.7ZM178.862 9.93C178.852 9.92 178.852 9.9 178.862 9.93V9.93ZM178.902 9.94C178.942 9.93 178.912 9.95 178.902 9.94V9.94ZM182.392 8.57C182.392 8.58 182.382 8.6 182.372 8.6C182.292 8.61 182.212 8.62 182.132 8.62C181.602 8.62 181.082 8.62 180.552 8.62C180.552 8.63 180.552 8.64 180.552 8.65C179.972 8.65 179.382 8.65 178.802 8.65C178.712 8.65 178.642 8.65 178.592 8.57C178.572 8.55 178.572 8.52 178.562 8.5C178.552 8.44 178.612 8.43 178.642 8.43C178.872 8.43 179.102 8.44 179.332 8.45C179.752 8.47 180.162 8.47 180.582 8.41C180.932 8.36 181.282 8.36 181.642 8.35C181.682 8.34 181.742 8.34 181.752 8.36C181.882 8.62 182.102 8.47 182.292 8.5C182.312 8.5 182.342 8.5 182.372 8.51C182.402 8.52 182.412 8.54 182.392 8.57ZM178.822 6.69C178.832 6.69 178.832 6.69 178.832 6.68L178.822 6.69ZM187.882 9.02C187.702 9.02 187.522 9.01 187.352 9.01C187.262 9.01 187.192 8.99 187.162 8.89C187.152 8.81 187.062 8.82 187.042 8.85C187.002 9 186.712 9 186.822 9.23C186.832 9.26 186.792 9.3 186.772 9.34C186.452 9.89 185.492 10.16 184.942 9.45C184.482 8.85 184.532 7.85 185.082 7.32C185.622 6.78 186.382 6.88 186.792 7.56C186.752 7.57 186.722 7.59 186.682 7.59C186.622 7.6 186.562 7.62 186.572 7.68C186.572 7.74 186.632 7.76 186.692 7.76C186.962 7.77 187.232 7.77 187.502 7.78C187.712 7.79 187.942 7.72 188.092 7.96C188.102 7.99 188.172 7.94 188.172 7.9C188.162 7.81 188.162 7.71 188.132 7.62C187.962 7.02 187.642 6.51 187.122 6.14C186.472 5.67 185.752 5.56 184.992 5.83C184.452 6.02 184.042 6.4 183.752 6.9C183.372 7.57 183.292 8.28 183.462 9.02C183.612 9.7 183.972 10.25 184.542 10.65C185.012 10.97 185.542 11.12 186.122 11.05C186.822 10.95 187.362 10.59 187.762 10.02C187.912 9.81 188.012 9.57 188.102 9.33C188.202 9.07 188.232 9.02 187.882 9.02ZM186.812 6.16L186.802 6.18L186.792 6.16H186.812ZM187.352 7.55C187.182 7.62 187.042 7.63 186.962 7.46C186.862 7.24 186.672 7.11 186.482 6.97C186.432 6.94 186.362 6.92 186.382 6.84C186.532 6.86 186.652 6.94 186.762 7.03C186.962 7.2 187.152 7.37 187.352 7.55ZM186.302 6.81C186.322 6.81 186.342 6.82 186.362 6.84C186.342 6.84 186.322 6.85 186.302 6.85C186.282 6.85 186.262 6.83 186.242 6.83C186.262 6.82 186.282 6.8 186.302 6.81ZM184.822 10.6C184.812 10.6 184.792 10.58 184.792 10.58C184.792 10.55 184.822 10.53 184.842 10.55C184.862 10.56 184.872 10.58 184.882 10.6C184.862 10.6 184.842 10.6 184.822 10.6ZM184.892 10.61C185.192 10.59 185.452 10.72 185.712 10.82C185.732 10.82 185.732 10.86 185.742 10.88C185.472 10.88 185.222 10.82 184.992 10.71C184.942 10.69 184.902 10.66 184.892 10.61ZM185.782 10.88C185.772 10.88 185.772 10.88 185.762 10.88C185.772 10.87 185.792 10.86 185.802 10.87C185.832 10.88 185.822 10.89 185.782 10.88ZM187.362 10.19C187.362 10.18 187.382 10.18 187.362 10.19V10.19ZM187.352 10.22C187.272 10.27 187.192 10.32 187.122 10.37C187.152 10.23 187.162 10.22 187.352 10.22ZM187.122 9.23C187.122 9.23 187.132 9.27 187.122 9.29C187.082 9.36 187.032 9.38 186.972 9.32C186.982 9.32 186.992 9.31 186.992 9.3C187.022 9.25 187.052 9.21 187.122 9.23ZM186.962 9.33C186.972 9.35 186.982 9.37 186.982 9.4C186.982 9.42 186.972 9.44 186.962 9.47C186.962 9.44 186.962 9.42 186.962 9.4C186.962 9.38 186.962 9.35 186.962 9.33ZM186.942 10.46C186.932 10.45 186.942 10.44 186.952 10.43C186.992 10.38 187.042 10.36 187.102 10.38C187.062 10.42 187.032 10.45 186.992 10.48C186.962 10.5 186.942 10.49 186.942 10.46ZM187.362 10.21C187.362 10.2 187.362 10.2 187.362 10.2C187.372 10.2 187.372 10.2 187.372 10.2C187.372 10.2 187.372 10.2 187.362 10.21ZM187.882 9.43C187.852 9.5 187.782 9.51 187.732 9.44C187.702 9.41 187.682 9.38 187.662 9.34C187.632 9.29 187.632 9.23 187.692 9.2C187.762 9.16 187.892 9.19 187.912 9.24C187.922 9.25 187.922 9.26 187.932 9.29C187.912 9.33 187.902 9.38 187.882 9.43Z" fill="#51ADE5" fill-opacity="0.8"/>
<path d="M78.66 4.18C78.64 4.16 78.63 4.12 78.61 4.12C78.47 4.12 78.33 4.04 78.18 4.09C78.02 4.14 77.85 4.13 77.7 4.04C77.63 3.99 77.54 3.99 77.47 4.04C77.35 4.13 77.26 4.14 77.17 3.99C77.14 3.93 77.08 3.96 77.06 4.02C77.04 4.08 77 4.15 77.01 4.22C77.01 4.32 77.05 4.43 77.06 4.53C77.08 5.21 77.09 5.89 77.11 6.57C77.11 6.61 77.11 6.65 77.1 6.69C77.09 6.76 77.06 6.82 76.98 6.83C76.94 6.84 76.9 6.84 76.86 6.84C76 6.85 75.15 6.86 74.29 6.86C74.11 6.86 74.08 6.83 74.08 6.65C74.07 5.98 74.06 5.32 74.05 4.65C74.05 4.35 74.06 4.35 74.38 4.29C74.39 4.29 74.41 4.29 74.42 4.28C74.46 4.27 74.49 4.25 74.49 4.2C74.48 4.18 74.45 4.16 74.43 4.15C74.28 4.12 74.1 4.16 73.99 4.01C73.96 3.98 73.91 4.01 73.88 4.05C73.83 4.12 73.75 4.13 73.67 4.13C73.54 4.12 73.42 4.12 73.3 4.1C73.15 4.06 73.01 4.12 72.86 4.14C72.8 4.15 72.77 4.2 72.77 4.26C72.77 4.34 72.77 4.42 72.77 4.5C72.78 6.42 72.78 8.33 72.78 10.25C72.78 10.37 72.78 10.49 72.78 10.61C72.78 10.71 72.74 10.77 72.64 10.77C72.58 10.77 72.53 10.77 72.48 10.79C72.46 10.79 72.43 10.82 72.43 10.84C72.41 10.89 72.46 10.93 72.49 10.92C72.64 10.91 72.79 11.04 72.91 11C73.32 10.86 73.71 10.97 74.14 10.99C74.14 10.61 74.15 10.24 74.14 9.88C74.13 9.38 74.11 8.88 74.11 8.37C74.1 8.16 74.14 8.13 74.33 8.12C74.39 8.12 74.44 8.12 74.5 8.12C75.26 8.11 76.02 8.11 76.78 8.1C76.83 8.1 76.89 8.1 76.94 8.11C77.04 8.11 77.08 8.17 77.09 8.26C77.09 8.3 77.09 8.34 77.1 8.38C77.12 9.07 77.15 9.77 77.17 10.46C77.17 10.53 77.17 10.59 77.17 10.66C77.16 10.72 77.13 10.76 77.07 10.77C77 10.78 76.93 10.78 76.87 10.79C76.83 10.79 76.79 10.8 76.75 10.81C76.72 10.82 76.71 10.84 76.7 10.87C76.7 10.9 76.71 10.92 76.74 10.93C76.91 10.98 77.13 10.88 77.26 11.08C77.27 11.1 77.31 11.09 77.32 11.06C77.36 11 77.39 10.95 77.47 10.95C77.68 10.94 77.88 10.94 78.09 10.94C78.12 10.94 78.17 10.96 78.19 10.99C78.26 11.08 78.3 11.07 78.38 10.99C78.47 10.9 78.56 10.84 78.41 10.71C78.33 10.64 78.37 10.5 78.39 10.39C78.4 10.29 78.42 10.18 78.42 10.07C78.4 9.53 78.38 8.99 78.38 8.44C78.38 7.19 78.38 5.94 78.39 4.69C78.39 4.61 78.39 4.53 78.39 4.45C78.39 4.34 78.42 4.27 78.55 4.26C78.57 4.26 78.6 4.25 78.62 4.24C78.66 4.24 78.67 4.21 78.66 4.18ZM72.99 10.64C72.99 10.63 72.99 10.62 73 10.62C73 10.62 73 10.62 73.01 10.62C73 10.63 72.99 10.63 72.99 10.64ZM73.1 10.43C73.09 10.5 73.07 10.56 73.02 10.61C72.91 10.31 72.96 10 72.96 9.67C73.03 9.94 73.11 10.18 73.1 10.43ZM73.06 5.99C73.01 6.22 73.02 6.48 73.02 6.72C73.01 7.26 73.02 7.8 73.03 8.34C73.03 8.42 73.04 8.51 72.97 8.61C72.91 8.17 72.97 7.76 72.95 7.35C72.94 6.93 72.94 6.51 72.94 6.09C72.94 5.68 72.95 5.27 72.95 4.79C72.99 4.88 73 4.9 73.01 4.92C73.14 5.27 73.15 5.62 73.06 5.99ZM73.22 9.34C73.21 9.37 73.18 9.37 73.17 9.34C73.16 9.32 73.18 9.29 73.19 9.27C73.2 9.27 73.22 9.27 73.22 9.27C73.22 9.3 73.23 9.32 73.22 9.34ZM73.22 8.81C73.16 8.58 73.29 8.39 73.3 8.19C73.33 8.45 73.31 8.56 73.22 8.81ZM73.58 4.48C73.56 4.43 73.53 4.37 73.57 4.33C73.61 4.3 73.67 4.3 73.72 4.3C73.82 4.3 73.87 4.35 73.88 4.45C73.89 4.56 73.89 4.66 73.89 4.77C73.9 5.31 73.9 5.86 73.9 6.4C73.9 6.45 73.91 6.51 73.84 6.58C73.83 6.36 73.81 6.16 73.82 5.97C73.85 5.57 73.77 5.19 73.75 4.79C73.74 4.66 73.64 4.58 73.58 4.48ZM73.88 6.89L73.86 6.88L73.87 6.85L73.88 6.89ZM73.98 10.59C73.98 10.63 73.96 10.69 73.94 10.69C73.88 10.69 73.84 10.64 73.83 10.59C73.82 10.48 73.8 10.37 73.81 10.27C73.87 9.82 73.83 9.37 73.79 8.93C73.78 8.88 73.76 8.82 73.77 8.77C73.78 8.71 73.77 8.64 73.83 8.59C73.88 8.56 73.94 8.65 73.94 8.77C73.96 9.1 73.97 9.44 73.98 9.78C73.98 9.78 73.98 9.78 73.99 9.78C73.99 10.05 73.99 10.32 73.98 10.59ZM73.86 8.25L73.88 8.22V8.25H73.86ZM73.94 8.01C73.86 7.86 73.83 7.73 73.86 7.6C73.87 7.55 73.94 7.51 73.98 7.54C74.04 7.58 74.1 7.64 74.17 7.68C74.27 7.73 74.38 7.78 74.49 7.83C74.59 7.87 74.7 7.81 74.85 7.91C74.51 7.98 74.21 7.92 73.94 8.01ZM77.2 7.92C77.08 7.93 76.96 7.93 76.84 7.94C76.66 7.94 76.49 7.94 76.31 7.94C76.31 7.93 76.31 7.93 76.31 7.93C76.03 7.93 75.75 7.93 75.47 7.93C75.44 7.93 75.41 7.91 75.4 7.89C75.39 7.84 75.43 7.83 75.47 7.82C75.81 7.74 76.16 7.72 76.5 7.81C76.69 7.85 76.88 7.81 77.06 7.79C77.1 7.78 77.14 7.77 77.18 7.77C77.23 7.78 77.24 7.82 77.24 7.86C77.24 7.88 77.22 7.92 77.2 7.92ZM77.31 6.63C77.3 6.63 77.29 6.63 77.28 6.63C77.28 6.41 77.27 6.18 77.26 5.96C77.25 5.47 77.24 4.98 77.23 4.49C77.23 4.44 77.22 4.38 77.27 4.34C77.28 4.33 77.29 4.33 77.3 4.32C77.31 4.32 77.33 4.33 77.34 4.34C77.35 4.36 77.38 4.38 77.38 4.4C77.34 4.82 77.41 5.24 77.36 5.66C77.32 5.98 77.33 6.31 77.31 6.63ZM77.56 10.78C77.35 10.78 77.3 10.72 77.37 10.5C77.4 10.4 77.4 10.53 77.42 10.54C77.45 10.56 77.49 10.6 77.52 10.58C77.69 10.51 77.71 10.66 77.79 10.73C77.71 10.8 77.63 10.78 77.56 10.78ZM78.19 7.22C78.19 7.28 78.17 7.33 78.16 7.38C78.16 7.39 78.14 7.4 78.13 7.4C78.12 7.4 78.1 7.39 78.1 7.38C78.08 7.35 78.06 7.31 78.06 7.27C78.1 6.89 78.04 6.51 78.11 6.14C78.16 5.83 78.18 5.52 78.15 5.21C78.14 5.19 78.14 5.18 78.14 5.16C78.17 4.89 78.17 4.63 78.03 4.38C78.01 4.33 78.06 4.3 78.09 4.3C78.13 4.29 78.17 4.32 78.2 4.34C78.21 4.36 78.21 4.39 78.22 4.42C78.22 4.46 78.22 4.5 78.22 4.54C78.22 4.95 78.22 5.35 78.22 5.76C78.22 6.25 78.23 6.74 78.19 7.22ZM80.2684 6.88H80.2584C80.2684 6.88 80.2684 6.88 80.2684 6.88ZM84.6284 7.8C84.3984 6.78 83.7784 6.08 82.7584 5.81C81.7384 5.53 80.8484 5.84 80.1684 6.64C79.5884 7.3 79.4084 8.09 79.5884 8.96C79.8284 10.14 80.8884 11.01 82.1184 11.02C82.3784 11.03 82.6684 10.97 82.9584 10.87C84.1484 10.46 84.9384 9.12 84.6284 7.8ZM79.7784 8.65C79.7584 8.75 79.6884 8.53 79.6984 8.28C79.6984 8.27 79.7084 8.26 79.7084 8.25C79.7184 8.27 79.7384 8.29 79.7484 8.31C79.7584 8.42 79.7884 8.54 79.7784 8.65ZM83.1184 6.99C83.2084 7.09 83.2984 7.2 83.3784 7.3V7.31C83.3684 7.3 83.3684 7.3 83.3684 7.3C83.2784 7.33 83.2284 7.26 83.1784 7.21C83.0784 7.13 83.0284 7 82.8784 7C82.9584 6.93 83.0384 6.91 83.1184 6.99ZM82.7684 5.99C82.7584 6 82.7584 6.01 82.7584 6.02C82.7484 6.02 82.7384 6.02 82.7284 6.02C82.7184 6.01 82.7084 6 82.6984 6C82.7184 6 82.7384 5.99 82.7684 5.99ZM82.3484 5.91C82.3584 5.91 82.3684 5.92 82.3884 5.92C82.3784 5.92 82.3684 5.93 82.3584 5.93C82.3384 5.93 82.3284 5.93 82.3184 5.93C82.3284 5.92 82.3384 5.91 82.3484 5.91ZM82.4984 6.56C82.6484 6.62 82.7784 6.72 82.8984 6.82C82.9484 6.86 82.8884 6.94 82.8784 7C82.7284 6.8 82.5084 6.72 82.2784 6.67C82.2284 6.67 82.1784 6.7 82.1284 6.64C82.2484 6.57 82.3784 6.5 82.4984 6.56ZM80.4384 6.7C80.4484 6.69 80.4584 6.7 80.4384 6.7V6.7ZM80.4384 6.71C80.4384 6.71 80.4384 6.71 80.4484 6.71H80.4384ZM80.2684 6.88C80.2584 6.89 80.2584 6.9 80.2584 6.91C80.2584 6.91 80.2584 6.91 80.2584 6.9C80.2584 6.9 80.2584 6.89 80.2584 6.88C80.2584 6.88 80.2584 6.88 80.2684 6.88C80.2684 6.87 80.2684 6.87 80.2684 6.87C80.2684 6.87 80.2684 6.87 80.2684 6.88ZM80.5784 10.09C80.4884 9.98 80.3984 9.86 80.4384 9.7C80.4384 9.68 80.4684 9.66 80.4884 9.64V9.62V9.63C80.4884 9.77 80.6084 9.84 80.6784 9.92C80.7784 10.02 80.8384 10.14 80.9784 10.24C80.7884 10.26 80.6684 10.21 80.5784 10.09ZM81.0884 9.35C80.5984 8.7 80.7084 7.71 81.3284 7.18C81.8484 6.74 82.5484 6.78 83.0084 7.28C83.2884 7.58 83.4084 7.95 83.4084 8.38C83.3984 8.79 83.2484 9.18 82.9384 9.49C82.3884 10.03 81.5584 9.97 81.0884 9.35ZM81.4484 10.17C81.4384 10.16 81.4484 10.14 81.4484 10.17V10.17ZM82.3384 10.84C82.1784 10.86 82.0084 10.84 81.8484 10.84C81.7684 10.84 81.7184 10.8 81.6884 10.73C81.6284 10.74 81.5684 10.74 81.5184 10.75C81.5184 10.74 81.5184 10.73 81.5184 10.72C81.5684 10.73 81.6284 10.73 81.6884 10.73C81.7784 10.74 81.8684 10.71 81.9684 10.72C82.3884 10.79 82.7684 10.7 83.1284 10.47C83.2484 10.4 83.3484 10.26 83.5284 10.3C83.2084 10.66 82.7784 10.78 82.3384 10.84ZM83.5284 8.91C83.5684 8.56 83.5984 8.25 83.5784 7.94C83.8084 8.39 83.8084 8.46 83.5284 8.91ZM83.7884 6.73C83.7784 6.73 83.7784 6.73 83.7784 6.73C83.7784 6.73 83.7784 6.73 83.7884 6.73ZM83.7884 6.74C83.7984 6.74 83.7984 6.75 83.7984 6.75C83.7984 6.75 83.7884 6.75 83.7884 6.74ZM83.9184 6.79C83.9484 6.79 83.9784 6.81 83.9884 6.84C83.9584 6.84 83.9284 6.83 83.9184 6.79ZM84.0184 6.86C84.0484 6.87 84.0784 6.89 84.1084 6.9C84.0684 6.9 84.0284 6.91 84.0184 6.86ZM84.2184 9.45C84.2184 9.46 84.2184 9.46 84.2184 9.46C84.2284 9.37 84.2484 9.28 84.2684 9.18C84.3184 9.28 84.3084 9.37 84.2184 9.45ZM84.4584 8.91C84.4384 9.01 84.4284 9.14 84.2784 9.16C84.4484 8.83 84.4084 8.49 84.3784 8.14C84.3384 7.82 84.2084 7.52 84.1184 7.21C84.0884 7.11 84.0684 7.02 84.1184 6.92C84.1184 7.03 84.1984 7.1 84.2384 7.19C84.5284 7.74 84.5884 8.31 84.4584 8.91ZM90.2459 10.79C90.0959 10.73 90.0959 10.61 90.0959 10.48C90.0959 10.25 90.0959 10.02 90.0959 9.79C90.0859 8.65 90.0759 7.51 90.0659 6.37C90.0659 6.28 90.0659 6.18 90.0559 6.09C90.0459 5.92 90.0159 5.89 89.8659 5.89C89.5459 5.89 89.2159 5.89 88.8859 5.9C88.8259 5.9 88.7559 5.92 88.6959 5.94C88.6559 5.95 88.6359 6.01 88.6759 6.03C88.8359 6.1 88.8259 6.24 88.8259 6.38C88.8159 7.15 88.7959 7.92 88.7859 8.69C88.7859 8.83 88.7859 8.97 88.7759 9.1C88.7459 9.51 88.5159 9.77 88.1159 9.87C87.5859 10 86.8559 9.74 86.8959 8.93C86.9459 8.06 86.9159 7.19 86.9059 6.32C86.9059 6.16 86.9659 6.07 87.1259 6.05C87.1659 6.05 87.2059 6.02 87.1959 5.98C87.1859 5.96 87.1559 5.93 87.1359 5.93C87.0259 5.91 86.9159 5.87 86.8159 5.88C86.5159 5.92 86.2159 5.9 85.9159 5.9C85.8159 5.91 85.6859 5.87 85.6159 5.97C85.5659 6.06 85.6559 6.15 85.6459 6.24C85.6359 6.31 85.6459 6.38 85.6459 6.45C85.6459 7.34 85.6459 8.24 85.6559 9.13C85.6559 9.38 85.6759 9.62 85.7359 9.86C85.8959 10.46 86.3059 10.84 86.9259 10.92C87.1559 10.95 87.3859 10.98 87.6159 10.98C88.0459 10.97 88.4959 10.97 88.8359 10.6C88.9459 10.78 88.8859 10.92 88.9259 11.05C88.9359 11.07 88.9559 11.1 88.9759 11.11C88.9959 11.11 89.0259 11.09 89.0459 11.08C89.0959 11.04 89.0859 10.93 89.1659 10.93C89.4359 10.94 89.7059 10.85 89.9559 10.99C90.0259 11.03 90.2259 10.93 90.2559 10.85C90.2659 10.84 90.2559 10.79 90.2459 10.79ZM85.8859 6.85C85.8759 6.74 85.8759 6.71 85.8659 6.67C85.8659 6.63 85.8759 6.59 85.8759 6.5C85.8859 6.58 85.8959 6.62 85.8959 6.66C85.8959 6.7 85.8959 6.74 85.8859 6.85ZM86.9659 9.8V9.81C86.9759 9.81 86.9759 9.81 86.9759 9.81V9.8C86.9859 9.79 86.9859 9.81 86.9859 9.81C87.0459 9.81 87.0559 9.85 87.0359 9.91C87.0059 9.87 86.9859 9.84 86.9559 9.8C86.9559 9.8 86.9559 9.8 86.9659 9.8ZM86.6559 6.09C86.7059 6.09 86.7359 6.12 86.7359 6.16C86.7359 6.2 86.7259 6.24 86.7159 6.28C86.6459 6.26 86.6159 6.22 86.5959 6.17C86.5859 6.13 86.6159 6.09 86.6559 6.09ZM86.6859 7.06C86.6859 7.1 86.6959 7.13 86.6959 7.16C86.6859 7.18 86.6759 7.2 86.6559 7.22C86.6559 7.23 86.6459 7.24 86.6359 7.24C86.6159 7.23 86.6059 7.21 86.6359 7.19C86.6559 7.18 86.6759 7.17 86.6959 7.16C86.6959 7.13 86.6859 7.1 86.6859 7.06ZM86.5259 7.84C86.6359 7.91 86.7159 7.96 86.6859 8.11C86.6659 8.3 86.6659 8.48 86.6459 8.75C86.4659 8.41 86.5059 8.13 86.5259 7.84ZM86.1859 7.44C86.1759 7.43 86.1759 7.43 86.1759 7.43C86.1859 7.4 86.1959 7.41 86.1859 7.44ZM86.1859 7.86C86.1759 7.87 86.1659 7.88 86.1659 7.88C86.1559 7.88 86.1359 7.88 86.1359 7.87C86.1259 7.84 86.1359 7.82 86.1659 7.83C86.1759 7.84 86.1759 7.85 86.1859 7.86ZM86.1659 7.47C86.1559 7.47 86.1459 7.46 86.1459 7.46C86.1559 7.46 86.1659 7.45 86.1759 7.45C86.1659 7.46 86.1659 7.46 86.1659 7.47ZM86.1259 6.1L86.1459 6.14L86.1159 6.13L86.1259 6.1ZM86.2359 8.7C86.2259 8.72 86.1959 8.74 86.1759 8.74C86.1559 8.74 86.1259 8.72 86.1159 8.7C86.0959 8.63 86.1159 8.57 86.1559 8.51C86.1659 8.49 86.1959 8.48 86.2259 8.47C86.2259 8.47 86.2359 8.49 86.2459 8.5C86.2459 8.53 86.2559 8.56 86.2559 8.59C86.2559 8.62 86.2459 8.66 86.2359 8.7ZM86.2759 6.7C86.2659 6.68 86.2359 6.68 86.2259 6.66C86.2159 6.64 86.2259 6.6 86.2359 6.59C86.2759 6.56 86.3059 6.59 86.3059 6.63C86.3059 6.65 86.2859 6.68 86.2759 6.7ZM86.3459 10.4C86.3359 10.4 86.3559 10.38 86.3459 10.4V10.4ZM86.7859 10.71C86.6559 10.69 86.5259 10.66 86.4259 10.58C86.3659 10.53 86.3359 10.48 86.3759 10.4C86.3659 10.41 86.3659 10.41 86.3659 10.41C86.3659 10.4 86.3659 10.4 86.3659 10.4C86.4759 10.46 86.5859 10.52 86.6959 10.58C86.7459 10.61 86.7959 10.64 86.7859 10.71ZM86.9059 10.74C86.8759 10.74 86.8459 10.73 86.8059 10.72C86.8359 10.71 86.8659 10.7 86.8959 10.69C86.9159 10.69 86.9459 10.71 86.9659 10.71C86.9459 10.72 86.9259 10.74 86.9059 10.74ZM86.4859 9.82C86.6359 9.84 86.6559 10 86.7659 10.07C86.8759 10.13 86.9959 10.19 87.0859 10.32C86.7559 10.27 86.5359 10.14 86.4859 9.82ZM87.0359 9.91C87.1159 9.86 87.2059 9.92 87.2859 9.9C87.2059 9.93 87.1259 9.96 87.0359 9.91ZM87.2859 9.9C87.3059 10 87.4559 9.98 87.4759 10.09C87.2959 10.07 87.2959 10.07 87.2859 9.9ZM88.8759 10.19C88.8059 10.39 88.6759 10.55 88.4959 10.65C88.3559 10.74 88.1859 10.81 87.9859 10.75C88.2059 10.46 88.5159 10.31 88.7859 10.13C88.8059 10.12 88.8459 10.12 88.8559 10.13C88.8759 10.14 88.8859 10.18 88.8759 10.19ZM88.8659 9.76C88.8559 9.77 88.8159 9.75 88.8059 9.73C88.7559 9.61 88.8259 9.53 88.9059 9.46C88.9159 9.48 88.9359 9.49 88.9359 9.5C88.9359 9.59 88.9959 9.7 88.8659 9.76ZM88.9959 8.49C88.9859 8.49 88.9859 8.49 88.9759 8.49C88.9759 8.41 88.9759 8.33 88.9759 8.25C88.9859 8.25 88.9859 8.25 88.9959 8.25C88.9959 8.33 88.9959 8.41 88.9959 8.49ZM89.3359 6.08C89.3759 6.06 89.4159 6.09 89.4359 6.12C89.5259 6.31 89.4959 6.51 89.5259 6.79C89.3859 6.63 89.4159 6.52 89.3759 6.42C89.3359 6.34 89.2959 6.26 89.2759 6.17C89.2659 6.15 89.3059 6.1 89.3359 6.08ZM89.5059 9.24C89.5059 9.26 89.4659 9.3 89.4659 9.29C89.4259 9.27 89.4259 9.24 89.4359 9.2C89.4359 9.18 89.4559 9.16 89.4759 9.13C89.4859 9.17 89.4959 9.2 89.5059 9.24ZM89.0659 6.68C89.0559 6.67 89.0559 6.66 89.0559 6.65C89.0559 6.63 89.0559 6.62 89.0659 6.61C89.0659 6.63 89.0659 6.66 89.0659 6.68ZM89.1759 10.75C89.1259 10.74 89.0859 10.71 89.0759 10.65C89.0659 10.6 89.0759 10.54 89.1259 10.52C89.1659 10.49 89.2259 10.48 89.2659 10.53C89.3059 10.57 89.3459 10.63 89.3859 10.68C89.3159 10.7 89.2659 10.77 89.1759 10.75ZM89.3859 10.68C89.3959 10.67 89.3959 10.65 89.3959 10.65C89.3559 10.54 89.3459 10.42 89.4659 10.38C89.5659 10.34 89.6359 10.42 89.6959 10.5C89.7359 10.57 89.8259 10.6 89.8459 10.68C89.6159 10.78 89.6159 10.78 89.3859 10.68ZM89.8559 6.18C89.8259 6.15 89.8159 6.12 89.7959 6.09C89.8059 6.08 89.8159 6.07 89.8259 6.07C89.8659 6.07 89.8859 6.1 89.8859 6.14C89.8859 6.17 89.8659 6.19 89.8559 6.18ZM94.39 5.95C94.33 5.92 94.27 5.89 94.21 5.88C93.76 5.8 93.34 5.87 92.95 6.09C92.86 6.14 92.79 6.24 92.67 6.23C92.59 6.13 92.68 6.04 92.66 5.95C92.63 5.82 92.57 5.79 92.42 5.85C92.38 5.86 92.34 5.88 92.3 5.88C92.13 5.88 91.95 5.88 91.77 5.88C91.68 5.88 91.63 5.82 91.6 5.74C91.57 5.68 91.52 5.66 91.48 5.73C91.42 5.84 91.35 5.89 91.22 5.87C91.2 5.87 91.17 5.89 91.15 5.9C91.14 5.91 91.12 5.92 91.13 5.93C91.13 5.96 91.13 5.99 91.15 6C91.19 6.02 91.23 6.03 91.27 6.04C91.44 6.08 91.44 6.08 91.45 6.24C91.45 6.32 91.45 6.4 91.45 6.49C91.46 7.72 91.47 8.96 91.48 10.19C91.48 10.36 91.51 10.54 91.44 10.71C91.42 10.75 91.44 10.82 91.46 10.87C91.49 10.97 91.54 10.98 91.65 10.92C91.69 10.9 91.72 10.88 91.76 10.86C91.78 10.86 91.81 10.86 91.84 10.86C92.07 10.91 92.33 10.78 92.53 10.99C92.54 11 92.6 11 92.6 10.99C92.7 10.84 92.88 10.91 93 10.83C93.01 10.82 93.03 10.81 93.03 10.8C93.02 10.78 93 10.74 92.99 10.74C92.92 10.72 92.85 10.71 92.79 10.71C92.69 10.7 92.64 10.65 92.64 10.56C92.63 10.52 92.63 10.48 92.63 10.44C92.62 9.7 92.64 8.97 92.71 8.24C92.77 7.62 93.15 7.26 93.71 7.11C93.89 7.06 93.91 7.08 93.98 7.28C93.99 7.3 94.01 7.32 94.02 7.34C94.03 7.35 94.05 7.35 94.06 7.36C94.09 7.37 94.12 7.36 94.12 7.32C94.13 7.24 94.14 7.16 94.14 7.08C94.15 6.8 94.15 6.51 94.15 6.23C94.15 6.12 94.19 6.04 94.32 6.07C94.34 6.07 94.37 6.06 94.4 6.05C94.41 6.05 94.42 6.03 94.42 6.02C94.42 6 94.41 5.96 94.39 5.95ZM91.75 10.68C91.66 10.67 91.65 10.61 91.67 10.54C91.67 10.51 91.68 10.46 91.74 10.48C91.81 10.5 91.84 10.55 91.83 10.62C91.82 10.66 91.79 10.68 91.75 10.68ZM91.88 7.76C91.87 7.78 91.83 7.78 91.81 7.79C91.75 7.77 91.74 7.62 91.79 7.59C91.8 7.58 91.84 7.59 91.86 7.61C91.9 7.65 91.9 7.71 91.88 7.76ZM91.91 6.12C91.9 6.15 91.88 6.16 91.85 6.15C91.84 6.13 91.83 6.11 91.82 6.09C91.84 6.08 91.86 6.06 91.88 6.07C91.91 6.07 91.92 6.09 91.91 6.12ZM92.14 7.97C92.13 7.96 92.11 7.94 92.1 7.92C92.1 7.9 92.12 7.88 92.12 7.86C92.14 7.88 92.16 7.9 92.17 7.92C92.18 7.95 92.17 7.97 92.14 7.97ZM92.26 9.08L92.28 9.1L92.26 9.08ZM92.28 9.09C92.24 9.04 92.22 8.99 92.23 8.92C92.24 8.89 92.26 8.87 92.29 8.89C92.29 8.89 92.3 8.9 92.3 8.91C92.3 8.97 92.29 9.03 92.28 9.09ZM92.41 6.36L92.43 6.34C92.36 6.26 92.28 6.18 92.2 6.1C92.41 6.05 92.44 6.06 92.45 6.19C92.45 6.24 92.44 6.29 92.43 6.35L92.41 6.36ZM92.43 7.73C92.43 7.71 92.43 7.68 92.43 7.66C92.43 7.65 92.44 7.65 92.45 7.65C92.45 7.67 92.46 7.7 92.46 7.72C92.46 7.72 92.44 7.73 92.43 7.73ZM92.62 7.74C92.57 7.58 92.57 7.58 92.67 7.47L92.66 7.44L92.68 7.46C92.66 7.55 92.65 7.64 92.62 7.74ZM93 6.66C92.98 6.67 92.95 6.65 92.93 6.64C92.92 6.64 92.92 6.62 92.92 6.61C93.03 6.47 93.17 6.41 93.35 6.43C93.24 6.51 93.12 6.59 93 6.66ZM93.86 6.13C93.84 6.11 93.81 6.08 93.82 6.07C93.84 6.03 93.88 6.02 93.92 6.04C93.94 6.05 93.94 6.08 93.95 6.11C93.93 6.15 93.89 6.15 93.86 6.13ZM99.0093 7.96C99.0493 7.99 99.1193 7.91 99.1393 7.83C99.1693 7.65 99.1693 7.48 99.1293 7.3C99.0293 6.8 98.7593 6.41 98.3293 6.12C97.5993 5.64 96.5493 5.66 95.8293 6.16C95.5393 6.37 95.3193 6.64 95.1693 6.97C95.1093 7.1 95.0793 7.23 95.0993 7.36C95.2093 8.31 95.5293 8.57 96.2993 8.79C96.3393 8.81 96.3793 8.81 96.4193 8.81C96.5893 8.85 96.7693 8.87 96.9393 8.91C97.1793 8.97 97.4193 9.01 97.6493 9.1C97.9493 9.22 97.9793 9.55 97.7093 9.74C97.3193 10.03 96.5293 9.93 96.2093 9.56C96.1993 9.55 96.1893 9.54 96.1793 9.53C96.1493 9.46 96.1393 9.41 96.2193 9.36C96.2493 9.34 96.2793 9.32 96.2693 9.27C96.2593 9.21 96.2193 9.21 96.1793 9.21C95.8093 9.21 95.4493 9.21 95.0793 9.21C95.0193 9.21 94.9493 9.2 94.8993 9.27C94.9193 9.4 94.9493 9.53 94.9693 9.66C95.0293 9.95 95.1793 10.19 95.3893 10.39C95.5693 10.56 95.7793 10.68 96.0093 10.77C96.6493 11.02 97.3093 11.03 97.9593 10.82C98.2493 10.72 98.4993 10.57 98.7193 10.36C99.2493 9.86 99.1493 9.14 98.9593 8.73C98.8193 8.43 98.5493 8.26 98.2593 8.15C97.9893 8.05 97.7193 7.95 97.4393 7.91C97.2193 7.87 97.0093 7.83 96.7993 7.77C96.3593 7.66 96.3193 7.53 96.5493 7.11L96.5393 7.12C96.6493 7.04 96.7093 6.91 96.8493 6.87C97.2093 6.76 97.6293 6.94 97.8193 7.28C97.8693 7.36 97.8593 7.44 97.7693 7.49C97.7393 7.51 97.7093 7.54 97.7293 7.58C97.7593 7.61 97.7993 7.63 97.8293 7.63C97.9293 7.64 98.0193 7.63 98.1193 7.63C98.3593 7.62 98.6093 7.62 98.8493 7.61C98.9293 7.61 98.9793 7.65 98.9793 7.73C98.9793 7.76 98.9793 7.79 98.9693 7.81C98.9693 7.87 98.9693 7.92 99.0093 7.96ZM95.1993 9.5C95.1793 9.5 95.1393 9.48 95.1393 9.46C95.1193 9.41 95.1693 9.39 95.2093 9.39C95.2293 9.38 95.2493 9.41 95.2793 9.42C95.2693 9.46 95.2393 9.49 95.1993 9.5ZM95.8793 9.39C95.9193 9.4 95.9593 9.42 95.9493 9.47C95.9493 9.51 95.9293 9.52 95.8993 9.5C95.8693 9.48 95.8393 9.45 95.8093 9.42C95.8393 9.41 95.8593 9.4 95.8793 9.39ZM95.4193 10.09C95.4093 10.09 95.4093 10.09 95.4093 10.08C95.4093 10.09 95.4193 10.09 95.4193 10.09ZM95.4293 10.11C95.4493 10.13 95.4693 10.16 95.4893 10.19C95.4593 10.17 95.4393 10.14 95.4293 10.11ZM95.9193 10.51C95.7493 10.47 95.5793 10.4 95.5193 10.21C95.7093 10.25 95.8893 10.33 96.0093 10.49C95.9793 10.5 95.9493 10.52 95.9193 10.51ZM96.1793 10.65C96.1093 10.63 96.0393 10.59 96.0293 10.5C96.2493 10.57 96.4593 10.65 96.6993 10.74C96.4993 10.76 96.3293 10.71 96.1793 10.65ZM96.7193 10.25C96.7093 10.24 96.7093 10.22 96.7093 10.21C96.8093 10.14 96.9093 10.19 97.0593 10.24C96.9193 10.29 96.8193 10.32 96.7193 10.25ZM97.3593 10.73C97.4693 10.67 97.5693 10.71 97.6693 10.73C97.6693 10.73 97.6693 10.73 97.6593 10.73C97.5693 10.71 97.4693 10.8 97.3593 10.73ZM97.6693 10.73C97.6593 10.62 97.7293 10.59 97.8193 10.57C97.8993 10.55 97.9893 10.53 98.0793 10.52C97.9793 10.66 97.7993 10.66 97.6693 10.73ZM98.3093 10.47C98.3793 10.31 98.3893 10.3 98.5593 10.33C98.4593 10.33 98.3893 10.41 98.3093 10.47ZM98.6193 10.18C98.5993 10.23 98.5893 10.27 98.5693 10.32C98.5193 10.28 98.4893 10.23 98.5493 10.17C98.5693 10.16 98.5993 10.16 98.6193 10.15C98.6193 10.16 98.6193 10.17 98.6193 10.18ZM98.8693 9.72C98.8593 9.7 98.8393 9.68 98.8393 9.65C98.8393 9.63 98.8593 9.61 98.8793 9.59C98.8893 9.61 98.8993 9.64 98.9093 9.66C98.8893 9.68 98.8793 9.7 98.8693 9.72ZM98.6193 8.56C98.8393 8.78 98.9493 9.04 98.8993 9.38C98.8093 9.33 98.8193 9.24 98.8093 9.18C98.7593 8.91 98.6293 8.69 98.4093 8.51C98.4893 8.48 98.5593 8.5 98.6193 8.56ZM98.2893 8.36C98.3493 8.4 98.4493 8.4 98.4093 8.5C98.3993 8.5 98.3893 8.49 98.3793 8.49C98.3293 8.47 98.2793 8.44 98.2693 8.39C98.2593 8.38 98.2893 8.36 98.2893 8.36ZM98.2993 10.48C98.2393 10.5 98.1693 10.54 98.0993 10.51C98.1493 10.44 98.2293 10.44 98.2993 10.48ZM97.8893 8.87C97.9193 8.89 97.9393 8.94 97.9093 8.97C97.8993 8.99 97.8593 9 97.8493 8.99C97.6793 8.9 97.4793 8.9 97.3393 8.76C97.5293 8.78 97.7293 8.76 97.8893 8.87ZM97.3993 8.29C97.4193 8.3 97.4393 8.33 97.4393 8.35C97.4293 8.37 97.3993 8.39 97.3793 8.39C97.2693 8.4 97.1593 8.38 97.0893 8.28C97.1993 8.22 97.2993 8.24 97.3993 8.29ZM96.9193 8.7C96.7293 8.73 96.6393 8.67 96.5193 8.62C96.6793 8.53 96.7593 8.66 96.9193 8.7ZM95.4893 8.04C95.6993 8.16 95.9293 8.26 96.0593 8.48C95.7693 8.46 95.5793 8.31 95.4893 8.04ZM96.1393 8.55C96.0893 8.55 96.0493 8.55 96.0693 8.49C96.0793 8.48 96.0893 8.47 96.0993 8.48C96.1193 8.49 96.1393 8.51 96.1593 8.52C96.1593 8.53 96.1493 8.55 96.1393 8.55ZM96.0593 8.08C96.0393 8.06 96.0193 8.03 96.0193 8.02C96.0293 7.97 96.0693 7.97 96.1093 7.98C96.1993 8 96.2893 8.04 96.3493 8.13C96.2193 8.17 96.1393 8.12 96.0593 8.08ZM97.3693 6.63C97.3693 6.63 97.3893 6.62 97.3993 6.62C97.5393 6.61 97.5893 6.65 97.5693 6.81C97.5093 6.78 97.4493 6.74 97.3893 6.7C97.3693 6.68 97.3693 6.65 97.3693 6.63ZM97.5793 6.82C97.5793 6.81 97.5893 6.8 97.5993 6.8C97.5993 6.8 97.5993 6.8 97.6093 6.8C97.5993 6.81 97.5893 6.81 97.5793 6.82ZM98.5793 6.59C98.5693 6.56 98.6193 6.56 98.5793 6.59V6.59ZM98.4893 7.44C98.4193 7.44 98.3493 7.44 98.2893 7.44C98.2193 7.44 98.1593 7.46 98.0993 7.41C98.0693 7.37 98.1993 7.27 98.2993 7.26C98.3693 7.25 98.4293 7.28 98.4893 7.31C98.5393 7.33 98.5893 7.33 98.6293 7.29C98.5893 7.35 98.5893 7.44 98.4893 7.44ZM98.8393 7.41C98.8293 7.42 98.7893 7.42 98.7693 7.41C98.7293 7.37 98.6793 7.33 98.6393 7.28C98.7293 7.23 98.7993 7.25 98.8493 7.34C98.8593 7.36 98.8493 7.4 98.8393 7.41Z" fill="#51ADE5" fill-opacity="0.8"/>
</svg>
