<svg width="28" height="28" viewBox="0 0 28 28" fill="none" xmlns="http://www.w3.org/2000/svg">
<path d="M14 28C21.732 28 28 21.732 28 14C28 6.26801 21.732 0 14 0C6.26801 0 0 6.26801 0 14C0 21.732 6.26801 28 14 28Z" fill="#44658C"/>
<path d="M10.4062 22.1679L16.0835 27.8452C20.817 27.1378 24.7756 24.0609 26.7144 19.8601L19.9019 13.0475L10.4062 22.1679Z" fill="#1F3E63" fill-opacity="0.38"/>
<path d="M15.7218 14.5166L10.4051 19.8333C9.76074 20.4777 9.76085 21.5223 10.4051 22.1667C11.0495 22.8109 12.0941 22.8109 12.7385 22.1667L19.7385 15.1667C20.3829 14.5224 20.3827 13.4777 19.7385 12.8333L12.7385 5.8333C12.0941 5.18903 11.0495 5.18903 10.4051 5.8333C9.76074 6.47758 9.76085 7.52227 10.4051 8.16665L15.7218 13.4834C16.0072 13.7687 16.0072 14.2313 15.7218 14.5166Z" fill="#EDF2FF" fill-opacity="0.6"/>
<path d="M15.9359 14C15.9359 14.1869 15.8645 14.374 15.7219 14.5166L10.4052 19.8334C9.76078 20.4776 9.76078 21.5223 10.4052 22.1667C11.0495 22.811 12.0941 22.811 12.7385 22.1667L19.7385 15.1667C20.0607 14.8445 20.2218 14.4223 20.2218 14.0001H15.9359V14Z" fill="white" fill-opacity="0.4"/>
</svg>
