<svg width="26" height="26" viewBox="0 0 26 26" fill="none" xmlns="http://www.w3.org/2000/svg">
<circle cx="12.7154" cy="12.7154" r="12.7154" fill="#C4C4C4"/>
<path d="M12.9865 8.7461C12.8721 8.66027 12.9007 8.53153 12.9007 8.4314C12.9007 8.08808 12.915 7.75907 12.915 7.43006C12.915 7.2584 12.8721 7.21548 12.7147 7.21548C10.3687 7.22979 8.02275 7.22979 5.67675 7.24409C5.53371 7.24409 5.40496 7.2584 5.26191 7.28701C5.2333 7.28701 5.20469 7.31562 5.19039 7.35853C5.16178 7.41575 5.20469 7.47297 5.26191 7.47297C5.5194 7.50158 5.57662 7.65893 5.56232 7.88781C5.5194 8.21682 5.61954 8.57444 5.40496 8.90346C5.36205 8.97498 5.44788 9.0465 5.5194 9.06081C5.59093 9.08942 5.67675 9.08942 5.74828 9.07511C6.34908 9.06081 6.94989 9.0322 7.56499 9.0179C7.73665 9.0179 7.90831 9.0179 8.07997 9.0322C8.19441 9.0465 8.25163 9.11803 8.26593 9.21816C8.26593 9.37552 8.26593 9.53287 8.26593 9.69022C8.26593 11.1493 8.25163 12.6084 8.25163 14.0532C8.23732 14.8114 8.23732 15.5695 8.23732 16.3277C8.23732 16.5136 8.23732 16.6853 8.00844 16.7425C7.96553 16.7568 7.95123 16.8426 8.00844 16.8856C8.05136 16.9285 8.10858 16.9285 8.15149 16.9714C8.25163 17.0429 8.19441 17.2289 8.32315 17.2432C8.49481 17.2718 8.43759 17.0858 8.50911 17.0143C8.56633 16.9428 8.63786 16.9285 8.72369 16.9285C8.96687 16.9428 9.22436 16.9714 9.46754 16.9571C9.71072 16.9428 9.89668 16.9857 9.91099 17.2718C9.91099 17.2861 9.92529 17.3147 9.9396 17.3147C9.9539 17.329 9.98251 17.3433 9.99682 17.329C10.0254 17.3147 10.0826 17.3004 10.0826 17.2861C10.097 17.143 10.1256 17.0143 10.1256 16.8713C10.1399 15.6553 10.1542 14.4251 10.1828 13.2092C10.1685 13.2092 10.1685 13.2092 10.1685 13.2092C10.1828 11.9218 10.2114 10.6486 10.24 9.36121C10.2543 9.06081 10.2972 9.0179 10.5833 9.0179C11.0983 9.00359 11.6276 9.00359 12.1569 8.98929C12.5717 8.98929 12.6575 8.94637 12.6432 9.47565C12.6432 9.51857 12.6575 9.59009 12.6861 9.633C12.7004 9.66161 12.7433 9.69022 12.772 9.69022C12.8006 9.69022 12.8435 9.64731 12.8435 9.6187C12.8578 9.50426 12.8721 9.38982 12.8864 9.27538C12.8864 9.17525 12.8721 9.07511 12.9722 9.00359C13.1153 8.91776 13.101 8.83193 12.9865 8.7461ZM5.97716 8.80332C5.87702 8.80332 5.79119 8.7461 5.77689 8.63166C5.71967 8.28835 5.86272 7.94503 5.86272 7.60172C5.86272 7.51589 5.96285 7.50158 6.04868 7.50158C6.54935 7.48728 7.05002 7.48728 7.55069 7.5445C7.25029 7.5588 6.93558 7.57311 6.62087 7.58741C6.42061 7.58741 6.23464 7.60172 6.04868 7.68754C5.94855 7.73046 5.91994 7.93073 6.03438 7.97364C6.23464 8.05947 6.4063 8.18821 6.54935 8.33126C6.72101 8.53153 6.72101 8.53153 6.94989 8.4457V8.46001C7.22168 8.27404 7.50778 8.25974 7.82248 8.40279C7.96553 8.47431 7.8797 8.70319 8.09427 8.68888C7.37903 8.81763 6.67809 8.80332 5.97716 8.80332ZM9.03839 16.671C8.88104 16.6853 8.72369 16.671 8.58064 16.671C8.50911 16.6567 8.50911 16.5852 8.50911 16.5279C8.52342 16.4135 8.55203 16.3134 8.66647 16.2418C8.96687 16.5136 8.96687 16.5136 9.31019 16.5709C9.26727 16.7282 9.12422 16.6567 9.03839 16.671ZM9.89668 16.342C9.89668 16.3992 9.89668 16.485 9.86807 16.5852C9.85377 16.6138 9.78225 16.671 9.75364 16.671C9.69642 16.671 9.6392 16.6281 9.61059 16.5852C9.55337 16.4135 9.56767 16.2418 9.62489 16.0845C9.6535 15.9987 9.72503 15.8556 9.76794 15.8556C9.92529 15.8699 9.89668 16.0273 9.89668 16.1274C9.91099 16.1846 9.89668 16.2418 9.89668 16.342ZM9.62489 8.76041C9.62489 8.68888 9.69642 8.67458 9.75364 8.68888C9.79655 8.68888 9.88238 8.71749 9.89668 8.7461C9.92529 8.88915 9.78225 8.80332 9.75364 8.84624C9.68211 8.84624 9.61059 8.83193 9.62489 8.76041ZM9.96821 9.23247C9.89668 9.27538 9.73933 9.11803 9.75364 9.0322C9.75364 9.0179 9.81086 8.98929 9.83947 8.98929C9.9539 8.97498 9.99682 9.0322 9.99682 9.14664C9.98251 9.17525 9.98251 9.23247 9.96821 9.23247ZM10.2829 8.70319C10.2829 8.70319 10.2686 8.70319 10.2543 8.70319C10.2543 8.68888 10.2543 8.67458 10.2686 8.67458C10.2829 8.67458 10.2972 8.67458 10.2972 8.67458C10.2972 8.68888 10.2972 8.70319 10.2829 8.70319ZM9.51045 7.51589C9.86807 7.48728 10.0826 7.45867 10.426 7.5445C10.0826 7.58741 9.86807 7.61602 9.51045 7.51589ZM11.7706 8.71749C11.7134 8.7318 11.6562 8.71749 11.599 8.71749C11.599 8.71749 11.5847 8.68888 11.5847 8.67458C11.6419 8.66027 11.6991 8.64597 11.742 8.66027C11.7992 8.66027 11.8135 8.70319 11.7706 8.71749ZM12.6003 7.8592C12.5574 7.88781 12.4859 7.87351 12.4573 7.83059C12.4286 7.74476 12.4143 7.65893 12.3857 7.57311C12.3714 7.48728 12.4429 7.48728 12.5002 7.48728C12.586 7.48728 12.6432 7.51589 12.6575 7.60172C12.6861 7.68754 12.6861 7.78768 12.6003 7.8592ZM13.9556 11.1064H13.9413C13.9556 11.1064 13.9556 11.1064 13.9556 11.1064ZM20.1925 12.4224C19.8635 10.9634 18.9766 9.96202 17.5175 9.57578C16.0584 9.17525 14.7853 9.6187 13.8125 10.7631C12.9828 11.7072 12.7254 12.8373 12.9828 14.0818C13.3262 15.7698 14.8425 17.0143 16.602 17.0286C16.9739 17.0429 17.3887 16.9571 17.8036 16.814C19.5059 16.2275 20.6359 14.3107 20.1925 12.4224ZM13.2546 13.6384C13.226 13.7814 13.1259 13.4667 13.1402 13.1091C13.1402 13.0948 13.1545 13.0805 13.1545 13.0662C13.1688 13.0948 13.1974 13.1234 13.2117 13.152C13.226 13.3093 13.2689 13.481 13.2546 13.6384ZM18.0325 11.2638C18.1612 11.4068 18.2899 11.5642 18.4044 11.7072V11.7215C18.3901 11.7072 18.3901 11.7072 18.3901 11.7072C18.2613 11.7501 18.1898 11.65 18.1183 11.5785C17.9752 11.464 17.9037 11.2781 17.6891 11.2781C17.8036 11.1779 17.918 11.1493 18.0325 11.2638ZM17.5318 9.83327C17.5175 9.84758 17.5175 9.86188 17.5175 9.87619C17.5032 9.87619 17.4889 9.87619 17.4746 9.87619C17.4603 9.86188 17.446 9.84758 17.4317 9.84758C17.4603 9.84758 17.4889 9.83327 17.5318 9.83327ZM16.931 9.71883C16.9453 9.71883 16.9596 9.73314 16.9882 9.73314C16.9739 9.73314 16.9596 9.74744 16.9453 9.74744C16.9167 9.74744 16.9024 9.74744 16.8881 9.74744C16.9024 9.73314 16.9167 9.71883 16.931 9.71883ZM17.1456 10.6486C17.3601 10.7345 17.5461 10.8775 17.7177 11.0206C17.7893 11.0778 17.7034 11.1922 17.6891 11.2781C17.4746 10.992 17.1599 10.8775 16.8308 10.806C16.7593 10.806 16.6878 10.8489 16.6163 10.7631C16.7879 10.663 16.9739 10.5628 17.1456 10.6486ZM14.1988 10.8489C14.2131 10.8346 14.2274 10.8489 14.1988 10.8489V10.8489ZM14.1988 10.8632C14.1988 10.8632 14.1988 10.8632 14.2131 10.8632H14.1988ZM13.9556 11.1064C13.9413 11.1207 13.9413 11.135 13.9413 11.1493C13.9413 11.1493 13.9413 11.1493 13.9413 11.135C13.9413 11.135 13.9413 11.1207 13.9413 11.1064C13.9413 11.1064 13.9413 11.1064 13.9556 11.1064C13.9556 11.0921 13.9556 11.0921 13.9556 11.0921C13.9556 11.0921 13.9556 11.0921 13.9556 11.1064ZM14.399 15.6983C14.2703 15.5409 14.1415 15.3692 14.1988 15.1404C14.1988 15.1118 14.2417 15.0832 14.2703 15.0545V15.0259V15.0402C14.2703 15.2405 14.4419 15.3406 14.5421 15.4551C14.6851 15.5981 14.7709 15.7698 14.9712 15.9128C14.6994 15.9414 14.5278 15.8699 14.399 15.6983ZM15.1286 14.6397C14.4276 13.7099 14.585 12.2937 15.4719 11.5355C16.2157 10.9061 17.2171 10.9634 17.8751 11.6786C18.2756 12.1077 18.4473 12.637 18.4473 13.2521C18.433 13.8386 18.2184 14.3965 17.775 14.84C16.9882 15.6124 15.8009 15.5266 15.1286 14.6397ZM15.6435 15.8127C15.6292 15.7984 15.6435 15.7698 15.6435 15.8127V15.8127ZM16.9167 16.7711C16.6878 16.7997 16.4446 16.7711 16.2157 16.7711C16.1013 16.7711 16.0298 16.7139 15.9869 16.6138C15.901 16.6281 15.8152 16.6281 15.7437 16.6424C15.7437 16.6281 15.7437 16.6138 15.7437 16.5995C15.8152 16.6138 15.901 16.6138 15.9869 16.6138C16.1156 16.6281 16.2443 16.5852 16.3874 16.5995C16.9882 16.6996 17.5318 16.5709 18.0468 16.2418C18.2184 16.1417 18.3615 15.9414 18.619 15.9987C18.1612 16.5136 17.5461 16.6853 16.9167 16.7711ZM18.619 14.0103C18.6762 13.5096 18.7191 13.0662 18.6905 12.6227C19.0195 13.2664 19.0195 13.3666 18.619 14.0103ZM18.9909 10.8918C18.9766 10.8918 18.9766 10.8918 18.9766 10.8918C18.9766 10.8918 18.9766 10.8918 18.9909 10.8918ZM18.9909 10.9061C19.0052 10.9061 19.0052 10.9204 19.0052 10.9204C19.0052 10.9204 18.9909 10.9204 18.9909 10.9061ZM19.1768 10.9777C19.2198 10.9777 19.2627 11.0063 19.277 11.0492C19.2341 11.0492 19.1911 11.0349 19.1768 10.9777ZM19.3199 11.0778C19.3628 11.0921 19.4057 11.1207 19.4486 11.135C19.3914 11.135 19.3342 11.1493 19.3199 11.0778ZM19.606 14.7827C19.606 14.7971 19.606 14.7971 19.606 14.7971C19.6203 14.6683 19.6489 14.5396 19.6775 14.3965C19.749 14.5396 19.7347 14.6683 19.606 14.7827ZM19.9493 14.0103C19.9207 14.1533 19.9064 14.3393 19.6918 14.3679C19.935 13.8958 19.8778 13.4095 19.8349 12.9088C19.7776 12.4511 19.5917 12.0219 19.4629 11.5785C19.42 11.4354 19.3914 11.3067 19.4629 11.1636C19.4629 11.321 19.5774 11.4211 19.6346 11.5499C20.0494 12.3366 20.1353 13.152 19.9493 14.0103Z" fill="black"/>
</svg>
