<svg width="57" height="72" viewBox="0 0 57 72" fill="none" xmlns="http://www.w3.org/2000/svg">
<g filter="url(#filter0_d_588_297)">
<path d="M48.2496 35.9996L26.5 14L50.9996 35.9996L26.5 58.2492L48.2496 35.9996Z" fill="white" fill-opacity="0.6" shape-rendering="crispEdges"/>
</g>
<path d="M9.74983 0H0L11.7498 11.7498H15.9997L22.9996 19.2497H26.7495L43.4992 35.7494L26.7495 52.7491H22.9996L15.4997 60.2489H11.2498L0.249996 71.4987H9.74983L45.4992 35.7494L9.74983 0Z" fill="#1CA0FF" fill-opacity="0.3"/>
<path d="M29.2499 45.4996L25.75 45.7496L30.7499 46.7496L41.4997 35.4998L30.7499 24.75L25.75 25.5L29.2499 25.75L38.9998 35.4998L29.2499 45.4996Z" fill="#1CA0FF" fill-opacity="0.6"/>
<path d="M8.24992 43.4977L3.75 47.9976C7.81603 38.5682 7.40796 33.1309 3.75 23.248L8.24992 27.998H12.4998L17.7498 33.7479L19.5 35.7478L17.7498 37.7478L12.4998 43.4977H8.24992Z" fill="#1CA0FF" fill-opacity="0.4"/>
<path d="M0 14.9998V3.75L22.7496 26.7496H26.9995L35.7494 35.7494L26.9995 44.4993H22.7496L0 67.4989V56.4991L9.49983 46.7492H13.7498L21.9996 38.4994H26.9995L29.9995 35.7494L26.9995 32.7495H21.9996L13.7498 24.4996H9.49983L0 14.9998Z" fill="#1CA0FF" fill-opacity="0.3"/>
<defs>
<filter id="filter0_d_588_297" x="20.5" y="8" width="36.5" height="56.25" filterUnits="userSpaceOnUse" color-interpolation-filters="sRGB">
<feFlood flood-opacity="0" result="BackgroundImageFix"/>
<feColorMatrix in="SourceAlpha" type="matrix" values="0 0 0 0 0 0 0 0 0 0 0 0 0 0 0 0 0 0 127 0" result="hardAlpha"/>
<feOffset/>
<feGaussianBlur stdDeviation="3"/>
<feComposite in2="hardAlpha" operator="out"/>
<feColorMatrix type="matrix" values="0 0 0 0 0.00784314 0 0 0 0 0.331843 0 0 0 0 0.960784 0 0 0 1 0"/>
<feBlend mode="normal" in2="BackgroundImageFix" result="effect1_dropShadow_588_297"/>
<feBlend mode="normal" in="SourceGraphic" in2="effect1_dropShadow_588_297" result="shape"/>
</filter>
</defs>
</svg>
