<svg width="35" height="37" viewBox="0 0 35 37" fill="none" xmlns="http://www.w3.org/2000/svg">
<path d="M17.5 1L22.1507 4.1866L27.7862 4.3422L29.6757 9.65383L34.1435 13.0922L32.55 18.5L34.1435 23.9078L29.6757 27.3462L27.7862 32.6578L22.1507 32.8134L17.5 36L12.8493 32.8134L7.21376 32.6578L5.3243 27.3462L0.85651 23.9078L2.45 18.5L0.85651 13.0922L5.3243 9.65383L7.21376 4.3422L12.8493 4.1866L17.5 1Z" fill="#7FB335" stroke="#BEF7BA"/>
<mask id="mask0_293_105" style="mask-type:alpha" maskUnits="userSpaceOnUse" x="0" y="0" width="18" height="37">
<rect width="18" height="37" fill="#C4C4C4"/>
</mask>
<g mask="url(#mask0_293_105)">
<path d="M17.5 1L22.1507 4.1866L27.7862 4.3422L29.6757 9.65383L34.1435 13.0922L32.55 18.5L34.1435 23.9078L29.6757 27.3462L27.7862 32.6578L22.1507 32.8134L17.5 36L12.8493 32.8134L7.21376 32.6578L5.3243 27.3462L0.85651 23.9078L2.45 18.5L0.85651 13.0922L5.3243 9.65383L7.21376 4.3422L12.8493 4.1866L17.5 1Z" fill="#88CC2A" stroke="#BEF7BA"/>
</g>
<path d="M15.9861 24.6927C15.402 24.6927 14.818 24.4698 14.3722 24.0239L9.66876 19.3205C8.77708 18.4293 8.77708 16.9841 9.66876 16.0927C10.5604 15.2011 12.0049 15.2011 12.8966 16.0927L15.9861 19.1819L22.4995 12.6688C23.3912 11.7771 24.8356 11.7771 25.7273 12.6688C26.6189 13.56 26.6189 15.0052 25.7273 15.8966L17.5999 24.0239C17.1542 24.4698 16.5701 24.6927 15.9861 24.6927Z" fill="white"/>
</svg>
