<?xml version="1.0" encoding="iso-8859-1"?>
<!-- Generator: Adobe Illustrator 19.0.0, SVG Export Plug-In . SVG Version: 6.00 Build 0)  -->
<svg version="1.1" id="Layer_1" xmlns="http://www.w3.org/2000/svg" xmlns:xlink="http://www.w3.org/1999/xlink" x="0px" y="0px"
	 viewBox="0 0 477.668 477.668" style="enable-background:new 0 0 477.668 477.668;" xml:space="preserve">
<g>
	<g>
		<path style="fill:#6D6E71;" d="M428.834,445.169c0,0,0,11,0,25h-190v-125c29.4,0,50-15,50-15c10.9,12.2,45,30,45,30
			C428.534,390.169,428.834,445.169,428.834,445.169z"/>
		<path style="fill:#58595B;" d="M238.834,345.169v125h-190c0-14,0-25,0-25s0.9-54.7,95-85c0,0,34.1-17.8,45-30
			C188.834,330.169,209.434,345.169,238.834,345.169z"/>
		<path style="fill:#FFD7A3;" d="M188.834,330.169v-31.8c14.6,7.6,31.4,11.8,50,11.8s35.4-4.2,50-11.8v31.8c0,0-20.6,15-50,15
			S188.834,330.169,188.834,330.169z"/>
		<path style="fill:#A18369;" d="M348.834,135.169c0,0-45,8.8-110-35c-7.3-4.9-110,35-110,35v-45c0,0-4.2-75,110-75
			c0,0,58.8-22.5,115,10s8.8,57.9,60,85C413.834,110.169,411.734,135.169,348.834,135.169z"/>
		<path style="fill:#FFD7A3;" d="M128.834,190.169c0,6.7,0.4,13.3,1.3,19.7c-15.5-2.1-31.3-16.9-31.3-29.7c0-13.8,13.4-20,30-20
			V190.169z"/>
		<path style="fill:#FFD7A3;" d="M348.834,160.169c16.6,0,30,6.2,30,20c0,12.8-15.8,27.6-31.3,29.7c0.9-6.4,1.3-13,1.3-19.7V160.169
			z"/>
		<path style="fill:#FFE1B2;" d="M348.834,160.169v30c0,6.7-0.4,13.3-1.3,19.7c-5.4,39.1-26.6,71.9-58.7,88.5
			c-14.6,7.6-31.4,11.8-50,11.8s-35.4-4.2-50-11.8c-32.1-16.6-53.3-49.4-58.7-88.5c-0.9-6.4-1.3-13-1.3-19.7v-30v-25
			c0,0,102.7-39.9,110-35c65,43.8,110,35,110,35V160.169z"/>
	</g>
	<g>
		<path style="fill:#231F20;" d="M336.735,353.222c-8.933-4.706-30.927-17.169-40.401-26.111v-24.3
			c30.386-17.373,51.164-48.543,57.804-86.697c17.213-4.929,32.196-21.085,32.196-35.946c0-15.044-11.308-25.026-30-27.094v-10.533
			c60.655-2.03,64.71-28.608,64.974-31.745l0.415-4.938l-4.38-2.318c-21.543-11.402-22.606-20.792-24.079-33.788
			c-1.644-14.515-3.69-32.579-35.675-51.075C303.067-12.855,247.116,4.333,237.514,7.672C194.019,7.887,161.82,18.726,141.8,39.898
			c-20.861,22.062-20.578,47.425-20.466,50.431v62.745c-18.692,2.068-30,12.051-30,27.094c0,14.861,14.983,31.017,32.196,35.946
			c6.647,38.168,27.428,69.336,57.804,86.697v24.299c-9.48,8.947-31.493,21.42-40.416,26.119
			c-97.483,31.626-99.543,89.368-99.583,91.816l-0.001,32.623h395v-32.541C436.321,442.665,434.879,384.558,336.735,353.222z
			 M238.834,337.669c-20.231,0-36.095-7.875-42.5-11.623v-16.08c13.182,5.108,27.424,7.703,42.5,7.703
			c15.079,0,29.324-2.595,42.5-7.701v16.097C274.965,329.82,259.217,337.669,238.834,337.669z M371.334,180.169
			c0,6.126-6.627,14.466-15.266,19.07c0.165-2.963,0.266-31.088,0.266-31.088C369.702,170.025,371.334,176.937,371.334,180.169z
			 M152.7,50.204c17.276-18.271,46.256-27.535,86.135-27.535l1.385-0.004l1.284-0.487c0.557-0.21,56.292-20.75,108.577,9.483
			c25.44,14.713,26.756,26.328,28.279,39.779c1.48,13.068,3.142,27.743,25.736,41.789c-4.223,5.058-15.943,13.201-47.793,14.309
			l-8.87,0.262c-0.107,0.02-10.814,1.923-28.906-1.263c-16.763-2.953-43.469-11.005-75.512-32.596
			c-3.661-2.458-8.562-2.723-26.512,2.418c-9.569,2.74-22.319,6.911-37.896,12.396c-16.253,5.723-32.284,11.721-42.271,15.51V90.169
			l-0.012-0.419C136.311,89.54,135.348,68.554,152.7,50.204z M106.334,180.169c0-3.232,1.633-10.144,15-12.018
			c0,0,0.101,28.125,0.266,31.088C112.961,194.634,106.334,186.295,106.334,180.169z M137.561,208.825
			c-0.814-5.79-1.227-12.066-1.227-18.656V140.31c42.763-16.469,89.59-32.584,99.597-33.058
			c50.045,33.339,88.707,36.627,105.403,36.107v46.81c0,6.59-0.413,12.866-1.229,18.674c-5.158,37.347-25.101,67.55-54.733,82.874
			c-13.962,7.268-29.62,10.952-46.537,10.952s-32.575-3.685-46.555-10.962C162.665,276.392,142.722,246.189,137.561,208.825z
			 M56.334,445.26c0.056-1.515,2.773-49.93,89.799-77.952c0,0,29.962-15.674,43.705-27.674c7.528,4.277,22.383,11.209,41.497,12.724
			v110.311h-175L56.334,445.26L56.334,445.26z M421.334,462.669h-175V352.358c19.113-1.515,33.969-8.447,41.497-12.724
			c13.743,12,43.738,27.685,43.738,27.685c25.457,8.064,59.721,23.257,78.396,49.836c10.718,15.254,11.344,27.458,11.369,28.096
			V462.669z"/>
		<path style="fill:#231F20;" d="M238.834,237.669h20v-15h-12.5v-32.5h-15v40C231.334,234.311,234.692,237.669,238.834,237.669z"/>
		<rect x="258.834" y="372.669" style="fill:#231F20;" width="20" height="15"/>
		<rect x="258.834" y="402.669" style="fill:#231F20;" width="20" height="15"/>
		<rect x="258.834" y="432.669" style="fill:#231F20;" width="20" height="15"/>
		<rect x="198.834" y="372.669" style="fill:#231F20;" width="20" height="15"/>
		<rect x="198.834" y="402.669" style="fill:#231F20;" width="20" height="15"/>
		<rect x="198.834" y="432.669" style="fill:#231F20;" width="20" height="15"/>
	</g>
</g>
<g>
</g>
<g>
</g>
<g>
</g>
<g>
</g>
<g>
</g>
<g>
</g>
<g>
</g>
<g>
</g>
<g>
</g>
<g>
</g>
<g>
</g>
<g>
</g>
<g>
</g>
<g>
</g>
<g>
</g>
</svg>
